<svg width="184.7" height="184.74" version="1.1" viewBox="0 0 48.868 48.879" xmlns="http://www.w3.org/2000/svg">
 <g transform="translate(-2.0244 -4.0489)" stroke="#000" stroke-linecap="round" stroke-linejoin="round">
  <circle cx="26.458" cy="28.483" r="23.959" fill="#f5ff4b" fill-rule="evenodd" stroke-width=".95012"/>
  <path d="m50.267 25.296c-6.5563 3.8998-15.046 6.2429-23.853 6.2613-8.7834-0.01845-17.252-2.35-23.802-6.231-0.054779 0.52076-0.092281 3.0008-0.11244 3.524-2.332e-4 13.146 10.706 23.803 23.914 23.803 13.207-5.2e-5 23.914-10.657 23.914-23.803-0.0023-0.53275-0.02263-3.0229-0.06086-3.5543z" fill="#fff" fill-rule="evenodd" stroke-width=".52678"/>
  <g fill="#1a1a1a" fill-rule="evenodd">
   <path d="m26.422 31.617 0.44783 21.048" stroke-width=".52678"/>
   <path transform="matrix(1 0 0 .9907 0 .47638)" d="m18.361 30.811 0.2687 20.421" stroke-width=".52925"/>
   <path transform="matrix(1 0 0 .98309 0 .81499)" d="m12.36 29.467 0.17913 18.719" stroke-width=".5313"/>
   <path transform="translate(0 .12667)" d="m7.3444 27.676-0.17913 14.957" stroke-width=".52678"/>
   <path transform="matrix(1 0 0 .95487 0 1.5483)" d="m3.6722 25.884-0.53739 8.4192" stroke-width=".53909"/>
   <path d="m33.766 30.99 1.2539 19.973" stroke-width=".52678"/>
   <path transform="matrix(1 0 0 .98527 0 .68346)" d="m41.021 29.198 1.5226 17.197" stroke-width=".53071"/>
   <path transform="matrix(1 0 0 .97133 0 1.1631)" d="m46.216 27.318 1.1644 13.256" stroke-width=".5345"/>
  </g>
  <g fill="none">
   <path d="m20.266 19.76s-1.6713-2.6574-3.1666-3.42c-1.9987-1.0193-4.5969-1.181-6.9666-1.14-1.3053 0.02257-3.8 0.75999-3.8 0.75999" stroke-width=".76491"/>
   <path d="m20.266 19.76s-1.6713-2.6574-3.1666-3.42c-1.9987-1.0193-4.5969-1.181-6.9666-1.14-1.3053 0.02257-3.8 0.75999-3.8 0.75999" stroke-width=".76491"/>
   <path d="m20.266 19.76s-1.6713-2.6574-3.1666-3.42c-1.9987-1.0193-4.5969-1.181-6.9666-1.14-1.3053 0.02257-3.8 0.75999-3.8 0.75999" stroke-width=".76491"/>
   <g stroke-width=".76491">
    <path d="m32.768 20.169s1.6713-2.6574 3.1666-3.42c1.9987-1.0193 4.5969-1.181 6.9666-1.14 1.3053 0.02257 3.8 0.75999 3.8 0.75999"/>
    <path d="m32.768 20.169s1.6713-2.6574 3.1666-3.42c1.9987-1.0193 4.5969-1.181 6.9666-1.14 1.3053 0.02257 3.8 0.75999 3.8 0.75999"/>
    <path d="m32.768 20.169s1.6713-2.6574 3.1666-3.42c1.9987-1.0193 4.5969-1.181 6.9666-1.14 1.3053 0.02257 3.8 0.75999 3.8 0.75999"/>
   </g>
  </g>
  <ellipse transform="rotate(-12.762)" cx="36.194" cy="31.9" rx="6.2699" ry="2.5966" fill="#e00000" fill-rule="evenodd" stroke-width=".36804"/>
  <ellipse transform="rotate(10.534)" cx="14.443" cy="19.988" rx="6.2699" ry="2.5966" fill="#e00000" fill-rule="evenodd" stroke-width=".36804"/>
 </g>
</svg>
