<svg width="198.87" height="184.7" version="1.1" viewBox="0 0 52.618 48.868" xmlns="http://www.w3.org/2000/svg">
 <g transform="translate(-172.38 -250.46)">
  <g fill-rule="evenodd" stroke-linecap="round" stroke-linejoin="round">
   <path d="m220.77 274.89a23.959 23.959 0 0 1-23.959 23.959 23.959 23.959 0 0 1-23.959-23.959 23.959 23.959 0 0 1 23.959-23.959 23.959 23.959 0 0 1 23.959 23.959z" fill="#f5ff4b"/>
   <path d="m196.81 250.46c-13.489 0-24.434 10.945-24.434 24.434 0 13.489 10.945 24.434 24.434 24.434s24.436-10.945 24.436-24.434c0-13.489-10.947-24.434-24.436-24.434zm0 0.94922c12.975 0 23.484 10.509 23.484 23.484 0 12.975-10.509 23.484-23.484 23.484s-23.482-10.509-23.482-23.484c0-12.975 10.507-23.484 23.482-23.484z"/>
  </g>
  <g fill-rule="evenodd" stroke-linecap="round" stroke-linejoin="round">
   <path d="m217.44 287.11 7.179-11.355-4.056-0.48378" fill="#f5ff4b"/>
   <path d="m220.61 274.89a0.38245 0.38245 0 0 0-0.42383 0.33594 0.38245 0.38245 0 0 0 0.33398 0.42383l3.4531 0.41211-6.8535 10.844a0.38245 0.38245 0 0 0 0.11914 0.52734 0.38245 0.38245 0 0 0 0.52735-0.11914l7.1777-11.355a0.38249 0.38249 0 0 0-0.27734-0.58398z"/>
  </g>
  <g fill="#f5ff4b" fill-rule="evenodd">
   <rect transform="matrix(-.33378 .94265 -.93098 -.36507 0 0)" x="176.25" y="-300.69" width="1.3026" height="1.5049" stroke-width=".26466"/>
   <rect transform="matrix(.87818 .47833 -.52341 .85208 0 0)" x="334.83" y="146.22" width=".80682" height=".93341" stroke-width=".26476"/>
   <rect transform="rotate(37.078)" x="345.22" y="96.794" width=".88666" height="1.4883" stroke-width=".26458"/>
   <rect transform="matrix(.0042763 .99999 -.99958 -.029119 0 0)" x="268.19" y="-219.24" width="1.3026" height="1.5049" stroke-width=".26466"/>
  </g>
  <g transform="matrix(.9682 -.25016 .2201 .97548 0 0)" fill-rule="evenodd" stroke-linecap="round" stroke-linejoin="round">
   <path d="m121.4 314.2a5.407 2.8183 0 0 1-5.407 2.8183 5.407 2.8183 0 0 1-5.407-2.8183 5.407 2.8183 0 0 1 5.407-2.8183 5.407 2.8183 0 0 1 5.407 2.8183z" fill="#e20000"/>
   <path d="m115.99 311.15c-1.5259 0-2.9102 0.31914-3.9316 0.85157-1.0215 0.53242-1.709 1.3004-1.709 2.1992 0 0.89881 0.6875 1.6668 1.709 2.1992 1.0215 0.53243 2.4058 0.85157 3.9316 0.85157s2.9082-0.31914 3.9297-0.85157c1.0215-0.53242 1.709-1.3004 1.709-2.1992 0-0.89882-0.68751-1.6668-1.709-2.1992-1.0215-0.53243-2.4038-0.85157-3.9297-0.85157zm0 0.46485c1.4604 0 2.7794 0.31122 3.7148 0.79883 0.93549 0.4876 1.459 1.1294 1.459 1.7871 0 0.65768-0.5235 1.2995-1.459 1.7871-0.93548 0.48761-2.2545 0.79883-3.7148 0.79883s-2.7813-0.31122-3.7168-0.79883c-0.93548-0.4876-1.459-1.1294-1.459-1.7871 0-0.65769 0.5235-1.2995 1.459-1.7871 0.93549-0.48761 2.2564-0.79883 3.7168-0.79883z"/>
  </g>
  <g transform="matrix(1.3088 -.16396 .16452 1.3133 -148.65 -94.595)" stroke-linecap="round" stroke-linejoin="round" stroke-width=".75683">
   <g fill-rule="evenodd">
    <path d="m223.38 303.45a3.3139 3.3139 0 0 1-3.3139 3.3139 3.3139 3.3139 0 0 1-3.3139-3.3139 3.3139 3.3139 0 0 1 3.3139-3.3139 3.3139 3.3139 0 0 1 3.3139 3.3139z"/>
    <path d="m220.06 299.96c-1.9253 0-3.4902 1.5649-3.4902 3.4902s1.5649 3.4902 3.4902 3.4902 3.4902-1.5649 3.4902-3.4902-1.5649-3.4902-3.4902-3.4902zm0 0.35157c1.7351 0 3.1387 1.4035 3.1387 3.1387s-1.4035 3.1367-3.1387 3.1367-3.1367-1.4016-3.1367-3.1367 1.4016-3.1387 3.1367-3.1387z"/>
   </g>
   <path transform="rotate(9.0474 216.26 304.89)" d="m221.94 300.67c-0.0412-0.1183-0.0798-0.42663-0.31535-0.72608-0.40583-0.51585-1.3838-1.1539-2.6611-1.3875-0.825-0.15569-1.6249-0.11347-2.3342 0.0335-0.70698 0.14652-1.4614 0.42549-2.1443 0.92264-0.6844 0.47597-1.1601 1.079-1.2685 1.4961-0.0643 0.2474 0.0241 0.46687 0.0356 0.5569 0.0761-0.05 0.29641-0.11372 0.464-0.26434 0.26691-0.23987 0.63805-0.81339 1.1692-1.2653 0.56877-0.46004 1.224-0.74702 1.8615-0.87913 0.63836-0.13229 1.3597-0.13004 2.0792 0.044 1.1691 0.29045 1.8679 0.8626 2.4158 1.1774 0.29746 0.17089 0.58307 0.23322 0.69821 0.29176z" stroke-width=".57898"/>
  </g>
  <g transform="matrix(1.3088 -.16396 .16452 1.3133 -129.3 -95.58)" stroke-linecap="round" stroke-linejoin="round" stroke-width=".75683">
   <g fill-rule="evenodd">
    <path d="m223.38 303.45a3.3139 3.3139 0 0 1-3.3139 3.3139 3.3139 3.3139 0 0 1-3.3139-3.3139 3.3139 3.3139 0 0 1 3.3139-3.3139 3.3139 3.3139 0 0 1 3.3139 3.3139z"/>
    <path d="m220.06 299.96c-1.9253 0-3.4902 1.5649-3.4902 3.4902s1.5649 3.4902 3.4902 3.4902 3.4902-1.5649 3.4902-3.4902-1.5649-3.4902-3.4902-3.4902zm0 0.35157c1.7351 0 3.1387 1.4035 3.1387 3.1387s-1.4035 3.1367-3.1387 3.1367-3.1367-1.4016-3.1367-3.1367 1.4016-3.1387 3.1367-3.1387z"/>
   </g>
   <path transform="rotate(9.0474 216.26 304.89)" d="m221.94 300.67c-0.0412-0.1183-0.0798-0.42663-0.31535-0.72608-0.40583-0.51585-1.3838-1.1539-2.6611-1.3875-0.825-0.15569-1.6249-0.11347-2.3342 0.0335-0.70698 0.14652-1.4614 0.42549-2.1443 0.92264-0.6844 0.47597-1.1601 1.079-1.2685 1.4961-0.0643 0.2474 0.0241 0.46687 0.0356 0.5569 0.0761-0.05 0.29641-0.11372 0.464-0.26434 0.26691-0.23987 0.63805-0.81339 1.1692-1.2653 0.56877-0.46004 1.224-0.74702 1.8615-0.87913 0.63836-0.13229 1.3597-0.13004 2.0792 0.044 1.1691 0.29045 1.8679 0.8626 2.4158 1.1774 0.29746 0.17089 0.58307 0.23322 0.69821 0.29176z" stroke-width=".57898"/>
  </g>
 </g>
</svg>
