<svg width="297mm" height="297mm" version="1.1" viewBox="0 0 297 297" xmlns="http://www.w3.org/2000/svg">
 <g fill-rule="evenodd">
  <g fill="#fcc1e1">
   <path transform="translate(-22.8 4.3066)" d="m188.09 65.323c-1.7913-2.1496-4.2992-3.8215-7.1056-4.2992-2.8064-0.47768-5.9113 0.23883-8.4192 1.6122s-4.4186 3.4035-5.4336 5.8516c-1.0151 2.4482-1.1345 5.3142-0.17911 7.9415 0.95539 2.6273 2.9855 5.0157 5.374 6.6278 2.3884 1.6122 5.1351 2.4481 7.9415 2.0301 2.8064-0.41799 5.6725-2.0899 7.6429-4.3589 1.9704-2.269 3.0452-5.1351 3.0452-7.8818s-1.0748-5.3739-2.8661-7.5235z"/>
   <path transform="translate(-87.432 50.092)" d="m188.76 64.563c-1.7913-2.1496-4.6369-3.4415-7.6122-3.7292s-6.0802 0.42883-8.778 1.6544c-2.6979 1.2256-4.9885 2.9601-6.0036 5.4083s-0.75453 5.6098 0.26418 8.4482c1.0187 2.8384 2.7955 5.3534 5.1839 6.9656 2.3885 1.6122 5.3884 2.3215 8.3215 1.8402 2.9331-0.48132 5.7991-2.1532 7.7696-4.4222 1.9704-2.269 3.0452-5.1351 3.2141-8.0718 0.16888-2.9367-0.56812-5.9439-2.3594-8.0935z"/>
   <path transform="rotate(-54.608 280.24 102.32)" d="m188.76 64.563c-1.7913-2.1496-4.6369-3.4415-7.6122-3.7292s-6.0802 0.42883-8.778 1.6544c-2.6979 1.2256-4.9885 2.9601-6.0036 5.4083s-0.75453 5.6098 0.38512 8.181c1.1396 2.5712 3.1582 4.5518 5.5467 6.164 2.3885 1.6122 5.1466 2.8559 7.9587 2.6417 2.8122-0.21414 5.6782-1.886 7.6487-4.155 1.9704-2.269 3.0452-5.1351 3.2141-8.0718 0.16888-2.9367-0.56812-5.9439-2.3594-8.0935z"/>
   <path transform="translate(-138.57 -16.973)" d="m188.09 65.323c-1.7913-2.1496-4.2992-3.8215-7.1056-4.2992-2.8064-0.47768-5.9113 0.23883-8.4192 1.6122s-4.4186 3.4035-5.4336 5.8516c-1.0151 2.4482-1.1345 5.3142-0.17911 7.9415 0.95539 2.6273 2.9855 5.0157 5.374 6.6278 2.3884 1.6122 5.1351 2.4481 8.3637 1.7346 3.2286-0.71355 6.939-2.9765 8.9095-5.2455 1.9705-2.269 2.2008-4.544 1.7786-6.9952-0.42223-2.4512-1.497-5.0784-3.2883-7.2279z"/>
   <path transform="rotate(-77.32 203.11 213.81)" d="m188.76 64.563c-1.7913-2.1496-4.6369-3.4415-7.6122-3.7292s-6.0802 0.42883-8.778 1.6544c-2.6979 1.2256-4.9885 2.9601-6.0036 5.4083s-0.75453 5.6098 0.26418 8.4482c1.0187 2.8384 2.7955 5.3534 5.1839 6.9656 2.3885 1.6122 5.3884 2.3215 8.3215 1.8402 2.9331-0.48132 5.7991-2.1532 7.7696-4.4222 1.9704-2.269 3.0452-5.1351 3.2141-8.0718 0.16888-2.9367-0.56812-5.9439-2.3594-8.0935z"/>
   <path transform="rotate(-24.377 613.35 8.0885)" d="m188.76 64.563c-1.7913-2.1496-4.6369-3.4415-7.6122-3.7292s-6.0802 0.42883-8.778 1.6544c-2.6979 1.2256-4.9885 2.9601-6.0036 5.4083s-0.75453 5.6098 0.26418 8.4482c1.0187 2.8384 2.7955 5.3534 5.1839 6.9656 2.3885 1.6122 5.3884 2.3215 8.3215 1.8402 2.9331-0.48132 5.7991-2.1532 7.7696-4.4222 1.9704-2.269 3.0452-5.1351 3.2141-8.0718 0.16888-2.9367-0.56812-5.9439-2.3594-8.0935z"/>
   <path transform="rotate(-21.262 139.2 -165.72)" d="m188.09 65.323c-1.7913-2.1496-4.2992-3.8215-7.1056-4.2992-2.8064-0.47768-5.9113 0.23883-8.4192 1.6122s-4.4186 3.4035-5.4336 5.8516c-1.0151 2.4482-1.1345 5.3142-0.17911 7.9415 0.95539 2.6273 2.9855 5.0157 5.374 6.6278 2.3884 1.6122 5.1351 2.4481 8.3637 1.7346 3.2286-0.71355 6.939-2.9765 8.9095-5.2455 1.9705-2.269 2.2008-4.544 1.7786-6.9952-0.42223-2.4512-1.497-5.0784-3.2883-7.2279z"/>
   <path transform="rotate(-23.958 624.6 254)" d="m188.09 65.323c-1.7913-2.1496-4.2992-3.8215-7.1056-4.2992-2.8064-0.47768-5.9113 0.23883-8.4192 1.6122s-4.4186 3.4035-5.4336 5.8516c-1.0151 2.4482-1.1345 5.3142-0.17911 7.9415 0.95539 2.6273 2.9855 5.0157 5.6725 6.2696 2.687 1.2539 6.0307 1.3733 8.8371 0.95535 2.8064-0.41798 5.0754-1.3733 6.7473-3.2841 1.6719-1.9108 2.7467-4.7768 2.7467-7.5235s-1.0748-5.3739-2.8661-7.5235z"/>
  </g>
  <g fill="#e0f717">
   <path transform="rotate(-21.262 126.87 -153.17)" d="m188.09 65.323c-1.7913-2.1496-4.2992-3.8215-7.1056-4.2992-2.8064-0.47768-5.9113 0.23883-8.4192 1.6122s-4.4186 3.4035-5.4336 5.8516c-1.0151 2.4482-1.1345 5.3142-0.17911 7.9415 0.95539 2.6273 2.9855 5.0157 5.374 6.6278 2.3884 1.6122 5.1351 2.4481 8.3637 1.7346 3.2286-0.71355 6.939-2.9765 8.9095-5.2455 1.9705-2.269 2.2008-4.544 1.7786-6.9952-0.42223-2.4512-1.497-5.0784-3.2883-7.2279z"/>
   <path transform="rotate(-54.608 273.41 104.07)" d="m188.76 64.563c-1.7913-2.1496-4.6369-3.4415-7.6122-3.7292s-6.0802 0.42883-8.778 1.6544c-2.6979 1.2256-4.9885 2.9601-6.0036 5.4083s-0.75453 5.6098 0.38512 8.181c1.1396 2.5712 3.1582 4.5518 5.5467 6.164 2.3885 1.6122 5.1466 2.8559 7.9587 2.6417 2.8122-0.21414 5.6782-1.886 7.6487-4.155 1.9704-2.269 3.0452-5.1351 3.2141-8.0718 0.16888-2.9367-0.56812-5.9439-2.3594-8.0935z"/>
   <path transform="rotate(-24.377 597.68 9.6956)" d="m188.76 64.563c-1.7913-2.1496-4.6369-3.4415-7.6122-3.7292s-6.0802 0.42883-8.778 1.6544c-2.6979 1.2256-4.9885 2.9601-6.0036 5.4083s-0.75453 5.6098 0.26418 8.4482c1.0187 2.8384 2.7955 5.3534 5.1839 6.9656 2.3885 1.6122 5.3884 2.3215 8.3215 1.8402 2.9331-0.48132 5.7991-2.1532 7.7696-4.4222 1.9704-2.269 3.0452-5.1351 3.2141-8.0718 0.16888-2.9367-0.56812-5.9439-2.3594-8.0935z"/>
  </g>
  <path transform="translate(-29.965 .0074573)" d="m188.09 65.323c-1.7913-2.1496-4.2992-3.8215-7.1056-4.2992-2.8064-0.47768-5.9113 0.23883-8.4192 1.6122s-4.4186 3.4035-5.4336 5.8516c-1.0151 2.4482-1.1345 5.3142-0.17911 7.9415 0.95539 2.6273 2.9855 5.0157 5.374 6.6278 2.3884 1.6122 5.1351 2.4481 7.9415 2.0301 2.8064-0.41799 5.6725-2.0899 7.6429-4.3589 1.9704-2.269 3.0452-5.1351 3.0452-7.8818s-1.0748-5.3739-2.8661-7.5235z" fill="#e0f817" fill-opacity=".81176"/>
  <g fill="#e0f717">
   <path transform="rotate(-23.958 601.57 254.41)" d="m188.09 65.323c-1.7913-2.1496-4.2992-3.8215-7.1056-4.2992-2.8064-0.47768-5.9113 0.23883-8.4192 1.6122s-4.4186 3.4035-5.4336 5.8516c-1.0151 2.4482-1.1345 5.3142-0.17911 7.9415 0.95539 2.6273 2.9855 5.0157 5.6725 6.2696 2.687 1.2539 6.0307 1.3733 8.8371 0.95535 2.8064-0.41798 5.0754-1.3733 6.7473-3.2841 1.6719-1.9108 2.7467-4.7768 2.7467-7.5235s-1.0748-5.3739-2.8661-7.5235z"/>
   <path transform="rotate(-77.32 198.54 216.77)" d="m188.76 64.563c-1.7913-2.1496-4.6369-3.4415-7.6122-3.7292s-6.0802 0.42883-8.778 1.6544c-2.6979 1.2256-4.9885 2.9601-6.0036 5.4083s-0.75453 5.6098 0.26418 8.4482c1.0187 2.8384 2.7955 5.3534 5.1839 6.9656 2.3885 1.6122 5.3884 2.3215 8.3215 1.8402 2.9331-0.48132 5.7991-2.1532 7.7696-4.4222 1.9704-2.269 3.0452-5.1351 3.2141-8.0718 0.16888-2.9367-0.56812-5.9439-2.3594-8.0935z"/>
   <path transform="translate(-91.732 42.927)" d="m188.76 64.563c-1.7913-2.1496-4.6369-3.4415-7.6122-3.7292s-6.0802 0.42883-8.778 1.6544c-2.6979 1.2256-4.9885 2.9601-6.0036 5.4083s-0.75453 5.6098 0.26418 8.4482c1.0187 2.8384 2.7955 5.3534 5.1839 6.9656 2.3885 1.6122 5.3884 2.3215 8.3215 1.8402 2.9331-0.48132 5.7991-2.1532 7.7696-4.4222 1.9704-2.269 3.0452-5.1351 3.2141-8.0718 0.16888-2.9367-0.56812-5.9439-2.3594-8.0935z"/>
   <path transform="translate(-140.72 -21.989)" d="m188.09 65.323c-1.7913-2.1496-4.2992-3.8215-7.1056-4.2992-2.8064-0.47768-5.9113 0.23883-8.4192 1.6122s-4.4186 3.4035-5.4336 5.8516c-1.0151 2.4482-1.1345 5.3142-0.17911 7.9415 0.95539 2.6273 2.9855 5.0157 5.374 6.6278 2.3884 1.6122 5.1351 2.4481 8.3637 1.7346 3.2286-0.71355 6.939-2.9765 8.9095-5.2455 1.9705-2.269 2.2008-4.544 1.7786-6.9952-0.42223-2.4512-1.497-5.0784-3.2883-7.2279z"/>
  </g>
 </g>
</svg>
