<svg width="297mm" height="297mm" version="1.1" viewBox="0 0 297 297" xmlns="http://www.w3.org/2000/svg">
 <g fill="#8cbdda" fill-rule="evenodd" stroke-linecap="round" stroke-linejoin="round" stroke-width="1.265">
  <path d="m157.52 80.677c-1.8321-1.968-4.1141-2.5618-6.4379-2.1343-3.7181 0.68404-7.5424 3.9831-12.505 9.3458-4.9628 5.3628-11.064 12.789-14.896 18.979s-5.3955 11.143-4.2499 13.76c1.1456 2.6166 4.9998 2.8964 9.5474 4.1405 4.5475 1.244 9.7878 3.452 14.854 4.0084 5.066 0.55639 9.9575-0.53893 12.987-3.6326 3.029-3.0937 4.1955-8.1856 4.7525-15.756 0.55703-7.5702 0.50477-17.618-1.3272-23.608-0.68701-2.2462-1.6244-3.9216-2.7237-5.1024zm-2.4145 4.9735c0.88464 0.95028 1.6386 2.2984 2.1914 4.1061 1.4743 4.8204 1.5165 12.907 1.0683 18.999-0.44826 6.0922-1.3872 10.19-3.8248 12.68-2.4376 2.4897-6.3741 3.3715-10.451 2.9238-4.0769-0.44775-8.294-2.2251-11.954-3.2262-3.6597-1.0012-6.7617-1.2262-7.6836-3.332-0.92191-2.1058 0.33626-6.0923 3.4204-11.074 3.0841-4.9814 7.9941-10.957 11.988-15.273 3.9939-4.3158 7.0718-6.9709 10.064-7.5214 1.8701-0.34406 3.7067 0.1341 5.1811 1.7179z"/>
  <path d="m50.356 26.076c-2.6635 0.10085-4.5868 1.4292-5.7706 3.4502-1.8941 3.2337-1.8941 8.2404-1.0824 15.438 0.81176 7.1976 2.4352 16.586 4.5999 23.47 2.1647 6.8846 4.8705 11.265 7.5764 12.1 2.7058 0.83446 5.4115-1.8774 9.2898-4.4852 3.8784-2.6078 8.9288-5.1115 12.627-8.5538 3.6979-3.4422 6.0431-7.823 5.6823-12.1-0.36081-4.2768-3.4274-8.4494-8.7489-13.769-5.3215-5.3199-12.897-11.787-18.58-14.291-2.1308-0.93879-3.9954-1.32-5.5935-1.2595zm2.1696 5.0328c1.2861-0.0487 2.7862 0.25834 4.501 1.0138 4.5728 2.0147 10.67 7.2191 14.952 11.5 4.2825 4.2813 6.7503 7.6393 7.0407 11.081 0.29036 3.4418-1.5967 6.9675-4.5726 9.7377-2.9759 2.7702-7.0406 4.7847-10.162 6.8833-3.1212 2.0987-5.2986 4.2813-7.4762 3.6098-2.1776-0.67154-4.3551-4.1972-6.0971-9.7377-1.742-5.5404-3.0483-13.095-3.7016-18.888-0.65326-5.7923-0.65325-9.8218 0.87102-12.424 0.95266-1.6265 2.5008-2.6954 4.6443-2.7765z"/>
  <path d="m101.44 196.84c-0.31574-2.8594-1.8953-4.8265-4.163-5.9436-3.6284-1.7874-9.0181-1.3981-16.703 0.0356-7.6849 1.4337-17.665 3.9115-24.908 6.7772-7.2428 2.8657-11.748 6.1193-12.436 9.097-0.68783 2.9777 2.4419 5.6794 5.5508 9.6516 3.1089 3.9722 6.1969 9.2142 10.19 12.927 3.9932 3.713 8.8914 5.8969 13.467 5.1758 4.5758-0.72102 8.8291-4.3467 14.142-10.489 5.3129-6.1423 11.686-14.801 13.938-21.112 0.84486-2.3668 1.1102-4.4037 0.92078-6.1193zm-5.249 2.727c0.15246 1.3807-0.0614 3.0194-0.74131 4.9241-1.8131 5.0793-6.9414 12.047-11.217 16.991-4.2756 4.9431-7.6986 7.8608-11.381 8.4411-3.6825 0.58029-7.6246-1.1769-10.838-4.165-3.2135-2.9881-5.6983-7.207-8.2002-10.404-2.5019-3.1967-5.0209-5.3709-4.4674-7.7673 0.55354-2.3963 4.1795-5.0147 10.008-7.3209 5.8287-2.3062 13.86-4.3001 20.045-5.4538 6.1845-1.1537 10.522-1.4671 13.442-0.0287 1.825 0.89903 3.0961 2.4824 3.3501 4.7836z"/>
  <path d="m242.19 265.73c2.3891-1.2581 3.5647-3.3136 3.7614-5.6782 0.31474-3.7833-1.877-8.3573-5.7694-14.577-3.8924-6.2201-9.4853-14.086-14.477-19.428-4.9914-5.3419-9.3812-8.1594-12.218-7.7372-2.8372 0.42219-4.1219 4.0841-6.5234 8.1643-2.4015 4.0802-5.9194 8.5784-7.7908 13.342-1.8714 4.7636-2.096 9.7923 0.10576 13.541 2.2019 3.7492 6.83 6.2186 14.02 8.7492 7.1904 2.5305 16.943 5.1221 23.23 4.9217 2.3576-0.0752 4.2279-0.54313 5.6614-1.298zm-4.1853-3.648c-1.1536 0.60753-2.6585 0.98371-4.5558 1.0442-5.0595 0.16129-12.908-1.9242-18.694-3.9607-5.7866-2.0365-9.5111-4.0239-11.283-7.0411-1.772-3.0172-1.5915-7.0642-0.0855-10.898 1.506-3.8335 4.3374-7.4532 6.2701-10.737 1.9326-3.2836 2.9664-6.2308 5.2497-6.5706 2.2833-0.33976 5.8161 1.9279 9.833 6.2268 4.0169 4.2989 8.5176 10.629 11.65 15.635 3.1325 5.0057 4.8964 8.6868 4.6431 11.732-0.15829 1.9029-1.1047 3.5572-3.0273 4.5696z"/>
  <path d="m226.11 47.861c-2.0634 1.3482-2.9555 3.3171-2.9316 5.4829 0.0383 3.4653 2.4223 7.4343 6.4931 12.753 4.0708 5.3191 9.828 11.988 14.822 16.415 4.9942 4.4268 9.2252 6.611 11.768 5.984 2.5423-0.62695 3.3958-4.065 5.2285-7.9791 1.8327-3.914 4.6441-8.3036 5.9364-12.793 1.2923-4.4896 1.0654-9.079-1.2572-12.297-2.3225-3.2185-6.7403-5.066-13.492-6.7492-6.7516-1.6832-15.837-3.2024-21.533-2.4812-2.1362 0.27045-3.7958 0.8561-5.0338 1.6651zm4.1164 2.9564c0.99631-0.65099 2.3317-1.1219 4.0508-1.3396 4.5843-0.58039 11.896 0.642 17.329 1.9966 5.4335 1.3546 8.9887 2.8415 10.858 5.4316 1.8691 2.5901 2.052 6.2835 1.012 9.8966-1.04 3.613-3.3029 7.1454-4.7777 10.295-1.4749 3.1498-2.1617 5.9169-4.2076 6.4215-2.0459 0.50456-5.451-1.2534-9.4701-4.8159-4.0191-3.5625-8.6522-8.9295-11.928-13.21-3.276-4.2806-5.1947-7.4748-5.2256-10.264-0.0193-1.743 0.69895-3.3275 2.3595-4.4125z"/>
 </g>
</svg>
