<svg width="393.22" height="374.79" version="1.1" viewBox="0 0 104.04 99.163" xmlns="http://www.w3.org/2000/svg">
 <g transform="translate(-58.5 -91.272)">
  <path transform="rotate(4.2303 -1027.6 401.43)" d="m123.6 104.61c-1.8847 1.5786-30.586-12.085-33.038-11.915-2.4526 0.16935-29.003 17.647-31.087 16.343-2.0838-1.3046 2.0416-32.823 1.1226-35.103-0.91897-2.2803-25.746-22.131-25.149-24.515 0.59685-2.3849 31.847-8.2012 33.732-9.7798 1.8847-1.5786 13.091-31.325 15.544-31.494s17.641 27.754 19.725 29.059c2.0838 1.3046 33.837 2.7707 34.756 5.051 0.91897 2.2803-20.945 25.354-21.541 27.739s7.8211 33.037 5.9364 34.616z" fill-rule="evenodd"/>
 </g>
</svg>
