<?xml version="1.0" encoding="UTF-8" standalone="no"?>
<!-- Created with Inkscape (http://www.inkscape.org/) -->

<svg
   width="1000"
   height="1000"
   viewBox="0 0 264.58333 264.58333"
   version="1.1"
   id="svg1"
   inkscape:version="1.4 (e7c3feb, 2024-10-09)"
   sodipodi:docname="boys-bg.svg"
   xmlns:inkscape="http://www.inkscape.org/namespaces/inkscape"
   xmlns:sodipodi="http://sodipodi.sourceforge.net/DTD/sodipodi-0.dtd"
   xmlns="http://www.w3.org/2000/svg"
   xmlns:svg="http://www.w3.org/2000/svg">
  <sodipodi:namedview
     id="namedview1"
     pagecolor="#ffffff"
     bordercolor="#000000"
     borderopacity="0.25"
     inkscape:showpageshadow="2"
     inkscape:pageopacity="0.0"
     inkscape:pagecheckerboard="true"
     inkscape:deskcolor="#d1d1d1"
     inkscape:document-units="mm"
     inkscape:zoom="0.73851712"
     inkscape:cx="616.09947"
     inkscape:cy="452.93466"
     inkscape:window-width="1520"
     inkscape:window-height="1009"
     inkscape:window-x="395"
     inkscape:window-y="0"
     inkscape:window-maximized="0"
     inkscape:current-layer="layer1" />
  <defs
     id="defs1" />
  <g
     inkscape:label="Layer 1"
     inkscape:groupmode="layer"
     id="layer1">
    <path
       id="path1"
       style="opacity:0.6;fill:#f50699;fill-opacity:1;fill-rule:evenodd;stroke:#ee9c03;stroke-width:2.26499;stroke-linecap:round;stroke-linejoin:round;stroke-dasharray:none;stroke-opacity:1"
       d="M 95.164015,7.7357055 94.773995,28.646971 110.83153,28.945895 85.767145,55.846457 A 62.686053,62.686337 0 0 0 49.881437,44.536556 62.686053,62.686337 0 0 0 -12.804824,107.22312 62.686053,62.686337 0 0 0 49.881437,169.90968 62.686053,62.686337 0 0 0 112.56773,107.22312 62.686053,62.686337 0 0 0 103.73496,75.147032 l 24.82014,-26.63808 0.0756,14.674331 20.91454,-0.107335 -0.24966,-48.574323 0.10734,-5.7551525 z M 49.881437,71.435766 A 35.787187,35.787349 0 0 1 85.668645,107.22312 35.787187,35.787349 0 0 1 49.881437,143.01046 35.787187,35.787349 0 0 1 14.094258,107.22312 35.787187,35.787349 0 0 1 49.881437,71.435766 Z" />
    <path
       id="path4"
       style="opacity:0.6;fill:none;fill-opacity:1;fill-rule:evenodd;stroke:#dfdd66;stroke-width:0.7;stroke-linecap:round;stroke-linejoin:round;stroke-dasharray:none;stroke-opacity:1"
       d="m 174.62808,168.95405 -0.11017,5.90628 4.53553,0.0844 -7.07956,7.59793 a 17.705964,17.705432 0 0 0 -10.13608,-3.19443 17.705964,17.705432 0 0 0 -17.70603,17.7055 17.705964,17.705432 0 0 0 17.70603,17.70549 17.705964,17.705432 0 0 0 17.70603,-17.70549 17.705964,17.705432 0 0 0 -2.49485,-9.05973 l 7.01056,-7.52378 0.0214,4.14468 5.90742,-0.0303 -0.0705,-13.71956 0.0303,-1.62552 z M 161.8378,186.9458 a 10.108256,10.107951 0 0 1 10.10826,10.10796 10.108256,10.107951 0 0 1 -10.10826,10.10794 10.108256,10.107951 0 0 1 -10.10825,-10.10794 10.108256,10.107951 0 0 1 10.10825,-10.10796 z" />
    <path
       id="path5"
       style="opacity:0.6;fill:#dfdd66;fill-opacity:0.905882;fill-rule:evenodd;stroke:none;stroke-width:0.7;stroke-linecap:round;stroke-linejoin:round;stroke-dasharray:none;stroke-opacity:1"
       d="m 163.66121,172.17841 -0.0809,4.33739 3.33076,0.062 -5.19901,5.57968 a 13.002708,13.002317 0 0 0 -7.44362,-2.34589 13.002708,13.002317 0 0 0 -13.00276,13.00237 13.002708,13.002317 0 0 0 13.00276,13.00236 13.002708,13.002317 0 0 0 13.00275,-13.00236 13.002708,13.002317 0 0 0 -1.83214,-6.65318 l 5.14834,-5.52523 0.0157,3.04373 4.33823,-0.0223 -0.0518,-10.07522 0.0223,-1.19372 z m -9.39278,13.21258 a 7.4231878,7.4229638 0 0 1 7.42319,7.42297 7.4231878,7.4229638 0 0 1 -7.42319,7.42296 7.4231878,7.4229638 0 0 1 -7.42319,-7.42296 7.4231878,7.4229638 0 0 1 7.42319,-7.42297 z" />
    <path
       id="path6"
       style="opacity:0.6;fill:none;fill-opacity:1;fill-rule:evenodd;stroke:#dfdd66;stroke-width:0.7;stroke-linecap:round;stroke-linejoin:round;stroke-dasharray:none;stroke-opacity:1"
       d="m 235.53278,27.081915 -0.11017,5.90628 4.53553,0.0844 -7.07956,7.59793 a 17.705964,17.705432 0 0 0 -10.13608,-3.19443 17.705964,17.705432 0 0 0 -17.70603,17.7055 17.705964,17.705432 0 0 0 17.70603,17.70549 17.705964,17.705432 0 0 0 17.70603,-17.70549 17.705964,17.705432 0 0 0 -2.49485,-9.05973 l 7.01056,-7.52378 0.0214,4.14468 5.90742,-0.0303 -0.0705,-13.71956 0.0303,-1.62552 z m -12.79028,17.99175 a 10.108256,10.107951 0 0 1 10.10826,10.10796 10.108256,10.107951 0 0 1 -10.10826,10.10794 10.108256,10.107951 0 0 1 -10.10825,-10.10794 10.108256,10.107951 0 0 1 10.10825,-10.10796 z" />
    <path
       id="path7"
       style="opacity:0.6;fill:#dfdd66;fill-opacity:0.905882;fill-rule:evenodd;stroke:none;stroke-width:0.7;stroke-linecap:round;stroke-linejoin:round;stroke-dasharray:none;stroke-opacity:1"
       d="m 224.56591,30.306275 -0.0809,4.33739 3.33076,0.062 -5.19901,5.57968 a 13.002708,13.002317 0 0 0 -7.44362,-2.34589 13.002708,13.002317 0 0 0 -13.00276,13.00237 13.002708,13.002317 0 0 0 13.00276,13.00236 13.002708,13.002317 0 0 0 13.00275,-13.00236 13.002708,13.002317 0 0 0 -1.83214,-6.65318 l 5.14834,-5.52523 0.0157,3.04373 4.33823,-0.0223 -0.0518,-10.07522 0.0223,-1.19372 z m -9.39278,13.21258 a 7.4231878,7.4229638 0 0 1 7.42319,7.42297 7.4231878,7.4229638 0 0 1 -7.42319,7.42296 7.4231878,7.4229638 0 0 1 -7.42319,-7.42296 7.4231878,7.4229638 0 0 1 7.42319,-7.42297 z" />
  </g>
</svg>
