<?xml version="1.0" encoding="UTF-8" standalone="no"?>
<!-- Created with Inkscape (http://www.inkscape.org/) -->

<svg
   width="400"
   height="500"
   viewBox="0 0 105.83333 132.29166"
   version="1.1"
   id="svg1"
   inkscape:version="1.4 (e7c3feb, 2024-10-09)"
   sodipodi:docname="boys-bg.svg"
   xmlns:inkscape="http://www.inkscape.org/namespaces/inkscape"
   xmlns:sodipodi="http://sodipodi.sourceforge.net/DTD/sodipodi-0.dtd"
   xmlns="http://www.w3.org/2000/svg"
   xmlns:svg="http://www.w3.org/2000/svg">
  <sodipodi:namedview
     id="namedview1"
     pagecolor="#ffffff"
     bordercolor="#000000"
     borderopacity="0.25"
     inkscape:showpageshadow="2"
     inkscape:pageopacity="0.0"
     inkscape:pagecheckerboard="true"
     inkscape:deskcolor="#d1d1d1"
     inkscape:document-units="mm"
     inkscape:zoom="0.73851712"
     inkscape:cx="820.56324"
     inkscape:cy="425.85337"
     inkscape:window-width="1665"
     inkscape:window-height="1009"
     inkscape:window-x="546"
     inkscape:window-y="148"
     inkscape:window-maximized="0"
     inkscape:current-layer="layer1"
     showguides="false" />
  <defs
     id="defs1">
    <inkscape:path-effect
       effect="bspline"
       id="path-effect31"
       is_visible="true"
       lpeversion="1.3"
       weight="33.333333"
       steps="2"
       helper_size="0"
       apply_no_weight="true"
       apply_with_weight="true"
       only_selected="false"
       uniform="false" />
    <inkscape:path-effect
       effect="bspline"
       id="path-effect30"
       is_visible="true"
       lpeversion="1.3"
       weight="33.333333"
       steps="2"
       helper_size="0"
       apply_no_weight="true"
       apply_with_weight="true"
       only_selected="false"
       uniform="false" />
    <inkscape:path-effect
       effect="bspline"
       id="path-effect29"
       is_visible="true"
       lpeversion="1.3"
       weight="33.333333"
       steps="2"
       helper_size="0"
       apply_no_weight="true"
       apply_with_weight="true"
       only_selected="false"
       uniform="false" />
    <inkscape:path-effect
       effect="bspline"
       id="path-effect28"
       is_visible="true"
       lpeversion="1.3"
       weight="33.333333"
       steps="2"
       helper_size="0"
       apply_no_weight="true"
       apply_with_weight="true"
       only_selected="false"
       uniform="false" />
    <inkscape:path-effect
       effect="bspline"
       id="path-effect25"
       is_visible="true"
       lpeversion="1.3"
       weight="33.333333"
       steps="2"
       helper_size="0"
       apply_no_weight="true"
       apply_with_weight="true"
       only_selected="false"
       uniform="false" />
    <inkscape:path-effect
       effect="bspline"
       id="path-effect24"
       is_visible="true"
       lpeversion="1.3"
       weight="33.333333"
       steps="2"
       helper_size="0"
       apply_no_weight="true"
       apply_with_weight="true"
       only_selected="false"
       uniform="false" />
    <inkscape:path-effect
       effect="bspline"
       id="path-effect22"
       is_visible="true"
       lpeversion="1.3"
       weight="33.333333"
       steps="2"
       helper_size="0"
       apply_no_weight="true"
       apply_with_weight="true"
       only_selected="false"
       uniform="false" />
    <inkscape:path-effect
       effect="bspline"
       id="path-effect21"
       is_visible="true"
       lpeversion="1.3"
       weight="33.333333"
       steps="2"
       helper_size="0"
       apply_no_weight="true"
       apply_with_weight="true"
       only_selected="false"
       uniform="false" />
    <inkscape:path-effect
       effect="bspline"
       id="path-effect20"
       is_visible="true"
       lpeversion="1.3"
       weight="33.333333"
       steps="2"
       helper_size="0"
       apply_no_weight="true"
       apply_with_weight="true"
       only_selected="false"
       uniform="false" />
    <inkscape:path-effect
       effect="bspline"
       id="path-effect19"
       is_visible="true"
       lpeversion="1.3"
       weight="33.333333"
       steps="2"
       helper_size="0"
       apply_no_weight="true"
       apply_with_weight="true"
       only_selected="false"
       uniform="false" />
    <inkscape:path-effect
       effect="bspline"
       id="path-effect17"
       is_visible="true"
       lpeversion="1.3"
       weight="33.333333"
       steps="2"
       helper_size="0"
       apply_no_weight="true"
       apply_with_weight="true"
       only_selected="false"
       uniform="false" />
    <inkscape:path-effect
       effect="bspline"
       id="path-effect16"
       is_visible="true"
       lpeversion="1.3"
       weight="33.333333"
       steps="2"
       helper_size="0"
       apply_no_weight="true"
       apply_with_weight="true"
       only_selected="false"
       uniform="false" />
    <inkscape:path-effect
       effect="bspline"
       id="path-effect15"
       is_visible="true"
       lpeversion="1.3"
       weight="33.333333"
       steps="2"
       helper_size="0"
       apply_no_weight="true"
       apply_with_weight="true"
       only_selected="false"
       uniform="false" />
    <inkscape:path-effect
       effect="bspline"
       id="path-effect14"
       is_visible="true"
       lpeversion="1.3"
       weight="33.333333"
       steps="2"
       helper_size="0"
       apply_no_weight="true"
       apply_with_weight="true"
       only_selected="false"
       uniform="false" />
    <inkscape:path-effect
       effect="bspline"
       id="path-effect13"
       is_visible="true"
       lpeversion="1.3"
       weight="33.333333"
       steps="2"
       helper_size="0"
       apply_no_weight="true"
       apply_with_weight="true"
       only_selected="false"
       uniform="false" />
    <inkscape:path-effect
       effect="bspline"
       id="path-effect11"
       is_visible="true"
       lpeversion="1.3"
       weight="33.333333"
       steps="2"
       helper_size="0"
       apply_no_weight="true"
       apply_with_weight="true"
       only_selected="false"
       uniform="false" />
    <inkscape:path-effect
       effect="spiro"
       id="path-effect10"
       is_visible="true"
       lpeversion="1" />
    <inkscape:path-effect
       effect="spiro"
       id="path-effect9"
       is_visible="true"
       lpeversion="1" />
    <inkscape:path-effect
       effect="spiro"
       id="path-effect8"
       is_visible="true"
       lpeversion="1" />
  </defs>
  <g
     inkscape:label="Layer 1"
     inkscape:groupmode="layer"
     id="layer1"
     transform="translate(136.87286,-15.508318)">
    <path
       id="path10"
       style="opacity:0.6;fill:#f50799;fill-opacity:1;fill-rule:evenodd;stroke:none;stroke-width:0.7;stroke-linecap:round;stroke-linejoin:round;stroke-dasharray:none;stroke-opacity:1"
       d="m 376.17484,273.644 c -1.8825,0.002 -3.01262,0.46106 -3.38997,1.42162 -0.46443,1.18223 0.21113,3.12477 1.43557,4.09587 1.22445,0.9711 2.99781,0.97103 4.72891,1.26659 0.19562,0.0334 0.39032,0.0715 0.58394,0.11214 -1.27482,0.78488 -2.77288,2.36627 -4.53461,4.24935 -1.22372,1.30801 -2.55917,2.74328 -3.75997,4.01526 -1.95056,-1.19337 -4.10507,-1.83543 -6.73913,-2.01641 -0.48889,-0.0336 -0.99396,-0.0515 -1.51153,-0.0548 -3.62298,-0.0229 -7.85199,0.68572 -11.32644,1.96577 -3.9708,1.46292 -6.95588,3.67201 -8.86664,6.15002 -1.91077,2.478 -2.74703,5.22489 -3.64268,8.35969 -0.89566,3.1348 -1.85118,6.65772 -1.49293,11.07633 0.35826,4.41861 2.03034,9.73229 4.92632,13.58367 2.89597,3.85138 7.01598,6.24006 12.00185,6.80733 0.0322,0.004 0.0654,0.005 0.0977,0.009 0.0204,0.20135 0.0431,0.37916 0.0615,0.59738 0.13293,1.57849 0.19899,3.61317 0.22944,5.80068 -3.5366,0.36091 -6.55468,0.6966 -8.58914,0.82785 -2.61775,0.16889 -3.63124,3.7e-4 -3.75791,1.09813 -0.12667,1.09776 0.63334,3.46204 2.99775,4.39094 2.18973,0.86027 5.7592,0.49226 9.35964,0.23151 -0.008,1.25552 -0.019,2.49063 -0.0284,3.61064 -0.0422,5.02441 -0.0426,8.14846 1.05523,9.75289 1.09778,1.60443 3.29324,1.68915 4.98213,1.64693 1.68888,-0.0422 2.87101,-0.21118 3.54655,-1.30897 0.67554,-1.09778 0.8446,-3.12457 0.76016,-6.33346 -0.0574,-2.18129 -0.2385,-4.93805 -0.43718,-7.7742 0.67755,-0.0231 1.35384,-0.0459 1.99936,-0.0786 3.33555,-0.16889 6.20677,-0.50685 7.47344,-1.47795 1.26668,-0.9711 0.92859,-2.57554 0.63304,-3.71553 -0.29556,-1.14 -0.54902,-1.81533 -3.46232,-1.942 -1.69263,-0.0736 -4.29091,0.0406 -7.12515,0.23822 -0.17012,-2.5186 -0.31165,-4.73422 -0.40979,-6.43423 2.16598,-0.60112 4.28674,-1.45621 6.22804,-2.57245 4.7769,-2.74669 8.47911,-6.98631 10.21075,-12.18117 1.73164,-5.19485 1.49272,-11.34473 0.11937,-16.42019 -0.82718,-3.05697 -2.0704,-5.7153 -3.51193,-7.92716 1.24498,-0.81521 2.41006,-1.91576 3.49539,-2.94401 1.89565,-1.79593 3.54893,-3.36787 4.50516,-4.81831 0.25152,-0.3815 0.45365,-0.7542 0.60926,-1.11724 0.36274,1.00258 0.73346,2.05672 1.00407,2.86856 0.38,1.13999 0.54902,1.73077 1.18236,2.19521 0.63333,0.46444 1.73115,0.8026 2.7466,0.0899 1.01545,-0.71266 1.94814,-2.47589 2.08205,-4.10208 0.13391,-1.62619 -0.53127,-3.11543 -1.42007,-4.93613 -0.88879,-1.82069 -2.00074,-3.97262 -3.11299,-6.12469 -3.8844,-0.92887 -7.76915,-1.85765 -10.51357,-2.11098 -0.51458,-0.0475 -0.98875,-0.0713 -1.42317,-0.0708 z m -14.33246,21.24005 c 0.34209,0.002 0.67579,0.014 0.99891,0.0362 2.58499,0.1776 4.47948,1.00649 6.25543,2.74299 1.77595,1.73649 3.43364,4.38036 4.34134,7.73493 0.9077,3.35458 1.06552,7.41958 -0.0791,10.85308 -1.14451,3.4335 -3.59117,6.23526 -6.74842,8.05067 -3.15725,1.8154 -7.02494,2.64404 -10.3203,2.26911 -3.29537,-0.37494 -6.01826,-1.95341 -7.93234,-4.49895 -1.91407,-2.54553 -3.01934,-6.05782 -3.25613,-8.97826 -0.23678,-2.92044 0.39452,-5.24856 0.9865,-7.32048 0.59197,-2.07192 1.14471,-3.88743 2.40761,-5.52525 1.2629,-1.63782 3.23616,-3.09797 5.86062,-4.06487 2.29641,-0.84603 5.09127,-1.31426 7.48585,-1.29914 z" />
    <path
       id="path16"
       style="opacity:0.6;fill:#f50799;fill-opacity:1;fill-rule:evenodd;stroke:none;stroke-width:0.7;stroke-linecap:round;stroke-linejoin:round;stroke-dasharray:none;stroke-opacity:1"
       d="m -82.296282,173.93236 c -2.78975,-0.0117 -5.57057,0.10194 -7.14139,0.45099 -2.51328,0.55848 -1.92797,1.7197 -0.55774,2.52472 1.37025,0.80503 3.52536,1.25372 4.87154,1.90947 1.34618,0.65577 1.88345,1.51862 1.7448,2.36792 -0.13866,0.84931 -0.95324,1.68493 -2.37164,2.95503 -0.88189,0.78968 -1.99683,1.74756 -2.88842,2.85448 -2.21516,-1.34356 -4.7708,-2.22232 -7.30192,-2.85531 -2.55118,-0.63802 -5.077028,-1.02737 -7.423138,-1.01742 -1.82478,0.008 -3.54083,0.25682 -5.07594,0.81841 -3.50881,1.28361 -6.07181,4.19892 -7.88531,8.42568 -1.81351,4.22675 -2.87754,9.76492 -1.75349,14.28526 1.12405,4.52033 4.43631,8.02279 8.23411,10.07035 3.79782,2.04756 8.08112,2.64 13.055988,0.81385 4.97489,-1.82614 10.64097,-6.07099 13.19212,-11.21108 2.45106,-4.93836 2.02128,-10.69759 -0.3128,-14.67004 1.55462,-1.39332 3.24987,-2.95321 4.41848,-4.02169 1.70826,-1.56188 2.27266,-2.05089 2.87394,-1.44648 0.60127,0.6044 1.23944,2.30226 2.18793,3.91038 0.94849,1.60813 2.20718,3.1265 3.03777,2.94966 0.83062,-0.17685 1.23298,-2.04868 1.47173,-3.74447 0.23874,-1.6958 0.31389,-3.21545 0.30494,-5.57741 -0.009,-2.36195 -0.10204,-5.56615 -0.19488,-8.77034 -1.96379,-0.34694 -3.92741,-0.69393 -7.71527,-0.88956 -1.42045,-0.0733 -3.09756,-0.1254 -4.77141,-0.1324 z m -19.882918,15.9291 c 1.45549,-0.006 3.022338,0.23516 4.605068,0.63097 2.81373,0.70368 5.67727,1.89526 7.28413,4.36304 1.60686,2.46777 1.95674,6.21164 0.37403,9.40048 -1.5827,3.18884 -5.09769,5.82229 -8.18405,6.9552 -3.086348,1.13292 -5.743928,0.7655 -8.100038,-0.50478 -2.35611,-1.27028 -4.41085,-3.44332 -5.1082,-6.24768 -0.69735,-2.80436 -0.0369,-6.23996 1.08816,-8.86219 1.12508,-2.62223 2.71499,-4.43102 4.89182,-5.22737 0.95236,-0.34839 2.01701,-0.50287 3.14908,-0.50767 z" />
    <path
       id="path21"
       style="opacity:0.6;fill:#f50799;fill-opacity:1;fill-rule:evenodd;stroke:none;stroke-width:0.7;stroke-linecap:round;stroke-linejoin:round;stroke-dasharray:none;stroke-opacity:1"
       d="m -20.387379,172.5768 c -1.18937,-0.0126 -2.25769,2e-4 -3.16467,0.0475 -3.62792,0.18938 -4.67335,0.92644 -4.07623,1.82211 0.59711,0.89567 2.83705,1.94983 4.67361,2.77554 1.83656,0.82572 3.26941,1.42309 2.04536,3.51297 -1.08502,1.85249 -4.25444,4.87632 -5.87613,7.28637 -0.42377,-0.22028 -0.86038,-0.42915 -1.31878,-0.61753 -1.90703,-0.7837 -4.12267,-1.27062 -6.43682,-1.31 -2.97533,-0.0506 -6.11351,0.6383 -8.96844,2.38487 -5.07544,3.10501 -9.25507,9.55343 -10.38955,15.76338 -1.13448,6.20995 0.77615,12.18113 5.13509,16.65945 4.35893,4.47831 11.16542,7.46355 16.89767,6.50813 5.73226,-0.95542 10.38998,-5.85141 13.13667,-10.6283 2.74669,-4.77688 3.58232,-9.43417 3.34346,-12.8974 -0.23885,-3.46323 -1.55256,-5.73262 -3.58272,-8.53901 -0.2842,-0.39287 -0.58703,-0.79692 -0.90176,-1.2051 2.10132,-2.41988 4.62151,-6.4417 6.63422,-7.52357 2.38845,-1.28383 4.0602301,1.58235 5.2544601,2.77658 1.19423,1.19424 1.91089,0.71654 2.14974,-0.65681 0.23885,-1.37334 -3.6e-4,-3.64206 -0.35863,-6.38876 -0.35826,-2.74671 -0.83594,-5.97145 -1.31362,-9.19582 -4.6574101,-0.2687 -9.3148201,-0.53698 -12.8829301,-0.57464 z m -14.2565,22.31233 c 1.33307,0.0227 2.60924,0.30302 3.70779,0.75448 2.51097,1.03189 4.09325,2.95776 5.26273,4.57439 1.16947,1.61664 1.92584,2.92408 2.06344,4.91908 0.13759,1.99501 -0.34375,4.67779 -1.92598,7.42953 -1.58224,2.75173 -4.26491,5.57225 -7.56698,6.12262 -3.30208,0.55037 -7.22332,-1.16938 -9.73429,-3.74913 -2.51098,-2.57974 -3.61148,-6.01957 -2.95796,-9.59683 0.65352,-3.57725 3.06093,-7.29193 5.98465,-9.08058 1.64458,-1.00611 3.45266,-1.40273 5.1666,-1.37356 z" />
    <path
       id="path25"
       style="opacity:0.6;fill:#f50799;fill-opacity:1;fill-rule:evenodd;stroke:none;stroke-width:0.7;stroke-linecap:round;stroke-linejoin:round;stroke-dasharray:none;stroke-opacity:1"
       d="m 114.12135,220.52804 c -2.05346,0.24083 -4.08905,0.57369 -5.21341,0.97116 -1.79897,0.63589 -1.26441,1.43777 -0.18428,1.90733 1.08015,0.46956 2.70579,0.60671 3.75486,0.9686 1.04907,0.36191 1.52159,0.9486 1.49562,1.58582 -0.026,0.63724 -0.55042,1.32492 -1.4802,2.3863 -0.57809,0.65991 -1.31257,1.46443 -1.86939,2.35859 -1.74994,-0.7901 -3.70876,-1.20778 -5.62753,-1.44684 -1.93398,-0.24097 -3.82706,-0.30127 -5.552162,-0.0839 -1.34173,0.16933 -2.58193,0.50595 -3.661,1.05655 -2.46644,1.25847 -4.09098,3.63268 -5.04671,6.9046 -0.95574,3.2719 -1.24268,7.44149 -0.011,10.66639 1.23165,3.22489 3.98201,5.50503 6.9593,6.67136 2.977302,1.16633 6.181492,1.21868 9.677912,-0.5702 3.49644,-1.78886 7.28482,-5.41901 8.70146,-9.42889 1.36106,-3.85251 0.52924,-8.05099 -1.54356,-10.76447 1.01896,-1.16423 2.12646,-2.46359 2.89053,-3.35428 1.11689,-1.30198 1.48833,-1.71227 1.9848,-1.32145 0.49645,0.39081 1.11795,1.58276 1.95972,2.6809 0.84176,1.09815 1.9037,2.1025 2.49892,1.89803 0.59523,-0.20447 0.72366,-1.61757 0.74747,-2.8865 0.0238,-1.26895 -0.057,-2.39365 -0.27501,-4.1305 -0.21812,-1.73684 -0.57342,-4.08578 -0.9286,-6.43473 -1.47578,-0.0794 -2.95145,-0.15888 -5.75562,0.0363 -1.05156,0.0733 -2.29004,0.18511 -3.52209,0.32981 z m -13.20134,13.4989 c 1.0703,-0.13429 2.24454,-0.0976 3.44436,0.0519 2.13301,0.26577 4.34635,0.88602 5.74943,2.55766 1.40308,1.67162 1.99568,4.39459 1.11681,6.88227 -0.87886,2.48767 -3.229,4.73975 -5.39815,5.84954 -2.16914,1.10979 -4.15716,1.07742 -6.004242,0.35386 -1.84708,-0.72358 -3.55327,-2.13828 -4.31737,-4.13897 -0.76411,-2.00068 -0.58583,-4.58731 0.007,-6.61717 0.59292,-2.02985 1.60065,-3.50289 3.1308,-4.28365 0.66944,-0.34157 1.438862,-0.55054 2.271272,-0.65542 z" />
    <path
       id="path26"
       style="opacity:0.6;fill:#f50799;fill-opacity:1;fill-rule:evenodd;stroke:#ee9c03;stroke-width:0.699999;stroke-linecap:round;stroke-linejoin:round;stroke-dasharray:none;stroke-opacity:1"
       d="m -35.188858,25.969823 c -7.125593,-1.397849 -14.250293,-2.794514 -19.74482,-3.606026 -1.831471,-0.270766 -3.482435,-0.475626 -4.891111,-0.594199 -5.634682,-0.474032 -7.402602,0.441667 -6.670905,1.948987 0.731687,1.507318 3.963729,3.605564 6.621568,5.266697 2.657867,1.661189 4.74098,2.884888 2.412045,5.849274 -2.064394,2.627657 -7.59065,6.621649 -10.600423,9.995834 -0.606992,-0.429197 -1.235514,-0.84341 -1.902656,-1.230734 -2.775404,-1.611242 -6.089177,-2.83039 -9.649573,-3.379766 -4.577661,-0.706406 -9.5629,-0.306704 -14.334398,1.783852 -8.482639,3.716613 -16.289809,12.77927 -19.350659,22.11625 -3.06081,9.336996 -1.37537,18.948483 4.40101,26.775098 2.25615,3.056937 5.14139,5.832934 8.35257,8.075804 -1.24838,2.151126 -2.27667,4.907146 -3.24877,7.902876 -6.45591,-1.50693 -12.43622,-2.99781 -16.46593,-2.71735 -5.09027,0.35411 -7.08115,3.53371 -3.5861,6.02138 3.03557,2.16064 10.20562,3.80393 17.33171,5.52087 -1.63017,5.33347 -3.17811,10.51273 -3.86072,14.33762 -0.84177,4.71623 -0.37188,7.37992 2.0517,9.41468 2.42361,2.03477 6.80071,3.43991 9.99386,3.9409 3.193131,0.50109 5.201729,0.0976 6.512396,-0.99531 1.310663,-1.09291 1.92257,-2.87498 3.00468,-10.09625 0.456886,-3.04966 0.994406,-7.11705 1.508342,-11.28827 1.625207,0.50821 3.151403,0.99574 4.532576,1.44444 5.268045,1.71141 8.629294,2.8896 10.414246,1.58297 1.78494,-1.30667 1.992901,-5.09825 1.57865,-7.53654 -0.414191,-2.43828 -1.451154,-3.52295 -6.223475,-4.59042 -2.29873,-0.51417 -5.490879,-1.02766 -9.087769,-1.61509 0.186091,-1.85933 0.349454,-3.61828 0.463316,-5.11089 0.01977,-0.25881 0.02863,-0.46106 0.04583,-0.70618 0.456928,0.0179 0.913894,0.032 1.367294,0.0188 9.041636,-0.26296 17.257544,-6.829125 22.502012,-13.615715 5.244433,-6.786566 7.516647,-13.793184 7.879587,-19.184332 0.362949,-5.391187 -1.183753,-9.168383 -3.721897,-13.924896 -0.355321,-0.665876 -0.7373,-1.352573 -1.136452,-2.048481 3.751478,-3.288054 8.487078,-8.957374 11.819401,-10.200769 3.954393,-1.475484 5.928083,3.29758 7.517563,5.391401 1.589474,2.093846 2.795733,1.507712 3.454075,-0.559761 0.658381,-2.067414 0.768069,-5.616039 0.795536,-9.927457 0.02755,-4.311426 -0.02852,-9.385983 -0.08429,-14.459263 z m -44.933301,28.099359 c 1.477047,0.374336 2.850184,0.942986 4.049274,1.639089 3.654351,2.121539 5.68806,5.425743 7.150183,8.165736 1.462089,2.740006 2.351797,4.916188 2.142725,8.021789 -0.209095,3.105617 -1.517398,7.140876 -4.538664,11.050224 -3.021088,3.909429 -7.752909,7.692964 -12.961352,7.844408 -5.208448,0.151474 -10.893311,-3.328286 -14.220803,-7.836797 -3.327504,-4.508545 -4.297494,-10.046228 -2.534294,-15.424836 1.7632,-5.378577 6.259787,-10.598413 11.146225,-12.739369 2.748605,-1.204264 5.620836,-1.43466 8.257821,-1.027738 0.512742,0.07913 1.016534,0.182694 1.50889,0.307475 z" />
    <path
       id="path27"
       style="opacity:0.6;fill:#f50799;fill-opacity:1;fill-rule:evenodd;stroke:none;stroke-width:0.7;stroke-linecap:round;stroke-linejoin:round;stroke-dasharray:none;stroke-opacity:1"
       d="m 28.960565,183.56305 c -1.8825,0.002 -3.01263,0.46106 -3.38998,1.42162 -0.46443,1.18223 0.21113,3.12478 1.43557,4.09588 1.22445,0.9711 2.997811,0.97103 4.728911,1.26659 0.19562,0.0334 0.39033,0.0715 0.58395,0.11213 -1.27482,0.78488 -2.77288,2.36628 -4.534611,4.24936 -1.22372,1.30801 -2.55918,2.74328 -3.75998,4.01526 -1.95056,-1.19337 -4.10506,-1.83544 -6.73912,-2.01642 -0.48889,-0.0336 -0.99397,-0.0515 -1.51154,-0.0548 -3.62298,-0.0229 -7.8519901,0.68572 -11.3264401,1.96577 -3.9708,1.46292 -6.95588,3.67201 -8.86664,6.15002 -1.91077,2.478 -2.74702,5.22489 -3.64267,8.35969 -0.89566,3.1348 -1.85118,6.65772 -1.49293,11.07633 0.35826,4.41861 2.03033,9.73229 4.92631,13.58367 2.89597,3.85138 7.01598,6.24007 12.00185,6.80734 4.9858701,0.56728 10.8371401,-0.68669 15.6140401,-3.43339 4.7769,-2.74669 8.479101,-6.98631 10.210741,-12.18117 1.73164,-5.19485 1.49273,-11.34473 0.11938,-16.42019 -0.82718,-3.05697 -2.0704,-5.7153 -3.51193,-7.92716 1.24498,-0.81521 2.41006,-1.91576 3.49539,-2.94401 1.89565,-1.79593 3.54892,-3.36787 4.50515,-4.81831 0.25152,-0.3815 0.45366,-0.7542 0.60927,-1.11724 0.36274,1.00258 0.73346,2.05672 1.00407,2.86856 0.38,1.13999 0.54902,1.73077 1.18236,2.19521 0.63333,0.46444 1.73115,0.80258 2.7466,0.0899 1.01545,-0.71266 1.94813,-2.47588 2.08204,-4.10207 0.13391,-1.62619 -0.53127,-3.11544 -1.42007,-4.93614 -0.88879,-1.82069 -2.00073,-3.97262 -3.11298,-6.12469 -3.8844,-0.92887 -7.76915,-1.85765 -10.51357,-2.11098 -0.51458,-0.0475 -0.988751,-0.0713 -1.423171,-0.0708 z m -14.33246,21.24005 c 0.34209,0.002 0.67578,0.014 0.9989,0.0362 2.58499,0.1776 4.47949,1.00649 6.25544,2.74299 1.77595,1.73649 3.43363,4.38035 4.34133,7.73492 0.9077,3.35458 1.06549,7.41959 -0.0791,10.85309 -1.14451,3.4335 -3.59117,6.23526 -6.74842,8.05067 -3.15725,1.8154 -7.02494,2.64404 -10.3203001,2.26911 -3.29537,-0.37494 -6.01826,-1.95341 -7.93234,-4.49895 -1.91407,-2.54553 -3.01934,-6.05782 -3.25613,-8.97826 -0.23678,-2.92044 0.39453,-5.24856 0.98651,-7.32048 0.59197,-2.07192 1.1447,-3.88743 2.4076,-5.52525 1.2629,-1.63782 3.23616,-3.09797 5.86062,-4.06487 2.29641,-0.84603 5.0912701,-1.31426 7.4858501,-1.29914 z" />
    <path
       id="path33"
       style="opacity:0.6;fill:#f50799;fill-opacity:1;fill-rule:evenodd;stroke:none;stroke-width:0.7;stroke-linecap:round;stroke-linejoin:round;stroke-dasharray:none;stroke-opacity:1"
       d="m 461.61073,303.53683 c -1.38351,10e-4 -2.21408,0.33885 -2.49141,1.04479 -0.34133,0.86886 0.15517,2.29651 1.05505,3.0102 0.89989,0.7137 2.20319,0.71365 3.47543,0.93086 0.14377,0.0245 0.28687,0.0525 0.42917,0.0824 -0.93691,0.57684 -2.03789,1.73906 -3.33264,3.123 -0.89935,0.9613 -1.88083,2.01613 -2.76334,2.95095 -1.43353,-0.87705 -3.01694,-1.34893 -4.9528,-1.48194 -0.3593,-0.0247 -0.7305,-0.0378 -1.11088,-0.0403 -2.66265,-0.0168 -5.77069,0.50396 -8.32418,1.44471 -2.91828,1.07515 -5.11211,2.69868 -6.51639,4.51985 -1.40429,1.82117 -2.01888,3.83995 -2.67712,6.14382 -0.65825,2.30387 -1.3605,4.89298 -1.09721,8.14037 0.2633,3.24738 1.49216,7.15258 3.62051,9.98309 2.12835,2.83051 5.15628,4.58604 8.82056,5.00294 3.66429,0.41692 7.96458,-0.50467 11.47529,-2.52331 3.5107,-2.01863 6.23157,-5.13447 7.50421,-8.95235 1.27264,-3.81787 1.09706,-8.33762 0.0877,-12.06775 -0.60793,-2.24667 -1.52161,-4.20036 -2.58104,-5.82593 0.91498,-0.59913 1.77124,-1.40796 2.56888,-2.16365 1.39318,-1.31989 2.60822,-2.47517 3.31099,-3.54114 0.18485,-0.28038 0.33341,-0.55429 0.44777,-0.8211 0.26659,0.73683 0.53904,1.51155 0.73792,2.1082 0.27928,0.83782 0.4035,1.272 0.86896,1.61333 0.46546,0.34134 1.27228,0.58985 2.01857,0.0661 0.74629,-0.52376 1.43174,-1.81961 1.53016,-3.01475 0.0984,-1.19514 -0.39045,-2.28964 -1.04366,-3.62774 -0.6532,-1.33808 -1.4704,-2.91961 -2.28783,-4.50124 -2.85478,-0.68266 -5.70981,-1.36525 -7.72678,-1.55143 -0.37818,-0.0349 -0.72666,-0.0524 -1.04593,-0.052 z m -10.53341,15.61002 c 0.25142,0.001 0.49666,0.0103 0.73413,0.0266 1.89979,0.13052 3.29213,0.7397 4.59733,2.01591 1.30521,1.27621 2.52349,3.21927 3.19059,5.68465 0.6671,2.4654 0.78306,5.45291 -0.0581,7.9763 -0.84114,2.5234 -2.63927,4.58251 -4.95964,5.91671 -2.32037,1.3342 -5.16287,1.94319 -7.58474,1.66765 -2.42188,-0.27556 -4.42302,-1.43563 -5.82974,-3.30643 -1.40671,-1.8708 -2.21901,-4.4521 -2.39304,-6.59843 -0.17402,-2.14633 0.28995,-3.85734 0.72502,-5.38006 0.43506,-1.52273 0.84128,-2.85701 1.76943,-4.06069 0.92814,-1.20369 2.37836,-2.27681 4.30716,-2.98741 1.68771,-0.62178 3.74175,-0.9659 5.5016,-0.95479 z" />
    <path
       id="path34"
       style="opacity:0.6;fill:#f50799;fill-opacity:1;fill-rule:evenodd;stroke:none;stroke-width:0.699998;stroke-linecap:round;stroke-linejoin:round;stroke-dasharray:none;stroke-opacity:1"
       d="m 473.43283,80.489055 c -2.94561,0.0776 -5.89076,0.15559 -8.13852,0.32091 -0.74926,0.055 -1.4212,0.12011 -1.98955,0.19793 -2.27337,0.31138 -2.89237,0.8306 -2.4691,1.3627 0.42327,0.5321 1.88904,1.07674 3.0887,1.49914 1.19968,0.42242 2.133,0.7225 1.4733,2.10271 -0.58477,1.22343 -2.41944,3.29458 -3.31246,4.89738 -0.27839,-0.1162 -0.56398,-0.22456 -0.86248,-0.31885 -1.2418,-0.39223 -2.66207,-0.5815 -4.12068,-0.48369 -1.87536,0.12573 -3.81415,0.72559 -5.51853,1.97611 -3.02999,2.22317 -5.31896,6.50359 -5.70404,10.472235 -0.38507,3.96864 1.13373,7.62558 4.11448,10.21333 1.16423,1.01073 2.55269,1.85448 4.02301,2.45824 -0.30383,0.96244 -0.46692,2.14493 -0.58653,3.41737 -2.69007,-0.0249 -5.19038,-0.0856 -6.76134,0.3824 -1.98442,0.59111 -2.49119,2.0266 -0.88677,2.70216 1.39349,0.58675 4.37845,0.60241 7.35252,0.65113 -0.17314,2.25649 -0.32738,4.44463 -0.2589,6.01978 0.0844,1.94223 0.50642,2.95545 1.64641,3.54656 1.14,0.59111 2.99783,0.75985 4.30672,0.67541 1.30889,-0.0844 2.06857,-0.42212 2.4908,-0.971 0.42223,-0.54889 0.5067,-1.30881 0.29559,-4.26434 -0.0892,-1.24816 -0.23661,-2.90649 -0.40256,-4.60385 0.68861,0.0573 1.33618,0.11518 1.92288,0.17053 2.23778,0.21111 3.67322,0.37995 4.26434,-0.29559 0.59111,-0.67555 0.33762,-2.19547 -0.0424,-3.12436 -0.38,-0.92889 -0.88672,-1.26658 -2.87115,-1.26659 -0.95586,0 -2.26546,0.0794 -3.74189,0.16537 -0.091,-0.75279 -0.18211,-1.46382 -0.26923,-2.06499 -0.0151,-0.10424 -0.0295,-0.18512 -0.0444,-0.28371 0.18253,-0.0334 0.36474,-0.0683 0.54312,-0.11368 3.55727,-0.90501 6.22923,-4.233 7.70495,-7.38508 1.47571,-3.15207 1.7549,-6.12801 1.4211,-8.2951 -0.3338,-2.167105 -1.28088,-3.525905 -2.70732,-5.184705 -0.19969,-0.23222 -0.41178,-0.47032 -0.63149,-0.71055 1.19437,-1.63439 2.56754,-4.29895 3.77703,-5.08651 1.43528,-0.93457 2.63966,0.78078 3.45457,1.46916 0.81491,0.68839 1.24068,0.34943 1.31826,-0.52762 0.0776,-0.87703 -0.19329,-2.29203 -0.5643,-4.00182 -0.37098,-1.7098 -0.84267,-3.7144 -1.31413,-5.71852 z m -15.30501,15.10761 c 0.61808,0.0174 1.21222,0.12097 1.74873,0.29042 1.63507,0.51646 2.73311,1.64481 3.55482,2.60036 0.8217,0.95556 1.36679,1.738545 1.55908,2.986905 0.19228,1.24837 0.0316,2.96225 -0.81856,4.778 -0.85009,1.81576 -2.3888,3.7332 -4.43797,4.25452 -2.04917,0.52133 -4.60865,-0.35314 -6.32571,-1.84381 -1.71707,-1.49068 -2.5917,-3.59773 -2.36988,-5.88388 0.22183,-2.28614 1.54016,-4.751535 3.28559,-6.032195 0.9818,-0.72036 2.09882,-1.06601 3.17913,-1.13844 0.21006,-0.0141 0.41874,-0.0177 0.62477,-0.0119 z" />
    <path
       id="path35"
       style="opacity:0.6;fill:#f50799;fill-opacity:1;fill-rule:evenodd;stroke:none;stroke-width:0.7;stroke-linecap:round;stroke-linejoin:round;stroke-dasharray:none;stroke-opacity:1"
       d="m 370.84602,121.19424 c -1.18937,-0.0126 -2.25769,2e-4 -3.16467,0.0475 -3.62792,0.18938 -4.67335,0.92644 -4.07623,1.82211 0.59711,0.89567 2.83705,1.94983 4.67361,2.77554 1.83656,0.82572 3.26941,1.42309 2.04536,3.51297 -1.08502,1.85249 -4.25444,4.87632 -5.87613,7.28637 -0.42377,-0.22028 -0.86038,-0.42915 -1.31878,-0.61753 -1.90703,-0.7837 -4.12267,-1.27062 -6.43682,-1.31 -2.97533,-0.0506 -6.11351,0.6383 -8.96844,2.38487 -5.07544,3.10501 -9.25507,9.55343 -10.38955,15.76338 -1.13448,6.20995 0.77615,12.18113 5.13509,16.65945 4.35893,4.47831 11.16542,7.46355 16.89767,6.50813 5.73226,-0.95542 10.38998,-5.85141 13.13667,-10.6283 2.74669,-4.77688 3.58232,-9.43417 3.34346,-12.8974 -0.23885,-3.46323 -1.55256,-5.73262 -3.58272,-8.53901 -0.2842,-0.39287 -0.58703,-0.79692 -0.90176,-1.2051 2.10132,-2.41988 4.62151,-6.4417 6.63422,-7.52357 2.38845,-1.28383 4.06023,1.58235 5.25446,2.77658 1.19423,1.19424 1.91089,0.71654 2.14974,-0.65681 0.23885,-1.37334 -3.6e-4,-3.64206 -0.35863,-6.38876 -0.35826,-2.74671 -0.83594,-5.97145 -1.31362,-9.19582 -4.65741,-0.2687 -9.31482,-0.53698 -12.88293,-0.57464 z m -14.2565,22.31233 c 1.33307,0.0227 2.60924,0.30302 3.70779,0.75448 2.51097,1.03189 4.09325,2.95776 5.26273,4.57439 1.16947,1.61664 1.92584,2.92408 2.06344,4.91908 0.13759,1.99501 -0.34375,4.67779 -1.92598,7.42953 -1.58224,2.75173 -4.26491,5.57225 -7.56698,6.12262 -3.30208,0.55037 -7.22332,-1.16938 -9.73429,-3.74913 -2.51098,-2.57974 -3.61148,-6.01957 -2.95796,-9.59683 0.65352,-3.57725 3.06093,-7.29193 5.98465,-9.08058 1.64458,-1.00611 3.45266,-1.40273 5.1666,-1.37356 z" />
    <path
       id="path36"
       style="opacity:0.6;fill:#f50799;fill-opacity:1;fill-rule:evenodd;stroke:none;stroke-width:0.7;stroke-linecap:round;stroke-linejoin:round;stroke-dasharray:none;stroke-opacity:1"
       d="m 403.32235,425.64245 c -4.29201,-0.018 -8.57028,0.15683 -10.98697,0.69384 -3.86667,0.85922 -2.96617,2.64575 -0.85808,3.88426 2.10812,1.23854 5.42374,1.92884 7.49482,2.93771 2.07109,1.0089 2.89768,2.33638 2.68436,3.64303 -0.21332,1.30665 -1.46655,2.59225 -3.64875,4.54629 -1.35678,1.21491 -3.0721,2.6886 -4.44381,4.39159 -3.408,-2.06705 -7.33984,-3.41902 -11.23394,-4.39287 -3.92498,-0.98159 -7.81098,-1.5806 -11.42045,-1.56529 -2.80741,0.0123 -5.44754,0.39511 -7.80929,1.25912 -5.39828,1.97482 -9.34144,6.46 -12.13149,12.96284 -2.79007,6.50282 -4.42708,15.02325 -2.69773,21.97776 1.72934,6.95449 6.82523,12.34299 12.66811,15.49314 5.84292,3.15016 12.43274,4.06162 20.08654,1.2521 7.65383,-2.8095 16.37105,-9.34015 20.29598,-17.24814 3.77093,-7.59763 3.10972,-16.45816 -0.48124,-22.56974 2.39177,-2.14362 4.9999,-4.5435 6.79779,-6.18734 2.62815,-2.40294 3.49647,-3.15528 4.42154,-2.2254 0.92505,0.92986 1.90687,3.54201 3.36611,6.01609 1.45925,2.47409 3.39573,4.81009 4.67359,4.53803 1.2779,-0.27209 1.89693,-3.15188 2.26424,-5.76084 0.3673,-2.60898 0.48292,-4.94695 0.46915,-8.5808 -0.0138,-3.63385 -0.15699,-8.56348 -0.29982,-13.4931 -3.02128,-0.53377 -6.04229,-1.06761 -11.86988,-1.36859 -2.18536,-0.11277 -4.76558,-0.19292 -7.34078,-0.20369 z m -30.58972,24.5068 c 2.23926,-0.009 4.64985,0.36179 7.08486,0.97074 4.32891,1.0826 8.73444,2.91584 11.20658,6.7125 2.47214,3.79665 3.01043,9.55656 0.57544,14.46257 -2.43497,4.906 -7.84275,8.95755 -12.59109,10.70052 -4.74833,1.74299 -8.837,1.17772 -12.46185,-0.7766 -3.62486,-1.95432 -6.78606,-5.29752 -7.85893,-9.61201 -1.07287,-4.31448 -0.0568,-9.60013 1.67413,-13.63441 1.73092,-4.03428 4.17699,-6.81709 7.52602,-8.04227 1.4652,-0.53599 3.10316,-0.77366 4.84484,-0.78104 z" />
    <path
       id="path37"
       style="opacity:0.6;fill:#f50799;fill-opacity:1;fill-rule:evenodd;stroke:none;stroke-width:0.699999;stroke-linecap:round;stroke-linejoin:round;stroke-dasharray:none;stroke-opacity:1"
       d="m -52.643139,226.91248 c -1.17358,0.13038 -1.84662,0.49451 -2.01586,1.11933 -0.20831,0.769 0.34639,1.93371 1.17654,2.45501 0.83015,0.5213 1.93579,0.39938 3.0354,0.46468 0.12426,0.007 0.24827,0.0177 0.37177,0.0297 -0.74087,0.57697 -1.56618,1.66589 -2.53515,2.96102 -0.67306,0.89961 -1.40704,1.88625 -2.06829,2.76183 -1.29814,-0.60999 -2.68554,-0.86222 -4.34024,-0.79402 -0.30713,0.0126 -0.62326,0.0362 -0.94618,0.0697 -2.26041,0.23469 -4.84838,0.96718 -6.92663,2.00405 -2.37514,1.185 -4.08444,2.76747 -5.10544,4.44376 -1.021,1.67629 -1.3536,3.44638 -1.69657,5.4624 -0.34297,2.01602 -0.69658,4.27814 -0.16955,7.00841 0.52705,2.73027 1.93475,5.92828 4.00501,8.13048 2.07026,2.2022 4.80315,3.40833 7.95069,3.41934 3.14754,0.011 6.70947,-1.17295 9.49897,-3.21376 2.7895,-2.04079 4.80634,-4.93852 5.52894,-8.2964 0.72261,-3.35786 0.15098,-7.17572 -1.05408,-10.24576 -0.72581,-1.84908 -1.68363,-3.42104 -2.7344,-4.701 0.72018,-0.59383 1.37094,-1.36007 1.97694,-2.07575 1.05846,-1.25 1.98119,-2.34369 2.47769,-3.31372 0.13059,-0.25513 0.231,-0.5014 0.30308,-0.73844 0.29506,0.60015 0.59864,1.2319 0.82315,1.71947 0.31528,0.68463 0.46126,1.04135 0.88805,1.28738 0.42679,0.24604 1.13448,0.38141 1.71862,-0.1327 0.58412,-0.51411 1.04444,-1.67753 1.01617,-2.70063 -0.0283,-1.02309 -0.54535,-1.90588 -1.22463,-2.97995 -0.67927,-1.07407 -1.52043,-2.33932 -2.3618,-3.60464 -2.48566,-0.31215 -4.97153,-0.62423 -6.70002,-0.59356 -0.32409,0.006 -0.62135,0.0235 -0.89217,0.0537 z m -7.47613,14.22765 c 0.21339,-0.0225 0.42232,-0.0375 0.62528,-0.0461 1.62387,-0.0669 2.86201,0.31965 4.08861,1.28026 1.22661,0.96059 2.44184,2.49504 3.23831,4.52414 0.79649,2.02911 1.17424,4.55269 0.69661,6.77205 -0.4776,2.21936 -1.81046,4.13434 -3.65416,5.48319 -1.84369,1.34885 -4.19815,2.1313 -6.27848,2.12402 -2.08034,-0.007 -3.88648,-0.80428 -5.2548,-2.2598 -1.36832,-1.45552 -2.29882,-3.56938 -2.64718,-5.37393 -0.34834,-1.80453 -0.11474,-3.29945 0.11195,-4.63192 0.22667,-1.33247 0.44651,-2.50238 1.12134,-3.61031 0.67481,-1.10794 1.80474,-2.15393 3.37456,-2.93713 1.3736,-0.68531 3.08395,-1.16932 4.57794,-1.32447 z" />
  </g>
</svg>
