<?xml version="1.0" encoding="UTF-8" standalone="no"?>
<svg
   width="875.04999"
   height="672.87"
   version="1.1"
   viewBox="0 0 231.51862 178.02862"
   id="svg47"
   sodipodi:docname="daftpunk-reaction.svg"
   inkscape:version="1.4 (e7c3feb, 2024-10-09)"
   xmlns:inkscape="http://www.inkscape.org/namespaces/inkscape"
   xmlns:sodipodi="http://sodipodi.sourceforge.net/DTD/sodipodi-0.dtd"
   xmlns="http://www.w3.org/2000/svg"
   xmlns:svg="http://www.w3.org/2000/svg">
  <defs
     id="defs47" />
  <sodipodi:namedview
     id="namedview47"
     pagecolor="#ffffff"
     bordercolor="#000000"
     borderopacity="0.25"
     inkscape:showpageshadow="2"
     inkscape:pageopacity="0.0"
     inkscape:pagecheckerboard="0"
     inkscape:deskcolor="#d1d1d1"
     inkscape:zoom="0.92478194"
     inkscape:cx="369.81691"
     inkscape:cy="282.76936"
     inkscape:window-width="1920"
     inkscape:window-height="1009"
     inkscape:window-x="0"
     inkscape:window-y="0"
     inkscape:window-maximized="1"
     inkscape:current-layer="svg47" />
  <g
     transform="translate(-362.2256,168.04762)"
     id="g47">
    <g
       transform="translate(310.66,-220.8)"
       id="g18">
      <path
         d="m 149.57,122.41 c 4.0006,-3.1049 4.5977,-8.1206 5.0754,-12.539 0.47769,-4.4186 0.83595,-8.24 0.47767,-10.927 -0.35827,-2.687 -1.433,-4.2394 -5.1949,-4.5977 -3.7618,-0.35826 -10.21,0.47767 -20.72,1.9705 -10.509,1.4928 -25.078,3.6423 -37.02,5.5531 -11.942,1.9108 -21.257,3.5826 -27.586,4.8963 -6.3293,1.3136 -9.6731,2.269 -10.867,5.0754 -1.1942,2.8064 -0.23885,7.4638 1.1345,12.062 1.3734,4.5978 3.1646,9.1357 9.912,10.688 6.7474,1.5525 18.45,0.11943 30.273,-1.4928 11.823,-1.6122 23.765,-3.4035 33.438,-4.8962 9.6732,-1.4928 17.077,-2.687 21.078,-5.7919 z"
         fill="#fdc3e3"
         fill-opacity="0.99216"
         fill-rule="evenodd"
         stroke="#fdc2e2"
         stroke-linecap="round"
         stroke-linejoin="round"
         stroke-opacity="0.99216"
         stroke-width="0.95"
         id="path1" />
      <g
         fill="none"
         stroke="#fdc2e2"
         stroke-linecap="round"
         stroke-linejoin="round"
         stroke-opacity="0.99216"
         stroke-width="0.95"
         id="g9">
        <path
           d="m 152.8,94.761 c -1.1345,-1.6719 -2.269,-3.3438 -7.6256,-3.7195 -5.3566,-0.3757 -14.935,0.54461 -24.464,1.6915 -9.529,1.14689 -19.008,2.5202 -27.803,3.9707 -8.7951,1.4506 -16.905,2.9782 -22.979,4.4484 -6.074,1.4702 -10.111,2.8827 -12.559,4.674 -2.4482,1.7914 -3.3071,3.9614 -4.166,6.1314"
           id="path2" />
        <path
           d="m 59.533,132.75 c 1.6889,1.6044 3.3777,3.2088 7.6844,4.0955 4.3067,0.88666 11.231,1.0555 21.702,0.21109 10.471,-0.84445 24.488,-2.7022 35.424,-4.6866 10.936,-1.9844 18.789,-4.0955 23.011,-6.291 4.222,-2.1955 4.8133,-4.4755 5.4044,-6.7554"
           id="path3" />
        <path
           d="m 148.14,90.82 c -1.7913,-4.2394 -3.5826,-8.4789 -6.5682,-13.107 -2.9856,-4.6281 -7.1652,-9.6432 -13.554,-13.286 -6.3891,-3.6424 -14.987,-5.9113 -22.869,-6.4786 -7.8819,-0.56724 -15.047,0.56722 -20.958,3.0751 -5.911,2.50788 -10.569,6.3889 -14.51,10.957 -3.941,4.5681 -7.1653,9.8224 -9.1059,14.39 -1.9406,4.5679 -2.5974,8.449 -3.0751,11.464 -0.47769,3.0154 -0.77623,5.1649 -1.0748,7.3145"
           id="path4" />
        <path
           d="m 147.25,126.29 c -0.65682,6.2099 -1.3136,12.42 -1.7913,15.973 -0.4777,3.553 -0.77623,4.4484 -1.3734,5.4336 -0.59711,0.98524 -1.4928,2.06 -5.0754,5.0157 -3.5827,2.9557 -9.8522,7.7922 -13.375,10.449 -3.5229,2.6571 -4.2992,3.1348 -6.1204,3.5229 -1.8212,0.38812 -4.6872,0.68667 -8.3296,1.0449 -3.6424,0.35827 -8.0609,0.77624 -10.837,0.80609 -2.7765,0.0299 -3.911,-0.32841 -6.0606,-1.4032 -2.1496,-1.0748 -5.3142,-2.8661 -8.8372,-5.0157 -3.523,-2.1496 -7.4041,-4.6574 -10.3,-6.7771 -2.8959,-2.1197 -4.8067,-3.8513 -6.1203,-6.2099 -1.3136,-2.3586 -2.0301,-5.3441 -2.6571,-7.6728 -0.62696,-2.3287 -1.1643,-4.0006 -1.7017,-5.6725"
           id="path5" />
        <path
           transform="rotate(6.4403,121.36,149.31)"
           d="m 120.91,165.88 c 0.29855,-7.8221 0.59711,-15.644 0.74638,-21.167 0.14928,-5.5232 0.14928,-8.7476 0.14928,-11.972"
           id="path6" />
        <path
           d="m 119.66,166.23 c -2.269,-0.47769 -4.538,-0.95536 -7.4041,-1.0151 -2.8662,-0.0597 -6.3293,0.29855 -8.867,0.83595 -2.5377,0.5374 -4.1499,1.2539 -5.762,1.9704"
           id="path7" />
        <path
           transform="rotate(-4.1746,93.479,152)"
           d="m 96.772,167.7 c -1.52,-7.1777 -3.04,-14.355 -4.1377,-19.591 -1.0978,-5.2355 -1.7733,-8.5288 -2.4489,-11.822"
           id="path8" />
        <path
           d="m 119.66,143.66 c -0.53739,1.3733 -1.0748,2.7467 -1.6122,4.12 -0.95537,0.29855 -1.9107,0.59711 -3.8514,0.98523 -1.9407,0.38812 -4.8664,0.8658 -7.0757,1.1942 -2.2093,0.3284 -3.702,0.50754 -5.2247,0.41797 -1.5226,-0.0896 -3.0751,-0.44783 -4.6276,-0.80609 -0.47768,-0.89566 -0.95537,-1.7913 -1.2539,-2.3884 -0.29855,-0.5971 -0.41797,-0.89565 -0.53739,-1.1942"
           id="path9" />
      </g>
      <g
         fill-rule="evenodd"
         id="g14">
        <path
           transform="matrix(0.75861,0,0,1,14.445,0)"
           d="m 68.697,133.54 c -1.0449,-1.8212 -2.3586,-5.3441 -3.7618,-9.4044 -1.4032,-4.0603 -2.8959,-8.658 -3.911,-11.509 -1.0151,-2.851 -1.5525,-3.9558 -0.89563,-4.6574 0.65687,-0.7016 2.5078,-1.0002 3.9707,-1.3136 1.4629,-0.3134 2.5377,-0.64189 3.7319,3.2244 1.1942,3.8663 2.5078,11.927 3.3736,16.883 0.86581,4.956 1.2838,6.807 1.2241,7.7624 -0.05972,0.95536 -0.5971,1.0151 -1.2539,0.98521 -0.65682,-0.0298 -1.433,-0.14927 -2.478,-1.9704 z"
           fill="#fdffff"
           fill-opacity="0.99216"
           opacity="0.8"
           stroke="#fdffff"
           stroke-linecap="round"
           stroke-linejoin="round"
           stroke-opacity="0.99216"
           stroke-width="1.0907"
           id="path10" />
        <path
           transform="matrix(0.88466,0,0,0.97684,15.67,2.1815)"
           d="m 136.41,124.65 c 0.0299,-2.5974 0.68667,-7.9116 1.1942,-13.136 0.50754,-5.2247 0.8658,-10.36 1.1046,-13.226 0.2388,-2.866 0.35826,-3.4632 0.98523,-3.7618 0.62697,-0.2986 1.7614,-0.29855 3.1199,-0.28362 1.3584,0.01493 2.9407,0.04478 4.2693,0.08957 1.3286,0.04478 2.4033,0.10449 3.4035,0.20899 1.0002,0.1045 1.9257,0.25377 2.4183,1.0748 0.49261,0.82104 0.55232,2.3138 0.52246,4.9112 -0.0298,2.5974 -0.14927,6.2994 -0.41797,9.3745 -0.2687,3.0751 -0.68667,5.5232 -1.1046,7.4041 -0.41798,1.8809 -0.83595,3.1945 -1.6122,4.2693 -0.77625,1.0748 -1.9107,1.9107 -3.1646,2.5675 -1.2539,0.65682 -2.6273,1.1345 -4.2395,1.5823 -1.6122,0.4478 -3.4632,0.8658 -4.6873,1.1345 -1.2241,0.26869 -1.8212,0.38811 -1.7913,-2.2093 z"
           fill="#fdffff"
           fill-opacity="0.99216"
           opacity="0.8"
           stroke="#fdffff"
           stroke-linecap="round"
           stroke-linejoin="round"
           stroke-opacity="0.99216"
           stroke-width="1.0219"
           id="path11" />
        <path
           d="m 84.95,128.95 c 2.28,0.75999 4.6444,0.25333 6.5866,-1.9 1.9422,-2.1534 3.4622,-5.9532 3.5466,-9.6266 0.0844,-3.6734 -1.2666,-7.2199 -3.5466,-9.331 -2.28,-2.1111 -5.4888,-2.7866 -7.811,-2.5755 -2.3222,0.21112 -3.7577,1.3089 -4.8133,3.1244 -1.0555,1.8156 -1.7311,4.3488 -1.7733,7.051 -0.04222,2.7022 0.54888,5.5732 1.9422,8.0221 1.3933,2.4489 3.5888,4.4755 5.8688,5.2355 z"
           fill="#b80716"
           id="path12" />
        <path
           transform="matrix(0.78714,0,0,0.78714,18.215,24.985)"
           d="m 84.95,128.95 c 2.28,0.75999 4.6444,0.25333 6.5866,-1.9 1.9422,-2.1534 3.4622,-5.9532 3.5466,-9.6266 0.0844,-3.6734 -1.2666,-7.2199 -3.5466,-9.331 -2.28,-2.1111 -5.4888,-2.7866 -7.811,-2.5755 -2.3222,0.21112 -3.7577,1.3089 -4.8133,3.1244 -1.0555,1.8156 -1.7311,4.3488 -1.7733,7.051 -0.04222,2.7022 0.54888,5.5732 1.9422,8.0221 1.3933,2.4489 3.5888,4.4755 5.8688,5.2355 z"
           fill="#fdc4e4"
           fill-opacity="0.99216"
           id="path13" />
        <path
           transform="translate(-5.3199,-1.0133)"
           d="m 102.39,105.89 c -0.21111,2.6178 0.38,7.5155 0.84444,11.738 0.46444,4.2222 0.80221,7.7688 1.2666,9.4576 0.46445,1.6889 1.0555,1.52 1.6044,1.4355 0.54888,-0.0844 1.0555,-0.0844 1.3089,-0.76 0.25333,-0.67556 0.25333,-2.0266 0.0422,-3.8844 -0.21111,-1.8578 -0.63332,-4.2222 -0.67554,-5.911 -0.0422,-1.6889 0.29555,-2.7022 0.80221,-3.3777 0.50667,-0.67555 1.1822,-1.0133 1.9,-1.14 0.71777,-0.12667 1.4778,-0.0422 2.1111,0.50667 0.63332,0.54889 1.14,1.5622 1.3089,2.8711 0.16889,1.3089 1e-5,2.9133 -0.0422,4.8977 -0.0422,1.9844 0.0422,4.3488 0.54889,5.2777 0.50667,0.92888 1.4355,0.42223 1.9422,-0.88666 0.50666,-1.3089 0.59111,-3.4199 0.59111,-5.7844 -10e-6,-2.3644 -0.0845,-4.9821 -0.80223,-6.9243 -0.71778,-1.9422 -2.0688,-3.2088 -3.5466,-3.5466 -1.4778,-0.33777 -3.0822,0.25332 -4.1799,0.84444 -1.0978,0.59111 -1.6889,1.1822 -2.0689,0.37996 -0.38,-0.80223 -0.54888,-2.9977 -0.63333,-4.6444 -0.0844,-1.6467 -0.0844,-2.7444 -0.59111,-3.1244 -0.50667,-0.37999 -1.52,-0.0422 -1.7311,2.5755 z"
           fill="#b80716"
           id="path14" />
      </g>
      <g
         fill="#ff0000"
         fill-rule="evenodd"
         id="g17">
        <path
           transform="translate(0.75999,0.75999)"
           d="m 113.75,123.92 c 0.50666,0.46444 1.2666,0.46444 1.8155,0.16888 0.54889,-0.29555 0.88665,-0.88664 0.84443,-1.52 -0.0422,-0.63333 -0.46443,-1.3089 -0.9711,-1.6466 -0.50667,-0.33778 -1.0978,-0.33778 -1.5622,-0.16889 -0.4644,0.16889 -0.80221,0.50666 -0.84443,1.14 -0.0422,0.63334 0.21111,1.5622 0.71777,2.0266 z"
           id="path15" />
        <path
           transform="translate(6.5866,0.25333)"
           d="m 113.75,123.92 c 0.50666,0.46444 1.2666,0.46444 1.8155,0.16888 0.54889,-0.29555 0.88665,-0.88664 0.84443,-1.52 -0.0422,-0.63333 -0.46443,-1.3089 -0.9711,-1.6466 -0.50667,-0.33778 -1.0978,-0.33778 -1.5622,-0.16889 -0.4644,0.16889 -0.80221,0.50666 -0.84443,1.14 -0.0422,0.63334 0.21111,1.5622 0.71777,2.0266 z"
           id="path16" />
        <path
           transform="translate(12.16,-0.75999)"
           d="m 113.75,123.92 c 0.50666,0.46444 1.2666,0.46444 1.8155,0.16888 0.54889,-0.29555 0.88665,-0.88664 0.84443,-1.52 -0.0422,-0.63333 -0.46443,-1.3089 -0.9711,-1.6466 -0.50667,-0.33778 -1.0978,-0.33778 -1.5622,-0.16889 -0.4644,0.16889 -0.80221,0.50666 -0.84443,1.14 -0.0422,0.63334 0.21111,1.5622 0.71777,2.0266 z"
           id="path17" />
      </g>
    </g>
    <g
       transform="matrix(1,0,0,0.92386,353.22,-178.83)"
       stroke-width="1.0404"
       id="g46">
      <g
         fill="none"
         stroke="#fdc4e4"
         stroke-linecap="round"
         stroke-linejoin="round"
         stroke-opacity="0.99216"
         id="g24">
        <path
           transform="matrix(0.91643,0,0,1,11.003,0)"
           d="m 212.49,90.4 c -3.9157,-3.2541 -10.671,-7.3074 -18.141,-9.0953 -7.4697,-1.7879 -15.653,-1.3105 -21.318,-0.45674 -5.6652,0.85378 -8.8117,2.0838 -13.087,5.35 -4.2756,3.2662 -9.6797,8.5682 -13.853,18.42 -4.1729,9.8513 -7.1141,24.251 -7.967,34.167 -0.85297,9.9166 0.38235,15.349 2.2937,21.461 1.9114,6.112 4.4985,12.903 7.3856,18.228 2.8871,5.3252 6.0738,9.1846 10.707,11.199 4.6334,2.0142 10.713,2.183 14.767,2.2675 4.0533,0.0844 6.0799,0.0844 10.893,-1.8578 4.8134,-1.9422 12.413,-5.8266 17.058,-9.1199 4.6444,-3.2933 6.3332,-5.9955 7.5155,-12.16 1.1822,-6.1645 1.8577,-15.791 2.7022,-24.066 0.84444,-8.2755 1.8577,-15.2 3.6624,-21.28 1.8046,-6.08 4.4004,-11.315 5.1072,-15.323 0.70684,-4.0081 -0.47532,-6.7887 -1.6044,-9.4065 -1.1291,-2.6178 -2.2049,-5.0726 -6.1206,-8.3267 z"
           stroke-width="1.0324"
           id="path18" />
        <g
           stroke-width="0.98837"
           id="g23">
          <path
             d="m 212.81,105.57 c 1.5525,1.9389 3.1049,3.8779 4.1797,6.0107 1.0748,2.1329 1.6719,4.4595 2.0899,7.6265 0.41798,3.167 0.65682,7.174 0.89566,11.181 -2.5078,1.0341 -5.0157,2.0682 -6.5682,3.3608 -1.5525,1.2926 -2.1496,2.8438 -2.5676,5.2352 -0.41797,2.3914 -0.65681,5.6229 -0.77623,9.8886 -0.11942,4.2657 -0.11942,9.5654 0.0597,13.896 0.17914,4.3303 0.53739,7.6911 0.35825,10.858 -0.17914,3.1669 -0.89565,6.14 -1.6122,9.113 -2.3884,1.4219 -4.7768,2.8438 -7.7624,4.395 -2.9856,1.5512 -6.568,3.2315 -9.673,4.8473 -3.105,1.6158 -5.7322,3.1669 -8.3595,4.7181 -2.8661,0.38779 -5.7322,0.77558 -9.0163,0.90484 -3.2841,0.12926 -6.9861,0 -10.031,-0.25853 -3.0453,-0.25852 -5.4336,-0.6463 -7.822,-1.0341 -1.0748,-1.0341 -2.1496,-2.0682 -3.7618,-4.0718 -1.6122,-2.0036 -3.7617,-4.9766 -4.8962,-7.4972 -1.1345,-2.5206 -1.2539,-4.5888 -1.3733,-6.657"
             id="path19" />
          <path
             d="m 219.89,129.78 c 1.7733,1.371 3.5466,2.7421 4.4333,5.2557 0.88666,2.5136 0.88666,6.1696 1.0978,11.745 0.21112,5.5756 0.63332,13.07 0.88665,18.6 0.25334,5.5299 0.33778,9.0945 -1.0978,11.425 -1.4356,2.3308 -4.391,3.4276 -6.5443,4.1588 -2.1533,0.73123 -3.5044,1.0968 -4.0955,-0.91407 -0.5911,-2.0109 -0.42222,-6.3981 -0.33777,-10.831 0.0844,-4.4331 0.0844,-8.9117 0.16889,-12.751 0.0844,-3.8389 0.25332,-7.038 0.46444,-10.054 0.21111,-3.0163 0.46444,-5.8497 1.2244,-7.8149 0.76,-1.9652 2.0266,-3.062 3.1666,-3.7018 1.14,-0.63982 2.1533,-0.82262 2.9344,-0.86832 0.78111,-0.0457 1.33,0.0457 1.8789,0.13711"
             id="path20" />
          <path
             d="m 215.5,181.58 c -2.1496,0.19389 -4.2992,0.38779 -6.4487,0.58168"
             id="path21" />
          <path
             d="m 224.45,142.02 c -1.2539,-0.38779 -2.5078,-0.77557 -3.5528,-0.42009 -1.0449,0.35549 -1.8809,1.4542 -2.4481,3.5224 -0.56726,2.0682 -0.8658,5.1058 -0.56724,7.8204 0.29856,2.7146 1.1942,5.1058 2.2093,6.5924 1.0151,1.4865 2.1496,2.0682 3.1647,1.7127 1.0151,-0.35548 1.9107,-1.6481 2.8064,-2.9407"
             id="path22" />
          <path
             d="m 224.81,147.26 c -1.2539,-0.19389 -2.5078,-0.38779 -3.2542,-0.19388 -0.74638,0.1939 -0.98521,0.77556 -1.0449,1.9713 -0.0597,1.1957 0.0597,3.0053 0.35827,4.1364 0.29856,1.131 0.77623,1.5834 1.3136,1.6481 0.5374,0.0646 1.1345,-0.25852 1.6719,-0.58168 0.5374,-0.32316 1.0151,-0.64631 1.4928,-0.96946"
             id="path23" />
        </g>
      </g>
      <g
         fill="#fdc5e5"
         fill-opacity="0.99216"
         fill-rule="evenodd"
         stroke="#fdc5e5"
         stroke-linecap="round"
         stroke-linejoin="round"
         stroke-opacity="0.99216"
         id="g26">
        <path
           d="m 179.49,185.78 c -0.17914,-4.0071 -1.0748,-11.763 -1.851,-19.519 -0.77624,-7.7558 -1.433,-15.511 -1.0449,-22.621 0.3881,-7.11 1.8212,-13.573 3.7618,-20.585 1.9406,-7.0126 4.3887,-14.574 6.9563,-20.811 2.5676,-6.237 5.2545,-11.149 6.389,-14.09 1.1345,-2.9407 0.71653,-3.9102 -0.44784,-4.7504 -1.1644,-0.84022 -3.0751,-1.5511 -5.5232,-2.0359 -2.4482,-0.48474 -5.4336,-0.74326 -9.1059,-0.67862 -3.6722,0.06463 -8.031,0.45242 -11.017,1.0341 -2.9855,0.58169 -4.5977,1.3572 -6.4487,3.8133 -1.851,2.4561 -3.9409,6.5924 -5.6725,12.28 -1.7316,5.6876 -3.1049,12.926 -4.0603,19.971 -0.95538,7.0449 -1.4928,13.896 -1.6122,19.486 -0.11942,5.5907 0.17913,9.9209 1.1047,15.705 0.92552,5.7846 2.478,13.023 3.5229,18.452 1.0449,5.4291 1.5823,9.0483 2.0302,11.86 0.44783,2.8115 0.80609,4.815 1.4331,5.9461 0.62701,1.1311 1.5226,1.3896 2.9855,1.6481 1.4629,0.25853 3.493,0.51705 5.6128,0.71094 2.1197,0.1939 4.329,0.32316 6.3592,0.0969 2.0302,-0.22621 3.8812,-0.80788 5.0754,-1.228 1.1942,-0.4201 1.7316,-0.67863 1.5525,-4.6858 z"
           stroke-width="0.98837"
           id="path24" />
        <path
           transform="matrix(0.86988,0,0,0.80395,23.736,38.503)"
           d="m 182.4,196.41 c -0.67555,-2.6507 -1.3511,-5.3013 -2.0266,-7.952"
           stroke-width="1.1819"
           id="path25" />
        <path
           d="m 156.68,196 c 0.0422,-2.1023 0.0844,-4.2045 0.12666,-6.3068"
           stroke-width="0.98837"
           id="path26" />
      </g>
      <path
         d="m 220.14,123.75 c 1.6889,1.7366 3.3777,3.4733 5.0666,5.667 1.6889,2.1937 3.3777,4.8443 4.1799,6.9009 0.80222,2.0566 0.71777,3.519 0.80222,8.1349 0.0845,4.6159 0.33778,12.385 0.50667,17.549 0.16889,5.164 0.25333,7.7235 -0.0422,9.4144 -0.29556,1.691 -0.9711,2.5136 -1.7733,3.1077 -0.8022,0.5941 -1.7311,0.95972 -2.66,1.3253"
         fill="none"
         stroke="#fdc5e5"
         stroke-linecap="round"
         stroke-linejoin="round"
         stroke-opacity="0.99216"
         stroke-width="0.98837"
         id="path27" />
      <g
         transform="matrix(0.52437,0,0,0.52437,119.05,36.859)"
         fill="#b80716"
         fill-rule="evenodd"
         stroke-width="1.9841"
         id="g29">
        <path
           d="m 82.221,179.96 c -1.1345,-2.7791 -2.4481,-5.6229 -5.0157,-7.8204 -2.5676,-2.1975 -6.389,-3.7486 -9.076,-3.2315 -2.687,0.5171 -4.2394,3.1023 -4.956,7.1741 -0.7166,4.0718 -0.59711,9.63 0.65684,13.96 1.2539,4.3303 3.6423,7.4326 7.225,11.31 3.5827,3.8779 8.3594,8.5313 11.046,11.117 2.687,2.5853 3.2841,3.1023 3.8812,3.6194 0.47768,-1.6804 0.95537,-3.3608 -0.05973,-6.2046 -1.0151,-2.8438 -3.5229,-6.8509 -6.0307,-10.858 l 4.6574,-0.38778 c -0.47768,-1.8097 -0.95537,-3.6194 -2.2093,-5.1059 -1.2539,-1.4865 -3.2841,-2.6499 -5.3142,-3.8132 2.7467,-0.51705 5.4934,-1.0341 8.24,-1.5512 -0.95537,-2.7145 -1.9107,-5.429 -3.0452,-8.2082 z"
           id="path28" />
        <path
           d="m 87.146,186 c 0.50666,-2.0109 1.2666,-5.1185 2.4489,-7.952 1.1822,-2.8335 2.7866,-5.3927 4.94,-6.1239 2.1533,-0.73121 4.8555,0.3656 6.7132,1.8281 1.8578,1.4625 2.8711,3.2905 2.9133,7.5864 0.0422,4.296 -0.88664,11.06 -2.2378,15.995 -1.3511,4.9358 -3.1244,8.0434 -5.6155,11.014 -2.4911,2.9706 -5.6999,5.804 -8.9087,8.6375 0.08444,-2.1023 0.16889,-4.2045 -0.08445,-6.0326 -0.25334,-1.8281 -0.84443,-3.3819 -1.6889,-5.1185 -0.84444,-1.7367 -1.9422,-3.6561 -3.04,-5.5755 1.4355,0.0914 2.8711,0.18281 4.0955,0.22851 1.2244,0.0457 2.2377,0.0457 3.2511,0.0457 -0.92888,-1.828 -1.8578,-3.6561 -2.8711,-5.1186 -1.0133,-1.4625 -2.1111,-2.5593 -3.2088,-3.6561 0.75999,-0.63982 1.52,-1.2796 2.0266,-2.0566 0.50666,-0.77693 0.75999,-1.6909 1.2666,-3.7018 z"
           id="path29" />
      </g>
      <g
         fill="none"
         stroke="#fdc5e5"
         stroke-linecap="round"
         stroke-linejoin="round"
         stroke-opacity="0.99216"
         stroke-width="0.98837"
         id="g45">
        <path
           d="m 179.61,182.16 c 6.0799,-3.5647 12.16,-7.1294 15.96,-9.5059 3.8,-2.3765 5.3199,-3.5647 6.8399,-4.7529"
           id="path30" />
        <path
           d="m 178.34,171.74 c 7.0088,-3.9303 14.018,-7.8606 18.24,-10.374 4.2222,-2.5136 5.6577,-3.6104 7.0932,-4.7072"
           id="path31" />
        <path
           d="m 177.34,159.86 c 6.6279,-3.2316 13.256,-6.4631 17.824,-8.5313 4.5679,-2.0682 7.0757,-2.973 9.5835,-3.8779"
           id="path32" />
        <path
           d="m 176.89,144.84 c 5.4635,-1.4219 10.927,-2.8438 15.704,-4.0395 4.777,-1.1957 8.867,-2.1651 12.957,-3.1346"
           id="path33" />
        <path
           d="m 178.95,130.1 c 4.329,-0.25853 8.658,-0.51705 13.301,-0.66247 4.6425,-0.14541 9.5984,-0.17771 14.554,-0.21001"
           id="path34" />
        <path
           d="m 182.65,117.44 c 6.0799,1.0968 12.16,2.1937 16.509,2.8792 4.349,0.6855 6.9666,0.95972 9.5843,1.2339"
           id="path35" />
        <path
           d="m 185.94,105.96 c 5.971,1.5512 11.942,3.1023 16.122,4.3303 4.1798,1.228 6.5681,2.1328 8.9565,3.0377"
           id="path36" />
        <path
           d="m 192.02,92.216 c 4.8133,3.1077 9.6266,6.2154 13.215,8.7747 3.5889,2.5593 5.9532,4.5701 8.3176,6.581"
           id="path37" />
        <path
           d="m 155.49,181.97 c -3.3438,-2.2621 -6.6876,-4.5242 -10.031,-6.7863"
           id="path38" />
        <path
           d="m 154.41,172.66 c -4.4783,-2.7792 -8.9566,-5.5583 -13.435,-8.3374"
           id="path39" />
        <path
           d="m 153.16,161.8 c -3.7618,-1.4865 -7.5235,-2.973 -9.9418,-4.0395 -2.4183,-1.0664 -3.493,-1.7127 -4.5678,-2.359"
           id="path40" />
        <path
           d="m 150.11,145.9 c -4.0953,-1.4819 -8.1906,-2.9639 -12.286,-4.4458"
           id="path41" />
        <path
           d="m 150.22,129.23 c -3.7577,0.0457 -7.5155,0.0914 -11.273,0.1371"
           id="path42" />
        <path
           d="m 151.55,113.72 c -2.5078,0.51705 -5.0157,1.0341 -6.7174,1.4542 -1.7018,0.4201 -2.5974,0.74325 -3.493,1.0664"
           id="path43" />
        <path
           d="m 153.87,102.28 c -2.3287,0.25853 -4.6574,0.51705 -6.2099,1.0664 -1.5525,0.54937 -2.3287,1.3896 -3.1049,2.2298"
           id="path44" />
        <path
           d="m 159.34,87.555 c -2.28,1.0968 -4.5599,2.1937 -6.8399,3.2905"
           id="path45" />
      </g>
    </g>
    <path
       transform="rotate(8.6325,1983.5,2873.7)"
       d="m 104.91,153.64 c -1.3733,3.1647 -2.4481,7.7027 -2.8661,12.718 -0.41797,5.0157 -0.17913,10.509 0.17913,14.868 0.35827,4.3589 0.83595,7.5832 1.4928,5.7918 0.65685,-1.7914 1.4928,-8.5982 2.0899,-13.495 0.59711,-4.8963 0.95537,-7.8818 1.9108,-11.285 0.95538,-3.4035 2.5078,-7.2249 2.9258,-9.8522 0.41796,-2.6273 -0.29854,-4.0603 -1.4928,-3.8811 -1.19426,0.1792 -2.8661,1.9704 -4.2394,5.1351 z"
       fill="#fdf2f9"
       fill-rule="evenodd"
       stroke="#fdf2f9"
       stroke-linecap="round"
       stroke-linejoin="round"
       stroke-width="0.95"
       id="path46" />
  </g>
</svg>
