<?xml version="1.0" encoding="UTF-8" standalone="no"?>
<!-- Created with Inkscape (http://www.inkscape.org/) -->

<svg
   width="57.626999mm"
   height="53.868mm"
   viewBox="0 0 57.626999 53.868"
   version="1.1"
   id="svg1"
   inkscape:version="1.4 (e7c3feb, 2024-10-09)"
   sodipodi:docname="ed-crazyeyes-pink.svg"
   xmlns:inkscape="http://www.inkscape.org/namespaces/inkscape"
   xmlns:sodipodi="http://sodipodi.sourceforge.net/DTD/sodipodi-0.dtd"
   xmlns="http://www.w3.org/2000/svg"
   xmlns:svg="http://www.w3.org/2000/svg">
  <sodipodi:namedview
     id="namedview1"
     pagecolor="#ffffff"
     bordercolor="#000000"
     borderopacity="0.25"
     inkscape:showpageshadow="2"
     inkscape:pageopacity="0.0"
     inkscape:pagecheckerboard="0"
     inkscape:deskcolor="#d1d1d1"
     inkscape:document-units="mm"
     inkscape:zoom="1.0444209"
     inkscape:cx="-16.755697"
     inkscape:cy="191.97241"
     inkscape:window-width="1920"
     inkscape:window-height="1009"
     inkscape:window-x="0"
     inkscape:window-y="0"
     inkscape:window-maximized="1"
     inkscape:current-layer="layer1" />
  <defs
     id="defs1" />
  <g
     inkscape:label="Layer 1"
     inkscape:groupmode="layer"
     id="layer1"
     transform="translate(-76.795345,-111.2161)">
    <g
       id="g6"
       transform="translate(-56.492629,35.466225)">
      <g
         transform="matrix(-1,0,0,1,256.61872,2.909171)"
         id="g16">
        <g
           fill-rule="evenodd"
           id="g9"
           transform="matrix(0.99999,0,0,0.99999,-104.45669,-175.33682)">
          <g
             stroke-linecap="round"
             stroke-linejoin="round"
             id="g2">
            <path
               d="m 220.77,274.89 a 23.959,23.959 0 0 1 -23.959,23.959 23.959,23.959 0 0 1 -23.959,-23.959 23.959,23.959 0 0 1 23.959,-23.959 23.959,23.959 0 0 1 23.959,23.959 z"
               fill="#f5ff4b"
               id="path1" />
            <path
               d="m 196.81,250.46 c -13.489,0 -24.434,10.945 -24.434,24.434 0,13.489 10.945,24.434 24.434,24.434 13.489,0 24.436,-10.945 24.436,-24.434 0,-13.489 -10.947,-24.434 -24.436,-24.434 z m 0,0.94922 c 12.975,0 23.484,10.509 23.484,23.484 0,12.975 -10.509,23.484 -23.484,23.484 -12.975,0 -23.482,-10.509 -23.482,-23.484 0,-12.975 10.507,-23.484 23.482,-23.484 z"
               id="path2" />
          </g>
          <g
             stroke-linecap="round"
             stroke-linejoin="round"
             id="g4">
            <path
               d="m 217.44,287.11 7.179,-11.355 -4.056,-0.48378"
               fill="#f5ff4b"
               id="path3" />
            <path
               d="m 220.61,274.89 a 0.38245,0.38245 0 0 0 -0.42383,0.33594 0.38245,0.38245 0 0 0 0.33398,0.42383 l 3.4531,0.41211 -6.8535,10.844 a 0.38245,0.38245 0 0 0 0.11914,0.52734 0.38245,0.38245 0 0 0 0.52735,-0.11914 l 7.1777,-11.355 a 0.38249,0.38249 0 0 0 -0.27734,-0.58398 z"
               id="path4" />
          </g>
          <g
             fill="#f5ff4b"
             id="g7">
            <rect
               transform="matrix(-0.33378,0.94265,-0.93098,-0.36507,0,0)"
               x="176.25"
               y="-300.69"
               width="1.3026"
               height="1.5049"
               stroke-width="0.26466"
               id="rect4" />
            <rect
               transform="matrix(0.87818,0.47833,-0.52341,0.85208,0,0)"
               x="334.82999"
               y="146.22"
               width="0.80681998"
               height="0.93340999"
               stroke-width="0.26476"
               id="rect5" />
            <rect
               transform="rotate(37.078)"
               x="345.22"
               y="96.793999"
               width="0.88665998"
               height="1.4883"
               stroke-width="0.26458"
               id="rect6" />
            <rect
               transform="matrix(0.0042763,0.99999,-0.99958,-0.029119,0,0)"
               x="268.19"
               y="-219.24001"
               width="1.3026"
               height="1.5049"
               stroke-width="0.26466"
               id="rect7" />
          </g>
          <g
             transform="matrix(0.9682,-0.25016,0.2201,0.97548,0.50666541,0.75999812)"
             stroke-linecap="round"
             stroke-linejoin="round"
             id="g8">
            <path
               d="m 121.4,314.2 a 5.407,2.8183 0 0 1 -5.407,2.8183 5.407,2.8183 0 0 1 -5.407,-2.8183 5.407,2.8183 0 0 1 5.407,-2.8183 5.407,2.8183 0 0 1 5.407,2.8183 z"
               fill="#fa3872"
               id="path7" />
            <path
               d="m 115.99,311.15 c -1.5259,0 -2.9102,0.31914 -3.9316,0.85157 -1.0215,0.53242 -1.709,1.3004 -1.709,2.1992 0,0.89881 0.6875,1.6668 1.709,2.1992 1.0215,0.53243 2.4058,0.85157 3.9316,0.85157 1.5258,0 2.9082,-0.31914 3.9297,-0.85157 1.0215,-0.53242 1.709,-1.3004 1.709,-2.1992 0,-0.89882 -0.68751,-1.6668 -1.709,-2.1992 -1.0215,-0.53243 -2.4038,-0.85157 -3.9297,-0.85157 z m 0,0.46485 c 1.4604,0 2.7794,0.31122 3.7148,0.79883 0.93549,0.4876 1.459,1.1294 1.459,1.7871 0,0.65768 -0.5235,1.2995 -1.459,1.7871 -0.93548,0.48761 -2.2545,0.79883 -3.7148,0.79883 -1.4603,0 -2.7813,-0.31122 -3.7168,-0.79883 -0.93548,-0.4876 -1.459,-1.1294 -1.459,-1.7871 0,-0.65769 0.5235,-1.2995 1.459,-1.7871 0.93549,-0.48761 2.2564,-0.79883 3.7168,-0.79883 z"
               id="path8" />
          </g>
        </g>
      </g>
      <path
         sodipodi:type="spiral"
         style="fill:none;fill-rule:evenodd;stroke:#000000;stroke-width:2.36981;stroke-linecap:round;stroke-dasharray:none"
         id="path5"
         sodipodi:cx="74.5187"
         sodipodi:cy="122.88419"
         sodipodi:expansion="1"
         sodipodi:revolution="2.2"
         sodipodi:radius="16.101917"
         sodipodi:argument="-19.857037"
         sodipodi:t0="0"
         d="m 74.5187,122.88419 c 0.58787,-0.93079 1.54473,0.33322 1.547045,0.97708 0.0063,1.74483 -2.061624,2.4925 -3.501205,2.11701 -2.575072,-0.67166 -3.544352,-3.70689 -2.686976,-6.02533 1.258234,-3.40239 5.372136,-4.62088 8.549455,-3.25694 4.234867,1.81792 5.707529,7.04416 3.826906,11.07358 -2.366571,5.07062 -8.719335,6.79934 -13.597704,4.39687 -5.908359,-2.9097 -7.894116,-10.39627 -4.966837,-16.12183 3.449696,-6.74736 12.074315,-8.99075 18.645954,-5.5368 5.870631,3.08552 8.945123,9.87597 7.788063,16.34688"
         transform="matrix(0.40089765,-0.22826577,0.21661673,0.38043871,115.53459,68.186155)" />
      <path
         sodipodi:type="spiral"
         style="fill:none;fill-rule:evenodd;stroke:#000000;stroke-width:2.44221;stroke-linecap:round;stroke-dasharray:none"
         id="path6"
         sodipodi:cx="74.5187"
         sodipodi:cy="122.88419"
         sodipodi:expansion="1"
         sodipodi:revolution="2.2"
         sodipodi:radius="16.101917"
         sodipodi:argument="-19.857037"
         sodipodi:t0="0"
         d="m 74.5187,122.88419 c 0.58787,-0.93079 1.54473,0.33322 1.547045,0.97708 0.0063,1.74483 -2.061624,2.4925 -3.501205,2.11701 -2.575072,-0.67166 -3.544352,-3.70689 -2.686976,-6.02533 1.258234,-3.40239 5.372136,-4.62088 8.549455,-3.25694 4.234867,1.81792 5.707529,7.04416 3.826906,11.07358 -2.366571,5.07062 -8.719335,6.79934 -13.597704,4.39687 -5.908359,-2.9097 -7.894116,-10.39627 -4.966837,-16.12183 3.449696,-6.74736 12.074315,-8.99075 18.645954,-5.5368 5.870631,3.08552 8.945123,9.87597 7.788063,16.34688"
         transform="matrix(-0.19350315,0.3764142,-0.41632,-0.17290179,212.85538,87.875059)" />
    </g>
  </g>
</svg>
