<?xml version="1.0" encoding="UTF-8" standalone="no"?>
<!-- Created with Inkscape (http://www.inkscape.org/) -->

<svg
   width="48.868122mm"
   height="48.879517mm"
   viewBox="0 0 48.868122 48.879517"
   version="1.1"
   id="svg1"
   inkscape:version="1.4 (e7c3feb, 2024-10-09)"
   sodipodi:docname="ed-smile-pink.svg"
   xmlns:inkscape="http://www.inkscape.org/namespaces/inkscape"
   xmlns:sodipodi="http://sodipodi.sourceforge.net/DTD/sodipodi-0.dtd"
   xmlns="http://www.w3.org/2000/svg"
   xmlns:svg="http://www.w3.org/2000/svg">
  <sodipodi:namedview
     id="namedview1"
     pagecolor="#ffffff"
     bordercolor="#000000"
     borderopacity="0.25"
     inkscape:showpageshadow="2"
     inkscape:pageopacity="0.0"
     inkscape:pagecheckerboard="0"
     inkscape:deskcolor="#d1d1d1"
     inkscape:document-units="mm"
     inkscape:zoom="1.4770342"
     inkscape:cx="206.83339"
     inkscape:cy="107.30963"
     inkscape:window-width="1920"
     inkscape:window-height="1009"
     inkscape:window-x="0"
     inkscape:window-y="0"
     inkscape:window-maximized="1"
     inkscape:current-layer="g17" />
  <defs
     id="defs1" />
  <g
     inkscape:label="Layer 1"
     inkscape:groupmode="layer"
     id="layer1"
     transform="translate(-81.362671,-101.72548)">
    <g
       transform="matrix(1.0000026,0,0,1.0000026,79.338664,97.676473)"
       stroke="#000000"
       stroke-linecap="round"
       stroke-linejoin="round"
       id="g17">
      <circle
         cx="26.458"
         cy="28.483"
         r="23.959"
         fill="#f5ff4b"
         fill-rule="evenodd"
         stroke-width="0.95012"
         id="circle1"
         style="fill:#e0f717;fill-opacity:1;stroke:#000000;stroke-width:0.949998;stroke-dasharray:none;stroke-opacity:1" />
      <path
         d="m 50.267,25.466903 c -6.5563,3.772124 -15.046,6.038513 -23.853,6.05631 -8.7834,-0.01785 -17.252,-2.273063 -23.802,-6.027002 -0.054779,0.503711 -0.092281,2.902556 -0.11244,3.408627 -2.332e-4,12.715611 10.706,23.02371 23.914,23.02371 13.207,-5e-5 23.914,-10.308099 23.914,-23.02371 -0.0023,-0.515308 -0.02263,-2.923933 -0.06086,-3.437935 z"
         fill="#ffffff"
         fill-rule="evenodd"
         stroke-width="0.52678"
         id="path1" />
      <g
         fill="#1a1a1a"
         fill-rule="evenodd"
         id="g9">
        <path
           d="m 26.422,31.617 0.44783,21.048"
           stroke-width="0.52678"
           id="path2" />
        <path
           transform="matrix(1,0,0,0.9907,0,0.47638)"
           d="m 18.361,30.811 0.2687,20.421"
           stroke-width="0.52925"
           id="path3" />
        <path
           transform="matrix(1,0,0,0.98309,0,0.81499)"
           d="m 12.36,29.467 0.17913,18.719"
           stroke-width="0.5313"
           id="path4" />
        <path
           transform="translate(0,0.12667)"
           d="M 7.3444,27.676 7.16527,42.633"
           stroke-width="0.52678"
           id="path5" />
        <path
           transform="matrix(1,0,0,0.95487,0,1.5483)"
           d="M 3.6722,25.884 3.13481,34.3032"
           stroke-width="0.53909"
           id="path6" />
        <path
           d="m 33.766,30.99 1.2539,19.973"
           stroke-width="0.52678"
           id="path7" />
        <path
           transform="matrix(1,0,0,0.98527,0,0.68346)"
           d="m 41.021,29.198 1.5226,17.197"
           stroke-width="0.53071"
           id="path8" />
        <path
           transform="matrix(1,0,0,0.97133,0,1.1631)"
           d="m 46.216,27.318 1.1644,13.256"
           stroke-width="0.5345"
           id="path9" />
      </g>
      <g
         fill="none"
         id="g16">
        <path
           d="m 20.266,19.76 c 0,0 -1.6713,-2.6574 -3.1666,-3.42 -1.9987,-1.0193 -4.5969,-1.181 -6.9666,-1.14 -1.3053,0.02257 -3.8,0.75999 -3.8,0.75999"
           stroke-width="0.76491"
           id="path10" />
        <path
           d="m 20.266,19.76 c 0,0 -1.6713,-2.6574 -3.1666,-3.42 -1.9987,-1.0193 -4.5969,-1.181 -6.9666,-1.14 -1.3053,0.02257 -3.8,0.75999 -3.8,0.75999"
           stroke-width="0.76491"
           id="path11" />
        <path
           d="m 20.266,19.76 c 0,0 -1.6713,-2.6574 -3.1666,-3.42 -1.9987,-1.0193 -4.5969,-1.181 -6.9666,-1.14 -1.3053,0.02257 -3.8,0.75999 -3.8,0.75999"
           stroke-width="0.76491"
           id="path12" />
        <g
           stroke-width="0.76491"
           id="g15">
          <path
             d="m 32.768,20.169 c 0,0 1.6713,-2.6574 3.1666,-3.42 1.9987,-1.0193 4.5969,-1.181 6.9666,-1.14 1.3053,0.02257 3.8,0.75999 3.8,0.75999"
             id="path13" />
          <path
             d="m 32.768,20.169 c 0,0 1.6713,-2.6574 3.1666,-3.42 1.9987,-1.0193 4.5969,-1.181 6.9666,-1.14 1.3053,0.02257 3.8,0.75999 3.8,0.75999"
             id="path14" />
          <path
             d="m 32.768,20.169 c 0,0 1.6713,-2.6574 3.1666,-3.42 1.9987,-1.0193 4.5969,-1.181 6.9666,-1.14 1.3053,0.02257 3.8,0.75999 3.8,0.75999"
             id="path15" />
        </g>
      </g>
      <ellipse
         transform="rotate(-12.762)"
         cx="36.194"
         cy="31.9"
         rx="6.2698998"
         ry="2.5966001"
         fill="#e00000"
         fill-rule="evenodd"
         stroke-width="0.36804"
         id="ellipse16"
         style="fill:#fa3a74;fill-opacity:1" />
      <ellipse
         transform="rotate(10.534)"
         cx="14.443"
         cy="19.988001"
         rx="6.2698998"
         ry="2.5966001"
         fill="#e00000"
         fill-rule="evenodd"
         stroke-width="0.36804"
         id="ellipse17"
         style="fill:#fa3a74;fill-opacity:1" />
    </g>
  </g>
</svg>
