<svg width="50.117mm" height="61.661mm" version="1.1" viewBox="0 0 50.117 61.661" xmlns="http://www.w3.org/2000/svg">
 <g transform="translate(-80.169 -117.74)">
  <g transform="matrix(.8632 0 0 .86337 53.93 90.281)">
   <path d="m57.404 31.805c-0.66988-0.0055-1.3363 0.0209-1.9932 0.08062-5.2546 0.47771-9.9119 3.1049-13.315 8.1804s-5.553 12.599-7.7623 21.555c-2.2093 8.9567-4.4783 19.346-3.8215 22.511s4.2397-0.89589 6.2699-2.0304c2.0302-1.1345 2.5079 0.65681 2.9259 2.5079 0.41798 1.851 0.77624 3.7618 1.851 3.1647 1.0748-0.59713 2.8658-3.7018 4.0003-6.2694s1.6123-4.598 2.8065-5.0757c1.1942-0.47767 3.105 0.59738 4.2395 2.4484s1.4928 4.4783 2.3885 6.8668c0.89567 2.3884 2.3283 4.5381 3.5822 4.3589 1.2539-0.17915 2.3288-2.6872 2.9259-5.195 0.59711-2.5079 0.71663-5.0155 1.6123-5.0751 0.89567-0.05969 2.5676 2.3286 5.0157 4.717 2.4482 2.3884 5.6722 4.7765 7.7024 4.6571 2.0302-0.11945 2.8664-2.7466 2.4484-6.9861-0.41799-4.2395-2.0898-10.091-2.6272-16.301-0.53738-6.21 0.05958-12.778-0.29869-18.032-0.35826-5.2545-1.6718-9.1954-5.2544-12.002-3.1349-2.4556-8.0067-4.0425-12.696-4.0809zm-8.1349 13.694a3.2244 3.5826 0 0 1 3.2246 3.5827 3.2244 3.5826 0 0 1-3.2246 3.5827 3.2244 3.5826 0 0 1-3.2246-3.5827 3.2244 3.5826 0 0 1 3.2246-3.5827zm16.105 1.0749a3.2244 3.5826 0 0 1 3.2241 3.5827 3.2244 3.5826 0 0 1-3.2241 3.5827 3.2244 3.5826 0 0 1-3.2246-3.5827 3.2244 3.5826 0 0 1 3.2246-3.5827z" fill="#73f10c" fill-rule="evenodd" stroke-width="1.4653"/>
   <path d="m67.031 44.472c-0.66988-0.0055-1.3363 0.0209-1.9932 0.08062-5.2546 0.47771-9.9119 3.1049-13.315 8.1804s-5.553 12.599-7.7623 21.555c-2.2093 8.9567-4.4783 19.346-3.8215 22.511s4.2397-0.89589 6.2699-2.0304c2.0302-1.1345 2.5079 0.65681 2.9259 2.5079 0.41798 1.851 0.77624 3.7618 1.851 3.1647 1.0748-0.59713 2.8658-3.7018 4.0003-6.2694s1.6123-4.598 2.8065-5.0757c1.1942-0.47767 3.105 0.59738 4.2395 2.4484s1.4928 4.4783 2.3885 6.8668c0.89567 2.3884 2.3283 4.5381 3.5822 4.3589 1.2539-0.17915 2.3288-2.6872 2.9259-5.195 0.59711-2.5079 0.71663-5.0155 1.6123-5.0751 0.89567-0.05969 2.5676 2.3286 5.0157 4.717 2.4482 2.3884 5.6722 4.7765 7.7024 4.6571 2.0302-0.11945 2.8664-2.7466 2.4484-6.9861-0.41799-4.2395-2.0898-10.091-2.6272-16.301-0.53738-6.21 0.05958-12.778-0.29869-18.032-0.35826-5.2545-1.6718-9.1954-5.2544-12.002-3.1349-2.4556-8.0067-4.0425-12.696-4.0809zm-8.1349 13.694a3.2244 3.5826 0 0 1 3.2246 3.5827 3.2244 3.5826 0 0 1-3.2246 3.5827 3.2244 3.5826 0 0 1-3.2246-3.5827 3.2244 3.5826 0 0 1 3.2246-3.5827zm16.105 1.0749a3.2244 3.5826 0 0 1 3.2241 3.5827 3.2244 3.5826 0 0 1-3.2241 3.5827 3.2244 3.5826 0 0 1-3.2246-3.5827 3.2244 3.5826 0 0 1 3.2246-3.5827z" fill="none" stroke="#fff" stroke-width=".88615"/>
  </g>
 </g>
</svg>
