<?xml version="1.0" encoding="UTF-8" standalone="no"?>
<svg
   width="400mm"
   height="400mm"
   version="1.1"
   viewBox="0 0 400 400"
   id="svg19"
   sodipodi:docname="halloween-bg.svg"
   inkscape:version="1.4 (e7c3feb, 2024-10-09)"
   xmlns:inkscape="http://www.inkscape.org/namespaces/inkscape"
   xmlns:sodipodi="http://sodipodi.sourceforge.net/DTD/sodipodi-0.dtd"
   xmlns="http://www.w3.org/2000/svg"
   xmlns:svg="http://www.w3.org/2000/svg">
  <defs
     id="defs19" />
  <sodipodi:namedview
     id="namedview19"
     pagecolor="#ffffff"
     bordercolor="#000000"
     borderopacity="0.25"
     inkscape:showpageshadow="2"
     inkscape:pageopacity="0.0"
     inkscape:pagecheckerboard="0"
     inkscape:deskcolor="#d1d1d1"
     inkscape:document-units="mm"
     inkscape:zoom="0.54834896"
     inkscape:cx="755.90551"
     inkscape:cy="755.90551"
     inkscape:window-width="1920"
     inkscape:window-height="1009"
     inkscape:window-x="0"
     inkscape:window-y="0"
     inkscape:window-maximized="1"
     inkscape:current-layer="g19" />
  <g
     stroke-linecap="round"
     stroke-linejoin="round"
     id="g19">
    <path
       d="m169.73 217.79c-1.978-0.69193-3.2388-0.7125-4.4997-0.73325 0.49011 1.2882 0.98019 2.5764 1.6533 3.9684s1.5291 2.8875 1.9385 4.5865c0.40946 1.699 0.37234 3.6016 0.33513 5.504 1.5944-0.0824 3.1887-0.16487 4.7458 0.21858s3.077 1.2328 3.5392 2.5112c0.46219 1.2785-0.13337 2.9859-0.55832 4.1146-0.42495 1.1287-0.67914 1.6786-0.0774 1.5692 0.60178-0.10938 2.0595-0.87777 3.4399-0.79539 1.3803 0.0824 2.6832 1.0154 4.1411 2.0426 1.2936 0.9114 2.7082 1.8997 3.9556 3.4152-0.0377 0.26352-0.0536 0.5298-0.0413 0.80373 0.0457 1.0172 0.47539 2.1414 1.8532 3.3798l0.0731 0.20055 1.1242 3.083 1.2837-1.5316c1.529 0.90101 3.3003 1.7154 4.771 2.1457l0.0498 1.8821 2.456-1.506c0.9132-0.0259 1.6674-0.27236 2.3224-0.69217 1.0523-0.31718 2.3572-0.88354 3.5915-1.2292 2.221-0.62205 4.1812-0.49723 5.9617-0.395 1.7805 0.10221 3.381 0.18175 4.5132 0.97564 1.1322 0.79389 1.796 2.3022 2.1992 2.762 0.40326 0.45987 0.54613-0.1288 0.91525-1.277 0.36907-1.1482 0.96447-2.8557 2.1215-3.5694 1.157-0.71379 2.8754-0.43373 4.3333 0.23433 1.4579 0.66806 2.6552 1.7241 3.8525 2.7801 1.1539-1.5129 2.308-3.0259 3.6852-4.1019 1.3772-1.0759 2.9776-1.7148 4.3703-2.3863 1.3928-0.67147 2.5776-1.3755 3.7626-2.0796-1.3338-1.0238-2.6674-2.0475-6.3214-2.8829-3.654-0.83542-9.6282-1.4825-14.287-1.2319-4.6591 0.25057-8.0028 1.3986-11.002 2.5472-1.0588 0.40544-2.0714 0.81286-3.0229 1.2557 0.39279-1.0711 0.75092-2.2089 0.7527-3.323 2e-3 -1.5335-0.66876-3.0201-1.309-4.0575-0.64021-1.0374-1.2492-1.6255-1.7205-1.3515-0.47132 0.27402-0.80511 1.4102-1.0706 2.3509-0.26546 0.94074-0.4627 1.686-1.0444 1.8276-0.58169 0.14156-1.5478-0.32059-2.5528-0.6711-1.005-0.35049-2.0488-0.58921-2.5013-0.99753-0.45253-0.40833-0.31364-0.98611-0.0787-1.7496 0.23497-0.7635 0.566-1.7127 0.74256-2.3087 0.17655-0.596 0.19859-0.83878-0.3247-0.8647-0.52328-0.0259-1.5919 0.1649-2.6644 0.63632-1.0725 0.47141-2.1488 1.2234-2.8525 2.0739-0.35534 0.4295-0.61543 0.88478-0.84718 1.3817-0.15649-0.27135-0.31384-0.54324-0.47658-0.81849-1.6347-2.7648-3.5394-5.7432-7.0322-8.8368-3.4928-3.0936-8.5736-6.302-11.955-7.9201-0.84527-0.40452-1.5842-0.7096-2.2436-0.94017zm31.651 24.36a1.774 1.774 0 0 1 1.0909 2.2592 1.774 1.774 0 0 1-2.2592 1.0909 1.774 1.774 0 0 1-1.0909-2.2592 1.774 1.774 0 0 1 2.2592-1.0909zm-6.7209-2.3266a1.774 1.774 0 0 1 1.0909 2.2592 1.774 1.774 0 0 1-2.2592 1.0906 1.774 1.774 0 0 1-1.091-2.259 1.774 1.774 0 0 1 2.2592-1.0909z"
       fill="#fafa16"
       fill-rule="evenodd"
       stroke-width="1.265"
       id="path1"
       style="opacity:0.7" />
    <path
       d="m-130.04 90.614c-1.453 0.27857-2.2299 0.71132-3.0069 1.144 0.75669 0.60866 1.5134 1.2174 2.4186 1.8244 0.90525 0.607 1.9589 1.2123 2.8123 2.0988 0.85338 0.88647 1.5065 2.0542 2.1594 3.2217 0.94388-0.61304 1.8877-1.2261 2.9744-1.5433 1.0866-0.31719 2.316-0.3385 3.0522 0.2741 0.7362 0.61263 0.97913 1.8591 1.1206 2.6941 0.14151 0.83502 0.18166 1.2584 0.51012 0.97958 0.32847-0.27888 0.94533-1.26 1.8171-1.6974 0.87178-0.43746 1.9984-0.33131 3.2531-0.22282 1.1132 0.0966 2.3277 0.19679 3.6274 0.6757 0.0706 0.17323 0.15543 0.34045 0.26027 0.50232 0.38919 0.6011 1.0507 1.1316 2.3316 1.3966l0.1159 0.0959 1.7812 1.474 0.23955-1.3828c1.2533 7e-3 2.6237-0.12447 3.6742-0.38265l0.69889 1.1246 0.9642-1.7812c0.54818-0.33822 0.92102-0.75411 1.1717-1.2401 0.52965-0.5641 1.125-1.3686 1.7555-2.0142 1.1347-1.1618 2.3755-1.7783 3.4985-2.345 1.1231-0.56671 2.1282-1.0836 3.1013-1.0017 0.97305 0.08194 1.9139 0.76286 2.3234 0.89953 0.40948 0.13667 0.2876-0.27101 0.10505-1.0981-0.18254-0.8271-0.42558-2.0736 0.02712-2.9153 0.45267-0.84174 1.601-1.2786 2.7281-1.388 1.1271-0.10942 2.233 0.10865 3.3389 0.32667 0.16693-1.3256 0.33396-2.6513 0.79244-3.7906 0.45848-1.1393 1.2084-2.0921 1.82-2.9914 0.6116-0.89931 1.0848-1.745 1.5579-2.5907-1.1778-0.15026-2.3553-0.30057-4.8824 0.48278-2.527 0.78337-6.4033 2.5004-9.158 4.2977-2.7548 1.7973-4.3879 3.6748-5.8108 5.4311-0.50226 0.61994-0.97559 1.2248-1.3991 1.8295-0.14068-0.78869-0.32623-1.6057-0.72084-2.2824-0.54315-0.93145-1.4809-1.5966-2.2401-2.0001-0.75923-0.40346-1.3398-0.54532-1.5301-0.21262-0.19035 0.33272 9e-3 1.1401 0.18155 1.8047 0.17211 0.66464 0.31642 1.1866 0.0117 1.4779-0.30476 0.29132-1.0586 0.35204-1.7965 0.49424-0.73793 0.1422-1.4598 0.36594-1.881 0.27794-0.42124-0.08798-0.54168-0.48766-0.66945-1.034-0.12776-0.54632-0.26285-1.2392-0.36676-1.6633-0.10392-0.42403-0.17671-0.57915-0.5053-0.41008-0.32861 0.16907-0.91309 0.66222-1.4003 1.327-0.48716 0.66479-0.87703 1.5012-1.0044 2.2659-0.0643 0.38613-0.0611 0.75429-0.0263 1.1377-0.1919-0.10944-0.38451-0.21883-0.5816-0.3284-1.9798-1.1005-4.2002-2.2354-7.4309-2.8794-3.2307-0.64392-7.4714-0.79674-10.11-0.58472-0.6596 0.053-1.219 0.12881-1.7033 0.22172zm27.971 3.6057a1.2528 1.2455 4e-7 0 1 1.4683 0.9858 1.2528 1.2455 4e-7 0 1-0.99153 1.4598 1.2528 1.2455 4e-7 0 1-1.4683-0.9858 1.2528 1.2455 4e-7 0 1 0.99153-1.4598zm-4.9286 0.96147a1.2528 1.2455 4e-7 0 1 1.4683 0.9858 1.2528 1.2455 4e-7 0 1-0.99155 1.4596 1.2528 1.2455 4e-7 0 1-1.4682-0.98562 1.2528 1.2455 4e-7 0 1 0.99152-1.4598z"
       fill="none"
       stroke="#fff"
       stroke-width=".765"
       id="path2" />
    <path
       d="m197.53 23.001c-0.68352-0.48575-1.2167-0.44911-1.3517-0.08485-0.18004 0.48569 0.34791 1.5536 0.78956 2.5174 0.44164 0.96374 0.79702 1.8234 0.89171 2.6757 0.0947 0.85237-0.0713 1.6974-0.59011 2.8199-0.51884 1.1225-1.3905 2.5224-2.3633 3.4588-0.97282 0.93638-2.0468 1.4092-3.4141 0.93429-1.3672-0.47486-3.0279-1.8974-4.0207-2.9842-0.99282-1.0868-1.3177-1.8378-3.1061-3.3058-1.7884-1.468-5.0403-3.6527-8.7948-3.2186-3.7546 0.43415-8.0117 3.4872-11.268 8.3754-3.2561 4.8882-5.511 11.611-3.8019 17.828 1.7091 6.2171 7.3822 11.928 13.815 16.248 6.4328 4.3199 13.625 7.2484 20.82 7.2091 7.1954-0.03926 14.393-3.0461 18.271-7.4562 3.8777-4.4101 4.4351-10.223 1.9611-14.965-2.474-4.7423-7.9789-8.414-11.41-10.418-3.4313-2.0043-4.7891-2.3413-5.0416-3.3477-0.25258-1.0064 0.59957-2.6819 1.2173-4.4779 0.61768-1.796 1.0013-3.7122 0.62891-5.7631-0.37229-2.0509-1.5-4.2364-2.508-5.3774-0.25199-0.28526-0.49676-0.50524-0.7246-0.66716zm2.7084 25.322-0.87395 4.8581-0.87418 4.8584-3.2869-2.0309-3.2868-2.0304 4.1608-2.8277zm-17.299-11.438-0.87396 4.8581-0.87397 4.8581-3.2868-2.0304-3.2869-2.0309 4.1606-2.8274zm21.128 26.173c0.59804 0.29574-0.0558 1.7799-1.0446 3.2675-1.0547 1.5869-2.4907 3.1775-4.0906 3.843-1.5999 0.66554-3.3635 0.40588-4.1952-0.33736-0.83173-0.74324-0.73126-1.9698-0.60535-3.2329 0.12592-1.2631 0.27711-2.5622 0.17165-2.798-0.10544-0.23581-0.46768 0.59149-1.4393 1.75-0.97159 1.1585-2.5525 2.6479-3.9604 2.9612-1.4078 0.31335-2.6426-0.54904-3.1768-1.4087-0.53424-0.85965-0.36769-1.7164-0.394-2.7616-0.0263-1.0452-0.24554-2.2788-1.0584-2.1982-0.81286 0.08054-2.2195 1.4755-3.5368 1.5819-1.3173 0.1064-2.545-1.0758-3.1664-1.8882-0.6213-0.81239-0.63599-1.255-0.54639-2.5434s0.28372-3.4225 0.20666-4.395c-0.0771-0.97254-0.42544-0.78355-1.2921 0.07003-0.86662 0.8536-2.2516 2.3718-3.2063 2.1912-0.95461-0.18064-1.4788-2.0602-1.5598-3.4138-0.081-1.3536 0.28124-2.1812-0.29976-2.5872-0.581-0.40595-2.1053-0.38986-2.549-1.4564-0.44369-1.0666 0.19326-3.2157 0.79031-5.2304 0.59704-2.0147 1.1548-3.8948 1.9383-3.7796 0.78399 0.11542 1.7944 2.2267 2.3948 3.9972 0.60035 1.7705 0.79049 3.2001 1.1646 3.5155 0.37408 0.31542 0.93238-0.48362 1.9377-0.37563 1.0054 0.10799 2.4577 1.1232 2.9964 2.9046 0.53868 1.7814 0.16349 4.3291 0.63556 4.6589 0.47207 0.32986 1.7914-1.5581 3.141-2.0202 1.3496-0.4621 2.7295 0.50203 3.399 2.483 0.66951 1.9809 0.62851 4.9782 1.6015 5.4419 0.973 0.4637 2.9599-1.6065 4.7921-2.2178 1.8322-0.6113 3.5094 0.23651 4.3779 1.5459 0.86851 1.3094 0.92828 3.0801 2.1152 3.315 1.1869 0.23487 3.5009-1.0661 4.3212-0.92531 0.0513 0.0089 0.097 0.0235 0.13706 0.04265z"
       fill="#f6943f"
       fill-rule="evenodd"
       stroke-width="1.265"
       id="path3"
       style="opacity:0.7" />
    <path
       d="m-82.874 7.7878c-0.58508-0.12102-0.92251 0.055565-0.90632 0.33187 0.02164 0.36834 0.67188 0.91367 1.236 1.4158 0.56414 0.50209 1.0422 0.96097 1.348 1.4898 0.30585 0.52882 0.43951 1.1275 0.42238 2.0083-0.01713 0.88078-0.18508 2.0435-0.55175 2.9329-0.36668 0.8894-0.93205 1.5054-1.9602 1.5873-1.0281 0.08195-2.519-0.37021-3.478-0.79465-0.959-0.42445-1.386-0.82126-2.9733-1.2664-1.5873-0.44516-4.3347-0.93867-6.6603 0.41999-2.3256 1.3587-4.2292 4.5694-4.9542 8.6904-0.72497 4.1209-0.27135 9.1518 2.624 12.717 2.8953 3.5654 8.2324 5.6653 13.667 6.6402 5.4343 0.9749 10.966 0.82475 15.65-1.262 4.6838-2.0867 8.5195-6.1097 9.787-10.097 1.2674-3.9872-0.03321-7.9383-3.0054-10.323-2.9722-2.3844-7.6155-3.2024-10.428-3.5268-2.8128-0.3244-3.7953-0.15526-4.2483-0.7393-0.45296-0.58404-0.37669-1.921-0.48786-3.2694-0.11121-1.3483-0.40955-2.7081-1.2398-3.9391-0.83017-1.231-2.1918-2.3335-3.1762-2.789-0.24612-0.11383-0.46881-0.18724-0.66385-0.22755zm9.0179 15.74 0.82076 3.419 0.8207 3.4192-2.7262-0.3831-2.7261-0.38278 1.9053-3.0362zm-14.563-2.5051 0.82076 3.419 0.82076 3.419-2.726-0.38279-2.7263-0.38311 1.9052-3.0359zm21.281 11.019c0.47492 0.02163 0.47324 1.1769 0.25405 2.4304-0.23382 1.3371-0.71538 2.7859-1.5687 3.6783-0.85335 0.89238-2.0785 1.2282-2.834 0.98168-0.75552-0.24654-1.0412-1.0753-1.3207-1.9352-0.27948-0.85988-0.55281-1.7505-0.68915-1.8741-0.13633-0.12357-0.13578 0.51976-0.43804 1.5537-0.30187 1.0341-0.90737 2.4582-1.7363 3.0658-0.8289 0.60766-1.8815 0.39887-2.4762-0.0088-0.59474-0.40765-0.73138-1.0142-1.0478-1.6883-0.31643-0.67416-0.8127-1.416-1.32-1.1306-0.50734 0.28538-1.0258 1.5981-1.8549 2.0449-0.82908 0.44673-1.9687 0.02732-2.6067-0.32458-0.63802-0.35189-0.77434-0.63639-1.0848-1.5024s-0.79484-2.3136-1.1236-2.9258c-0.32876-0.61225-0.50197-0.3892-0.82304 0.41579-0.32105 0.80499-0.79009 2.192-1.4647 2.3476-0.67462 0.15566-1.5548-0.92015-1.9953-1.7798-0.44045-0.85966-0.44103-1.5032-0.93638-1.6016-0.49535-0.09832-1.4854 0.34878-2.0803-0.21977-0.5949-0.56855-0.79464-2.1527-0.98193-3.6378s-0.36145-2.8712 0.18256-3.0204c0.54461-0.14928 1.8085 0.93833 2.7072 1.9211s1.4321 1.8608 1.7665 1.9594c0.33441 0.09857 0.46991-0.58251 1.1568-0.80006 0.68692-0.21755 1.9253 0.02854 2.7868 1.0362 0.86157 1.0076 1.3462 2.7767 1.7487 2.8567 0.40249 0.07991 0.72278-1.5294 1.4711-2.2174 0.74832-0.688 1.9248-0.45443 2.9288 0.64585 1.0041 1.1002 1.8355 3.0669 2.6032 3.0906 0.76767 0.02373 1.4714-1.8957 2.4919-2.8192 1.0205-0.92355 2.3576-0.85101 3.2992-0.24578 0.94163 0.60522 1.4876 1.7431 2.3294 1.5562 0.84172-0.18679 1.9791-1.6982 2.5547-1.8413 0.03603-0.0086 0.06993-0.01288 0.10164-0.01184z"
       fill="none"
       stroke="#fff"
       stroke-width=".765"
       id="path4" />
    <g
       transform="matrix(.8632 0 0 .86337 14.093 7.4115)"
       id="g6"
       style="opacity:0.7">
      <path
         d="m57.404 31.805c-0.66988-0.0055-1.3363 0.0209-1.9932 0.08062-5.2546 0.47771-9.9119 3.1049-13.315 8.1804s-5.553 12.599-7.7623 21.555c-2.2093 8.9567-4.4783 19.346-3.8215 22.511s4.2397-0.89589 6.2699-2.0304c2.0302-1.1345 2.5079 0.65681 2.9259 2.5079 0.41798 1.851 0.77624 3.7618 1.851 3.1647 1.0748-0.59713 2.8658-3.7018 4.0003-6.2694 1.1345-2.5676 1.6123-4.598 2.8065-5.0757 1.1942-0.47767 3.105 0.59738 4.2395 2.4484s1.4928 4.4783 2.3885 6.8668c0.89567 2.3884 2.3283 4.5381 3.5822 4.3589 1.2539-0.17915 2.3288-2.6872 2.9259-5.195 0.59711-2.5079 0.71663-5.0155 1.6123-5.0751 0.89567-0.05969 2.5676 2.3286 5.0157 4.717 2.4482 2.3884 5.6722 4.7765 7.7024 4.6571 2.0302-0.11945 2.8664-2.7466 2.4484-6.9861-0.41799-4.2395-2.0898-10.091-2.6272-16.301-0.53738-6.21 0.05958-12.778-0.29869-18.032-0.35826-5.2545-1.6718-9.1954-5.2544-12.002-3.1349-2.4556-8.0067-4.0425-12.696-4.0809zm-8.1349 13.694a3.2244 3.5826 0 0 1 3.2246 3.5827 3.2244 3.5826 0 0 1-3.2246 3.5827 3.2244 3.5826 0 0 1-3.2246-3.5827 3.2244 3.5826 0 0 1 3.2246-3.5827zm16.105 1.0749a3.2244 3.5826 0 0 1 3.2241 3.5827 3.2244 3.5826 0 0 1-3.2241 3.5827 3.2244 3.5826 0 0 1-3.2246-3.5827 3.2244 3.5826 0 0 1 3.2246-3.5827z"
         fill="#73f10c"
         fill-rule="evenodd"
         stroke-width="1.4653"
         id="path5" />
      <path
         d="m67.031 44.472c-0.66988-0.0055-1.3363 0.0209-1.9932 0.08062-5.2546 0.47771-9.9119 3.1049-13.315 8.1804s-5.553 12.599-7.7623 21.555c-2.2093 8.9567-4.4783 19.346-3.8215 22.511s4.2397-0.89589 6.2699-2.0304c2.0302-1.1345 2.5079 0.65681 2.9259 2.5079 0.41798 1.851 0.77624 3.7618 1.851 3.1647 1.0748-0.59713 2.8658-3.7018 4.0003-6.2694 1.1345-2.5676 1.6123-4.598 2.8065-5.0757 1.1942-0.47767 3.105 0.59738 4.2395 2.4484s1.4928 4.4783 2.3885 6.8668c0.89567 2.3884 2.3283 4.5381 3.5822 4.3589 1.2539-0.17915 2.3288-2.6872 2.9259-5.195 0.59711-2.5079 0.71663-5.0155 1.6123-5.0751 0.89567-0.05969 2.5676 2.3286 5.0157 4.717 2.4482 2.3884 5.6722 4.7765 7.7024 4.6571 2.0302-0.11945 2.8664-2.7466 2.4484-6.9861-0.41799-4.2395-2.0898-10.091-2.6272-16.301-0.53738-6.21 0.05958-12.778-0.29869-18.032-0.35826-5.2545-1.6718-9.1954-5.2544-12.002-3.1349-2.4556-8.0067-4.0425-12.696-4.0809zm-8.1349 13.694a3.2244 3.5826 0 0 1 3.2246 3.5827 3.2244 3.5826 0 0 1-3.2246 3.5827 3.2244 3.5826 0 0 1-3.2246-3.5827 3.2244 3.5826 0 0 1 3.2246-3.5827zm16.105 1.0749a3.2244 3.5826 0 0 1 3.2241 3.5827 3.2244 3.5826 0 0 1-3.2241 3.5827 3.2244 3.5826 0 0 1-3.2246-3.5827 3.2244 3.5826 0 0 1 3.2246-3.5827z"
         fill="none"
         stroke="#fff"
         stroke-width=".88615"
         id="path6" />
    </g>
    <g
       transform="rotate(-19.232 447.43 -382.28)"
       id="g8"
       style="opacity:0.7">
      <path
         d="m57.404 31.805c-0.66988-0.0055-1.3363 0.0209-1.9932 0.08062-5.2546 0.47771-9.9119 3.1049-13.315 8.1804s-5.553 12.599-7.7623 21.555c-2.2093 8.9567-4.4783 19.346-3.8215 22.511s4.2397-0.89589 6.2699-2.0304c2.0302-1.1345 2.5079 0.65681 2.9259 2.5079 0.41798 1.851 0.77624 3.7618 1.851 3.1647 1.0748-0.59713 2.8658-3.7018 4.0003-6.2694 1.1345-2.5676 1.6123-4.598 2.8065-5.0757 1.1942-0.47767 3.105 0.59738 4.2395 2.4484s1.4928 4.4783 2.3885 6.8668c0.89567 2.3884 2.3283 4.5381 3.5822 4.3589 1.2539-0.17915 2.3288-2.6872 2.9259-5.195 0.59711-2.5079 0.71663-5.0155 1.6123-5.0751 0.89567-0.05969 2.5676 2.3286 5.0157 4.717 2.4482 2.3884 5.6722 4.7765 7.7024 4.6571 2.0302-0.11945 2.8664-2.7466 2.4484-6.9861-0.41799-4.2395-2.0898-10.091-2.6272-16.301-0.53738-6.21 0.05958-12.778-0.29869-18.032-0.35826-5.2545-1.6718-9.1954-5.2544-12.002-3.1349-2.4556-8.0067-4.0425-12.696-4.0809zm-8.1349 13.694a3.2244 3.5826 0 0 1 3.2246 3.5827 3.2244 3.5826 0 0 1-3.2246 3.5827 3.2244 3.5826 0 0 1-3.2246-3.5827 3.2244 3.5826 0 0 1 3.2246-3.5827zm16.105 1.0749a3.2244 3.5826 0 0 1 3.2241 3.5827 3.2244 3.5826 0 0 1-3.2241 3.5827 3.2244 3.5826 0 0 1-3.2246-3.5827 3.2244 3.5826 0 0 1 3.2246-3.5827z"
         fill="#73f10c"
         fill-rule="evenodd"
         stroke-width="1.265"
         id="path7" />
      <path
         d="m67.031 44.472c-0.66988-0.0055-1.3363 0.0209-1.9932 0.08062-5.2546 0.47771-9.9119 3.1049-13.315 8.1804s-5.553 12.599-7.7623 21.555c-2.2093 8.9567-4.4783 19.346-3.8215 22.511s4.2397-0.89589 6.2699-2.0304c2.0302-1.1345 2.5079 0.65681 2.9259 2.5079 0.41798 1.851 0.77624 3.7618 1.851 3.1647 1.0748-0.59713 2.8658-3.7018 4.0003-6.2694 1.1345-2.5676 1.6123-4.598 2.8065-5.0757 1.1942-0.47767 3.105 0.59738 4.2395 2.4484s1.4928 4.4783 2.3885 6.8668c0.89567 2.3884 2.3283 4.5381 3.5822 4.3589 1.2539-0.17915 2.3288-2.6872 2.9259-5.195 0.59711-2.5079 0.71663-5.0155 1.6123-5.0751 0.89567-0.05969 2.5676 2.3286 5.0157 4.717 2.4482 2.3884 5.6722 4.7765 7.7024 4.6571 2.0302-0.11945 2.8664-2.7466 2.4484-6.9861-0.41799-4.2395-2.0898-10.091-2.6272-16.301-0.53738-6.21 0.05958-12.778-0.29869-18.032-0.35826-5.2545-1.6718-9.1954-5.2544-12.002-3.1349-2.4556-8.0067-4.0425-12.696-4.0809zm-8.1349 13.694a3.2244 3.5826 0 0 1 3.2246 3.5827 3.2244 3.5826 0 0 1-3.2246 3.5827 3.2244 3.5826 0 0 1-3.2246-3.5827 3.2244 3.5826 0 0 1 3.2246-3.5827zm16.105 1.0749a3.2244 3.5826 0 0 1 3.2241 3.5827 3.2244 3.5826 0 0 1-3.2241 3.5827 3.2244 3.5826 0 0 1-3.2246-3.5827 3.2244 3.5826 0 0 1 3.2246-3.5827z"
         fill="none"
         stroke="#fff"
         stroke-width=".765"
         id="path8" />
    </g>
    <path
       d="m97.819 141.36c-1.9037 0.8758-2.8251 1.7366-3.7468 2.5974 1.2473 0.58651 2.4945 1.173 3.9455 1.7071 1.451 0.53405 3.1055 1.0157 4.58 1.9538 1.4746 0.93811 2.7692 2.3328 4.0635 3.7274 1.0899-1.1666 2.1798-2.3331 3.5665-3.1386 1.3867-0.80552 3.0701-1.25 4.2905-0.65106s1.9777 2.241 2.4558 3.3482c0.4781 1.1072 0.67707 1.6794 1.0341 1.1828 0.35703-0.49662 0.87227-2.0619 1.9226-2.9612 1.0504-0.89936 2.6358-1.1328 4.3981-1.4063 1.5637-0.24259 3.2679-0.51398 5.2179-0.2898 0.15588 0.21579 0.32933 0.41845 0.52847 0.60696 0.7393 0.70008 1.8292 1.2106 3.6806 1.1448l0.19191 0.0935 2.95 1.4376-0.14004-1.9936c1.7259-0.41358 3.5659-1.0578 4.923-1.7695l1.3429 1.3196 0.72127-2.7892c0.63904-0.65286 1.0106-1.354 1.1903-2.1109 0.53688-0.95903 1.0824-2.2727 1.7304-3.3786 1.166-1.99 2.6631-3.2615 4.0152-4.4245 1.3521-1.163 2.5589-2.2173 3.9249-2.4324 1.366-0.21509 2.891 0.40917 3.5006 0.46 0.60952 0.0508 0.3035-0.47195-0.2283-1.5544-0.53183-1.0824-1.2893-2.7245-0.95246-4.0416 0.33675-1.3171 1.7677-2.309 3.2806-2.8408 1.5129-0.53181 3.1078-0.60346 4.7026-0.67517-0.22045-1.8899-0.44085-3.78-0.19712-5.5106 0.24374-1.7306 0.95149-3.3017 1.4873-4.752 0.53578-1.4504 0.89937-2.7798 1.263-4.1093-1.6707 0.18968-3.3412 0.37928-6.5505 2.3158-3.2093 1.9366-7.9571 5.6199-11.135 9.0358-3.1782 3.4159-4.7868 6.5642-6.1473 9.4737-0.48025 1.027-0.92586 2.0234-1.303 3.0029-0.46123-1.0434-0.99377-2.1108-1.7662-2.9137-1.0632-1.1051-2.5786-1.7085-3.7597-2.0103-1.1811-0.3018-2.0276-0.30205-2.1765 0.22243-0.14882 0.52448 0.40007 1.5738 0.86239 2.435 0.46233 0.86123 0.83797 1.5344 0.51776 2.0403-0.32023 0.50584-1.3363 0.84428-2.3029 1.29-0.96653 0.44579-1.8833 0.99891-2.4925 1.0194-0.60918 0.0205-0.9105-0.49169-1.2717-1.2042-0.36118-0.71253-0.7822-1.6254-1.0691-2.1768-0.28688-0.55143-0.43963-0.74142-0.83414-0.39666-0.39449 0.34478-1.0309 1.2242-1.4751 2.3082s-0.69646 2.3725-0.61209 3.4732c0.0426 0.55581 0.17165 1.064 0.35002 1.5825-0.30105-0.0866-0.60308-0.17292-0.91133-0.25794-3.0963-0.854-6.5352-1.6743-11.197-1.4745-4.6615 0.19982-10.545 1.4199-14.102 2.6038-0.88911 0.29596-1.6327 0.58965-2.2672 0.88165zm39.691-4.4541a1.774 1.774 0 0 1 2.3539 0.86796 1.774 1.774 0 0 1-0.86795 2.3539 1.774 1.774 0 0 1-2.3539-0.86794 1.774 1.774 0 0 1 0.86795-2.3539zm-6.4515 2.9935a1.774 1.774 0 0 1 2.3539 0.86794 1.774 1.774 0 0 1-0.86807 2.3537 1.774 1.774 0 0 1-2.3538-0.86772 1.774 1.774 0 0 1 0.86796-2.3539z"
       fill="#fafa16"
       fill-rule="evenodd"
       stroke-width="1.265"
       id="path9"
       style="opacity:0.7" />
    <path
       d="m-71.601 66.364c-1.2035-0.19716-1.9272-0.08248-2.651 0.03212 0.41369 0.68722 0.82738 1.3744 1.3565 2.1026 0.52916 0.72817 1.1737 1.4972 1.5837 2.4274 0.41002 0.93015 0.58552 2.0214 0.76094 3.1126 0.90393-0.20699 1.8078-0.41403 2.7386-0.35096 0.93081 0.06302 1.8885 0.39609 2.2852 1.0806 0.39671 0.68446 0.23244 1.7202 0.10595 2.408-0.12649 0.68781-0.2151 1.0276 0.11799 0.90475 0.33309-0.12283 1.0879-0.7083 1.8864-0.79964 0.79848-0.09131 1.6406 0.31136 2.5812 0.7523 0.83454 0.39126 1.7463 0.8143 2.6169 1.5556 0.0057 0.15444 0.02405 0.30823 0.05948 0.46357 0.13137 0.57685 0.49351 1.1764 1.4101 1.7461l0.06262 0.1073 0.96216 1.6496 0.5763-1.0043c0.96821 0.36169 2.0661 0.64957 2.9523 0.74808l0.22314 1.0709 1.2499-1.1072c0.51994-0.10643 0.9261-0.32291 1.2575-0.62858 0.56944-0.28684 1.2576-0.74145 1.9283-1.0628 1.2067-0.57832 2.3415-0.70356 3.371-0.82368 1.0295-0.12011 1.9537-0.2352 2.6838 0.1051 0.73005 0.34025 1.2659 1.1359 1.5442 1.3583 0.27834 0.22243 0.29921-0.12842 0.39171-0.82176 0.09249-0.69334 0.25667-1.7291 0.84504-2.2532 0.58836-0.52402 1.6007-0.5363 2.5042-0.30065 0.90344 0.23568 1.6978 0.71927 2.4923 1.2028 0.50388-0.98057 1.0079-1.9612 1.6847-2.7144 0.67693-0.75314 1.5267-1.2789 2.2543-1.8024 0.72764-0.5235 1.3329-1.0448 1.938-1.5663-0.86921-0.45147-1.7383-0.9029-3.9158-1.014-2.1776-0.1111-5.6635 0.11816-8.3039 0.72867-2.6405 0.61048-4.4354 1.6021-6.0332 2.5595-0.56404 0.33794-1.1014 0.67237-1.6002 1.021 0.11403-0.65165 0.20132-1.338 0.08714-1.975-0.15716-0.87682-0.69502-1.6593-1.1687-2.1881-0.47367-0.5288-0.88298-0.80389-1.1244-0.6-0.24128 0.20402-0.31494 0.88686-0.36958 1.4512-0.05464 0.56438-0.09046 1.0102-0.40872 1.1494-0.31825 0.13928-0.91897-0.02802-1.5304-0.12759-0.61142-0.09956-1.2335-0.13136-1.5347-0.31938-0.30119-0.18806-0.28146-0.53223-0.22595-0.99223 0.05552-0.46001 0.14682-1.0358 0.18624-1.3942 0.03941-0.35839 0.02692-0.49938-0.27524-0.46171-0.30214 0.03775-0.894 0.2539-1.459 0.63093-0.56502 0.37703-1.1033 0.91479-1.418 1.4716-0.15896 0.28115-0.26069 0.5675-0.34196 0.87478-0.11765-0.1394-0.23578-0.27906-0.35738-0.42008-1.2214-1.4165-2.6195-2.928-4.9383-4.3461-2.3188-1.4181-5.5583-2.7426-7.6606-3.3284-0.52557-0.14646-0.98003-0.24676-1.3812-0.31242zm20.633 10.75a1.0334 1.0278 33.889 0 1 0.85793 1.1821 1.0334 1.0278 33.889 0 1-1.1802 0.85013 1.0334 1.0278 33.889 0 1-0.85793-1.182 1.0334 1.0278 33.889 0 1 1.1802-0.85013zm-4.0869-0.65591a1.0334 1.0278 33.889 0 1 0.85793 1.182 1.0334 1.0278 33.889 0 1-1.1801 0.84998 1.0334 1.0278 33.889 0 1-0.85795-1.1819 1.0334 1.0278 33.889 0 1 1.1802-0.85013z"
       fill="none"
       stroke="#fff"
       stroke-width=".765"
       id="path10" />
    <path
       d="m56.64 183.01c-0.83854-1e-3 -1.2524 0.33698-1.152 0.71226 0.1339 0.50038 1.1821 1.0665 2.0996 1.5976 0.91753 0.53103 1.7045 1.027 2.2745 1.6677 0.57005 0.64073 0.92318 1.4262 1.1488 2.642 0.22564 1.2159 0.32372 2.862 0.0713 4.1885-0.25241 1.3264-0.85537 2.3331-2.2455 2.7361-1.3901 0.40301-3.5675 0.20236-5.0059-0.11039-1.4384-0.31277-2.1377-0.73777-4.4456-0.90159-2.3079-0.1638-6.2243-0.0665-9.0368 2.4584-2.8125 2.5249-4.521 7.4772-4.3517 13.348 0.16928 5.8709 2.2162 12.66 7.205 16.745 4.9888 4.0847 12.92 5.4647 20.666 5.2704 7.7462-0.19428 15.308-1.9629 21.156-6.1548 5.8483-4.1919 9.9829-10.807 10.597-16.647 0.61435-5.8402-2.2915-10.906-7.0519-13.345-4.7604-2.4391-11.375-2.2524-15.333-1.9041-3.9585 0.34833-5.2612 0.85836-6.0491 0.18325-0.78791-0.67512-1.0613-2.535-1.5956-4.3575-0.53434-1.8225-1.3292-3.6078-2.8187-5.066-1.4895-1.4582-3.6731-2.5894-5.1553-2.9377-0.37054-0.0871-0.69743-0.12506-0.97694-0.12545zm16.85 19.096 2.0955 4.4692 2.0956 4.4696-3.8561 0.24318-3.8557 0.24355 1.7602-4.7128zm-20.728 0.66835 2.0956 4.4692 2.0955 4.4692-3.8557 0.24357-3.8561 0.24317 1.7601-4.7124zm32.371 9.1403c0.65894-0.10445 0.98348 1.4845 1.0368 3.27 0.05686 1.9045-0.19522 4.0326-1.1158 5.5006-0.92062 1.468-2.5097 2.2757-3.6181 2.1501-1.1083-0.12559-1.7355-1.1845-2.363-2.2878-0.62747-1.1034-1.2552-2.2508-1.4776-2.3822-0.22236-0.13145-0.03964 0.753-0.16261 2.26-0.12296 1.507-0.55187 3.6362-1.5194 4.7058-0.96755 1.0696-2.4736 1.0798-3.4065 0.68726-0.93291-0.39256-1.2923-1.1879-1.918-2.0255-0.62572-0.83758-1.5178-1.7174-2.1345-1.1817-0.61668 0.53566-0.95798 2.4871-1.9713 3.3355-1.0133 0.84839-2.6986 0.59357-3.6752 0.28991-0.97661-0.30367-1.2445-0.65634-1.9163-1.7594-0.67177-1.1031-1.7472-2.9566-2.3723-3.7056-0.62514-0.74899-0.80014-0.39336-1.0138 0.80413-0.21361 1.1975-0.46598 3.237-1.3493 3.6416-0.88334 0.40451-2.3976-0.82608-3.2463-1.8837-0.84869-1.0576-1.0316-1.9424-1.7403-1.9377-0.70875 5e-3 -1.9432 0.89906-2.9219 0.28531-0.97864-0.61373-1.7014-2.7355-2.379-4.7246-0.67761-1.989-1.3095-3.8456-0.60356-4.2045 0.70642-0.35907 2.7515 0.77943 4.265 1.877 1.5134 1.0975 2.4951 2.1541 2.9827 2.1952 0.48759 0.0411 0.48117-0.93365 1.3639-1.4268 0.88275-0.49313 2.6547-0.50449 4.1241 0.63763 1.4694 1.1421 2.6362 3.4377 3.2121 3.434 0.57588-4e-3 0.56088-2.307 1.395-3.4643 0.83406-1.1573 2.5174-1.1684 4.2089 0.0609 1.6915 1.2292 3.3909 3.6985 4.4529 3.5143 1.062-0.18417 1.4863-3.022 2.6279-4.5801 1.1415-1.558 3.0002-1.8359 4.4658-1.2697 1.4656 0.56624 2.5382 1.9765 3.6424 1.482 1.1042-0.49456 2.2401-2.8939 2.9909-3.2532 0.04699-0.0224 0.09275-0.0369 0.13649-0.0444z"
       fill="#f6943f"
       fill-rule="evenodd"
       stroke-width="1.265"
       id="path11"
       style="opacity:0.7" />
    <path
       d="m-67.478 118.44c-0.6038-0.28526-1.0166-0.18222-1.0715 0.12216-0.07311 0.40574 0.4902 1.169 0.97131 1.8626 0.48109 0.69361 0.88 1.3177 1.0735 1.9724 0.19352 0.65475 0.18173 1.3401-0.06785 2.2922-0.2496 0.95209-0.73694 2.1708-1.3685 3.0403-0.63152 0.86954-1.4072 1.3899-2.5455 1.2086-1.1382-0.18132-2.6391-1.0643-3.5695-1.7774-0.93039-0.71312-1.2902-1.2564-2.8976-2.1571-1.6074-0.90078-4.4623-2.1591-7.3447-1.2949-2.8824 0.8642-5.7922 3.8509-7.6604 8.1359s-2.6947 9.8682-0.48476 14.502c2.21 4.6335 7.4565 8.3173 13.104 10.805 5.6473 2.4875 11.695 3.7787 17.33 2.7438 5.6349-1.0349 10.856-4.3958 13.279-8.393 2.4224-3.9972 2.0457-8.6303-0.55748-12.001-2.6032-3.3711-7.4323-5.4802-10.403-6.572-2.9703-1.0918-4.0818-1.1664-4.4207-1.9198-0.33885-0.7534 0.09459-2.1854 0.32736-3.679 0.2328-1.4936 0.2653-3.0488-0.3137-4.6041-0.57894-1.5552-1.7688-3.1105-2.7187-3.864-0.23747-0.18838-0.46014-0.32661-0.6614-0.4217zm5.6676 19.466-0.0051 3.929-0.0052 3.9293-2.8609-1.1328-2.8607-1.1324 2.8658-2.7966zm-15.162-6.5494-0.0051 3.929-0.0051 3.929-2.8607-1.1324-2.8609-1.1328 2.8657-2.7964zm20.226 17.562c0.51019 0.14827 0.2054 1.4026-0.36147 2.7064-0.60463 1.3907-1.5077 2.8377-2.6686 3.5825-1.161 0.74482-2.5798 0.78744-3.3358 0.32111-0.75602-0.46637-0.84895-1.4416-0.92709-2.449-0.07808-1.0074-0.14141-2.0466-0.25709-2.2166-0.11569-0.17006-0.28382 0.52879-0.88328 1.5723-0.59945 1.0435-1.6303 2.4312-2.69 2.8733-1.0597 0.44206-2.1484-0.0615-2.6875-0.66055-0.53911-0.59912-0.52852-1.2937-0.69538-2.1091-0.16691-0.81539-0.51148-1.7515-1.1374-1.575-0.62593 0.17651-1.5333 1.466-2.551 1.7332-1.0177 0.26724-2.1456-0.48789-2.7464-1.0378-0.60074-0.54993-0.67422-0.89476-0.78432-1.9169-0.11011-1.0222-0.25666-2.7216-0.4532-3.473-0.19657-0.75137-0.44317-0.55466-1.003 0.2352-0.55984 0.78988-1.433 2.1729-2.2066 2.1646-0.7736-8e-3 -1.4475-1.4081-1.7005-2.4576-0.25302-1.0494-0.08484-1.7486-0.59715-1.9856-0.51225-0.23704-1.7049-0.0117-2.202-0.78561-0.4971-0.77389-0.29862-2.5469-0.11261-4.2091 0.18601-1.6622 0.36006-3.2134 0.99038-3.2324 0.63071-0.019 1.7183 1.4945 2.4368 2.7982 0.71843 1.3037 1.0676 2.3975 1.405 2.5924 0.33739 0.19497 0.66319-0.50911 1.4664-0.5648 0.8032-0.0557 2.0838 0.53716 2.7554 1.858 0.67163 1.3208 0.73413 3.3697 1.1503 3.5623 0.41623 0.19262 1.1862-1.471 2.1795-2.0215 0.99328-0.55047 2.2099 0.0125 3.012 1.4714 0.8021 1.4589 1.1895 3.8134 2.0171 4.041 0.82763 0.22759 2.0954-1.672 3.446-2.4068 1.3507-0.73475 2.7841-0.30442 3.6482 0.60043 0.8641 0.90489 1.1588 2.2842 2.1221 2.3026 0.9633 0.0184 2.5951-1.3241 3.2578-1.3282 0.04149-4.2e-4 0.07931 5e-3 0.11338 0.0147z"
       fill="none"
       stroke="#fff"
       stroke-width=".765"
       id="path12" />
    <g
       transform="matrix(.76437 .24478 -.2447 .76462 299.13 235.3)"
       id="g14"
       style="opacity:0.7">
      <path
         d="m57.404 31.805c-0.66988-0.0055-1.3363 0.0209-1.9932 0.08062-5.2546 0.47771-9.9119 3.1049-13.315 8.1804s-5.553 12.599-7.7623 21.555c-2.2093 8.9567-4.4783 19.346-3.8215 22.511s4.2397-0.89589 6.2699-2.0304c2.0302-1.1345 2.5079 0.65681 2.9259 2.5079 0.41798 1.851 0.77624 3.7618 1.851 3.1647 1.0748-0.59713 2.8658-3.7018 4.0003-6.2694 1.1345-2.5676 1.6123-4.598 2.8065-5.0757 1.1942-0.47767 3.105 0.59738 4.2395 2.4484s1.4928 4.4783 2.3885 6.8668c0.89567 2.3884 2.3283 4.5381 3.5822 4.3589 1.2539-0.17915 2.3288-2.6872 2.9259-5.195 0.59711-2.5079 0.71663-5.0155 1.6123-5.0751 0.89567-0.05969 2.5676 2.3286 5.0157 4.717 2.4482 2.3884 5.6722 4.7765 7.7024 4.6571 2.0302-0.11945 2.8664-2.7466 2.4484-6.9861-0.41799-4.2395-2.0898-10.091-2.6272-16.301-0.53738-6.21 0.05958-12.778-0.29869-18.032-0.35826-5.2545-1.6718-9.1954-5.2544-12.002-3.1349-2.4556-8.0067-4.0425-12.696-4.0809zm-8.1349 13.694a3.2244 3.5826 0 0 1 3.2246 3.5827 3.2244 3.5826 0 0 1-3.2246 3.5827 3.2244 3.5826 0 0 1-3.2246-3.5827 3.2244 3.5826 0 0 1 3.2246-3.5827zm16.105 1.0749a3.2244 3.5826 0 0 1 3.2241 3.5827 3.2244 3.5826 0 0 1-3.2241 3.5827 3.2244 3.5826 0 0 1-3.2246-3.5827 3.2244 3.5826 0 0 1 3.2246-3.5827z"
         fill="#73f10c"
         fill-rule="evenodd"
         stroke-width="1.5759"
         id="path13" />
      <path
         d="m67.031 44.472c-0.66988-0.0055-1.3363 0.0209-1.9932 0.08062-5.2546 0.47771-9.9119 3.1049-13.315 8.1804s-5.553 12.599-7.7623 21.555c-2.2093 8.9567-4.4783 19.346-3.8215 22.511s4.2397-0.89589 6.2699-2.0304c2.0302-1.1345 2.5079 0.65681 2.9259 2.5079 0.41798 1.851 0.77624 3.7618 1.851 3.1647 1.0748-0.59713 2.8658-3.7018 4.0003-6.2694 1.1345-2.5676 1.6123-4.598 2.8065-5.0757 1.1942-0.47767 3.105 0.59738 4.2395 2.4484s1.4928 4.4783 2.3885 6.8668c0.89567 2.3884 2.3283 4.5381 3.5822 4.3589 1.2539-0.17915 2.3288-2.6872 2.9259-5.195 0.59711-2.5079 0.71663-5.0155 1.6123-5.0751 0.89567-0.05969 2.5676 2.3286 5.0157 4.717 2.4482 2.3884 5.6722 4.7765 7.7024 4.6571 2.0302-0.11945 2.8664-2.7466 2.4484-6.9861-0.41799-4.2395-2.0898-10.091-2.6272-16.301-0.53738-6.21 0.05958-12.778-0.29869-18.032-0.35826-5.2545-1.6718-9.1954-5.2544-12.002-3.1349-2.4556-8.0067-4.0425-12.696-4.0809zm-8.1349 13.694a3.2244 3.5826 0 0 1 3.2246 3.5827 3.2244 3.5826 0 0 1-3.2246 3.5827 3.2244 3.5826 0 0 1-3.2246-3.5827 3.2244 3.5826 0 0 1 3.2246-3.5827zm16.105 1.0749a3.2244 3.5826 0 0 1 3.2241 3.5827 3.2244 3.5826 0 0 1-3.2241 3.5827 3.2244 3.5826 0 0 1-3.2246-3.5827 3.2244 3.5826 0 0 1 3.2246-3.5827z"
         fill="none"
         stroke="#fff"
         stroke-width=".95302"
         id="path14" />
    </g>
    <g
       fill-rule="evenodd"
       stroke-width="1.265"
       id="g18">
      <path
         d="m307.74 19.537c-1.5906-0.71279-2.6206-0.78508-3.6506-0.85754 0.3514 1.1913 0.70279 2.3826 1.1998 3.676 0.49707 1.2934 1.1396 2.6886 1.4094 4.2497 0.26975 1.5612 0.16663 3.2883 0.0634 5.0152 1.3066-0.0071 2.6132-0.01424 3.8716 0.40038 1.2584 0.41461 2.4685 1.2509 2.7974 2.4322 0.32894 1.1813-0.22327 2.7074-0.61386 3.7148-0.3906 1.0075-0.61944 1.4963-0.12327 1.4225 0.49616-0.0738 1.7174-0.70998 2.8427-0.57645 1.1254 0.13352 2.1548 1.0367 3.3074 2.032 1.0227 0.8831 2.1414 1.8412 3.1032 3.2713-0.0409 0.23783-0.0642 0.47909-0.0645 0.72852-2e-3 0.92613 0.30674 1.9659 1.3857 3.1497l0.0521 0.18533 0.80112 2.8491 1.1081-1.3371c1.2156 0.88367 2.6325 1.6989 3.8184 2.1525l-0.0313 1.7122 2.0655-1.2639c0.74757 0.01525 1.3736-0.17658 1.9251-0.53018 0.87245-0.24345 1.9609-0.70257 2.9832-0.96419 1.8395-0.47078 3.4374-0.27402 4.8891-0.10544 1.4517 0.16858 2.7572 0.30889 3.6524 1.0784 0.89527 0.76947 1.3802 2.1681 1.6923 2.6031 0.31211 0.43497 0.45142-0.09381 0.79711-1.1213 0.34566-1.0275 0.89776-2.5537 1.871-3.153 0.9732-0.59937 2.3674-0.27183 3.5337 0.39715 1.1663 0.66899 2.1048 1.6794 3.0432 2.6898 1.0012-1.3256 2.0026-2.6513 3.1698-3.5703 1.1671-0.91901 2.4999-1.4315 3.6642-1.9824 1.1643-0.55088 2.16-1.1402 3.1556-1.7295-1.0513-0.98694-2.1024-1.9738-5.0578-2.8882-2.9554-0.91441-7.8148-1.7563-11.633-1.7267-3.8186 0.02959-6.5962 0.93057-9.0924 1.8466-0.88113 0.32336-1.7245 0.6505-2.5194 1.0124 0.36211-0.95649 0.69841-1.9751 0.74249-2.9873 0.0607-1.3932-0.4312-2.7725-0.91492-3.7423-0.48372-0.9698-0.95905-1.53-1.3549-1.3011-0.39581 0.22893-0.71216 1.2471-0.96517 2.0906-0.25301 0.84348-0.44279 1.5122-0.92375 1.6161-0.48099 0.10389-1.2532-0.35709-2.0614-0.7183-0.80824-0.36118-1.6524-0.62247-2.0068-1.0127-0.35436-0.39024-0.2187-0.90931 2e-3 -1.593 0.22131-0.68374 0.52826-1.5321 0.6954-2.0661 0.16713-0.53402 0.19445-0.75367-0.23237-0.79947-0.42682-0.04577-1.3078 0.08216-2.2026 0.46488-0.89483 0.38273-1.8035 1.0202-2.4114 1.7631-0.30695 0.37514-0.53701 0.77775-0.74547 1.2194-0.11754-0.25323-0.23579-0.50694-0.35831-0.76395-1.2307-2.5816-2.6739-5.3688-5.4111-8.3282-2.7372-2.9593-6.7682-6.0905-9.4705-7.7045-0.67557-0.4035-1.268-0.71211-1.7983-0.94964zm24.944 23.479a1.4519 1.6136 0 0 1 0.80541 2.0991 1.4519 1.6136 0 0 1-1.8888 0.89512 1.4519 1.6136 0 0 1-0.80542-2.0991 1.4519 1.6136 0 0 1 1.8888-0.89513zm-5.4056-2.3997a1.4519 1.6136 0 0 1 0.80542 2.0991 1.4519 1.6136 0 0 1-1.8887 0.89491 1.4519 1.6136 0 0 1-0.80549-2.0989 1.4519 1.6136 0 0 1 1.8888-0.89512z"
         fill="#fafa16"
         id="path15"
         style="opacity:0.7" />
      <path
         d="m314.79 117.52c-0.68057 0.2187-0.92783 0.60119-0.74811 0.87931 0.23964 0.37082 1.2382 0.55565 2.1217 0.74619 0.88342 0.19055 1.6517 0.38684 2.2819 0.75733 0.63024 0.37049 1.1224 0.91514 1.6238 1.8423 0.5014 0.92718 1.012 2.2368 1.1545 3.3788 0.14253 1.142-0.083 2.1164-1.1054 2.8072-1.0223 0.69081-2.8413 1.098-4.0901 1.2209-1.2488 0.12284-1.9274-0.0389-3.8427 0.43246-1.9153 0.47131-5.0671 1.5755-6.6877 4.3598-1.6206 2.7843-1.7101 7.2486-0.0355 11.966 1.6745 4.7178 5.1127 9.6889 10.23 11.696 5.1168 2.0072 11.912 1.0505 18.146-1.1349 6.2335-2.1854 11.905-5.5995 15.552-10.531s5.2695-11.379 4.2388-16.277-4.7144-8.246-9.215-8.9783c-4.5006-0.73231-9.8179 1.1507-12.938 2.4695-3.1202 1.3188-4.0436 2.0735-4.8595 1.7322-0.81598-0.34136-1.5247-1.7784-2.4354-3.1168-0.91069-1.3384-2.023-2.5785-3.6132-3.3713-1.5902-0.79287-3.6579-1.1388-4.9515-1.0333-0.32341 0.0263-0.59855 0.0812-0.82542 0.154zm18.67 11.078 2.8702 3.0766 2.8703 3.0769-3.0647 1.2067-3.0643 1.2069 0.19406-4.2835zm-16.641 5.9683 2.8702 3.0766 2.8702 3.0766-3.0643 1.2069-3.0647 1.2067 0.19415-4.2832zm28.655-1.0601c0.50724-0.25723 1.1866 0.9467 1.6973 2.381 0.54482 1.5299 0.89747 3.3221 0.53494 4.7538-0.36252 1.4317-1.4402 2.5029-2.3723 2.6912-0.93206 0.18827-1.7181-0.50647-2.5161-1.2372-0.79795-0.73074-1.6076-1.4971-1.8225-1.5455-0.21481-0.0484 0.16503 0.62116 0.45982 1.8758 0.29482 1.2546 0.50433 3.0939-5.8e-4 4.2148s-1.7241 1.5234-2.5837 1.4492c-0.85964-0.0742-1.3595-0.62525-2.0864-1.1408-0.72694-0.51559-1.681-0.99571-2.041-0.39978-0.36006 0.59593-0.12601 2.2681-0.72595 3.2216-0.59996 0.95343-2.0339 1.1879-2.9057 1.1972-0.87183 9e-3 -1.1815-0.20659-2.0153-0.92548-0.83381-0.71888-2.1916-1.9408-2.8948-2.3847-0.70327-0.44388-0.75213-0.1096-0.6119 0.91765 0.14025 1.0273 0.4695 2.7476-0.14121 3.307-0.61072 0.55936-2.1615-0.0425-3.1269-0.67811-0.96544-0.6357-1.3455-1.3055-1.9193-1.1162-0.57369 0.1896-1.3411 1.238-2.2957 0.99632-0.95465-0.24163-2.0966-1.7735-3.1671-3.2095-1.0705-1.436-2.0693-2.7765-1.5905-3.2524 0.47907-0.47618 2.4363-0.0881 3.9515 0.406 1.5152 0.49406 2.5882 1.0941 2.9946 0.99979 0.40634-0.0943 0.14591-0.88327 0.73294-1.5143 0.58706-0.6311 2.0216-1.1042 3.5128-0.56243 1.4912 0.54173 3.0388 2.0984 3.505 1.9446 0.46615-0.154-0.14901-2.0181 0.22464-3.1752 0.37365-1.1571 1.7364-1.6067 3.4305-1.0524 1.6941 0.55428 3.7193 2.1123 4.5327 1.6849 0.81335-0.4274 0.41458-2.8404 0.93275-4.403s1.9533-2.2746 3.2906-2.199c1.3373 0.0756 2.5767 0.93878 3.343 0.24855s1.0597-2.9338 1.5747-3.4218c0.0322-0.0305 0.0656-0.0542 0.0991-0.0718z"
         fill="#f6943f"
         id="path16"
         style="opacity:0.7" />
      <path
         d="m241.61 325.81c-0.59719-0.2226-0.98294-0.0874-1.0123 0.21094-0.0391 0.39775 0.55546 1.085 1.0664 1.7123 0.51094 0.62728 0.93828 1.1946 1.1721 1.8094 0.23387 0.61477 0.27428 1.2769 0.10811 2.217-0.16619 0.94011-0.53894 2.158-1.0754 3.0517-0.53652 0.89369-1.2368 1.4631-2.3356 1.3871-1.0988-0.076-2.5962-0.79735-3.5369-1.4044-0.94075-0.60705-1.3247-1.0998-2.925-1.8291-1.6003-0.72924-4.4168-1.695-7.0996-0.61084-2.6828 1.0841-5.2317 4.218-6.6897 8.5138-1.458 4.2958-1.8252 9.7534 0.63102 14.031 2.4562 4.2776 7.7356 7.3752 13.307 9.284 5.5713 1.9088 11.434 2.6288 16.728 1.1408 5.294-1.488 10.019-5.1837 12.027-9.25 2.0081-4.0663 1.2997-8.5028-1.4362-11.528-2.7358-3.0256-7.4987-4.6405-10.413-5.4356-2.914-0.79511-3.9794-0.77049-4.3592-1.4678-0.37984-0.69732-0.0745-2.1163 0.0348-3.5774 0.10934-1.461 0.0231-2.964-0.64612-4.414-0.66916-1.4499-1.9208-2.8468-2.8832-3.4911-0.24057-0.16113-0.46328-0.27508-0.66232-0.34932zm6.8706 18.285 0.29134 3.7905 0.29124 3.7908-2.8128-0.84417-2.8126-0.84379 2.5213-2.9467zm-14.948-5.0002 0.29135 3.7905 0.29133 3.7905-2.8126-0.84378-2.8128-0.84417 2.5212-2.9465zm20.606 15.183c0.49758 0.0987 0.30155 1.3351-0.14056 2.6421-0.47161 1.3941-1.2234 2.8683-2.2741 3.6877-1.0507 0.81938-2.4001 0.9838-3.156 0.59962-0.75591-0.38418-0.91803-1.3169-1.0684-2.2818-0.15039-0.96498-0.2891-1.9619-0.4122-2.1159-0.12308-0.15401-0.2306 0.5348-0.72355 1.5934-0.49278 1.0587-1.3709 2.4869-2.3479 3.0054-0.97696 0.51849-2.0528 0.1274-2.6119-0.40366-0.55912-0.53108-0.60134-1.2021-0.82195-1.9741-0.2206-0.77202-0.61961-1.6451-1.203-1.4204-0.58341 0.22471-1.3513 1.5474-2.3014 1.8936-0.95009 0.3462-2.0823-0.2842-2.6965-0.76247-0.61418-0.47828-0.71022-0.80452-0.89225-1.781-0.18202-0.97646-0.44985-2.6031-0.69386-3.3108-0.24401-0.70773-0.46432-0.49653-0.93851 0.31404-0.47418 0.8106-1.2024 2.2206-1.9405 2.2798-0.73813 0.0592-1.4862-1.2325-1.8064-2.2229-0.32031-0.99035-0.21272-1.6794-0.71896-1.8635-0.50636-0.18376-1.6262 0.13688-2.1585-0.56647-0.53223-0.70332-0.47668-2.4309-0.42463-4.0504 0.052-1.6195 0.10102-3.131 0.70052-3.2041 0.59986-0.0731 1.7508 1.2924 2.534 2.4875 0.78319 1.1951 1.1985 2.2199 1.5349 2.3787 0.33636 0.15872 0.59388-0.54874 1.3554-0.67225 0.76155-0.1235 2.0271 0.33709 2.7669 1.5529 0.73986 1.2158 0.95389 3.1867 1.3652 3.3364 0.41136 0.14955 1.02-1.5221 1.9254-2.1394 0.90545-0.61733 2.1078-0.17999 2.9824 1.1576 0.87466 1.3376 1.4215 3.5752 2.2276 3.7228s1.8716-1.795 3.1038-2.6211c1.2323-0.82612 2.6313-0.53558 3.5232 0.2622 0.89201 0.79779 1.2769 2.1027 2.1967 2.0368 0.91974-0.0659 2.3742-1.5027 3.0057-1.5643 0.0395-4e-3 0.0759-2e-3 0.10918 4e-3z"
         fill="#f6943f"
         id="path17"
         style="opacity:0.7" />
      <path
         d="m39.78 329.09c-1.9037 0.8758-2.8251 1.7366-3.7468 2.5974 1.2473 0.58651 2.4945 1.173 3.9455 1.7071 1.451 0.53405 3.1055 1.0157 4.58 1.9538 1.4746 0.93811 2.7692 2.3328 4.0635 3.7274 1.0899-1.1666 2.1798-2.3331 3.5665-3.1386 1.3867-0.80552 3.0701-1.25 4.2905-0.65106s1.9777 2.241 2.4558 3.3482c0.4781 1.1072 0.67707 1.6794 1.0341 1.1828 0.35703-0.49662 0.87227-2.0619 1.9226-2.9612 1.0504-0.89936 2.6358-1.1328 4.3981-1.4063 1.5637-0.24259 3.2679-0.51398 5.2179-0.2898 0.15588 0.21579 0.32933 0.41845 0.52847 0.60696 0.7393 0.70008 1.8292 1.2106 3.6806 1.1448l0.19191 0.0935 2.95 1.4376-0.14004-1.9936c1.7259-0.41358 3.5659-1.0578 4.923-1.7695l1.3429 1.3196 0.72127-2.7892c0.63904-0.65286 1.0106-1.354 1.1903-2.1109 0.53688-0.95903 1.0824-2.2727 1.7304-3.3786 1.166-1.99 2.6631-3.2615 4.0152-4.4245 1.3521-1.163 2.5589-2.2173 3.9249-2.4324 1.366-0.21509 2.891 0.40917 3.5006 0.46 0.60952 0.0508 0.3035-0.47195-0.2283-1.5544-0.53183-1.0824-1.2893-2.7245-0.95246-4.0416 0.33675-1.3171 1.7677-2.309 3.2806-2.8408 1.5129-0.53181 3.1078-0.60346 4.7026-0.67517-0.22045-1.8899-0.44085-3.78-0.19712-5.5106 0.24374-1.7306 0.95149-3.3017 1.4873-4.752 0.53578-1.4504 0.89937-2.7798 1.263-4.1093-1.6707 0.18968-3.3412 0.37928-6.5505 2.3158-3.2093 1.9366-7.9571 5.6199-11.135 9.0358-3.1782 3.4159-4.7868 6.5642-6.1473 9.4737-0.48025 1.027-0.92586 2.0234-1.303 3.0029-0.46123-1.0434-0.99377-2.1108-1.7662-2.9137-1.0632-1.1051-2.5786-1.7085-3.7597-2.0103-1.1811-0.3018-2.0276-0.30205-2.1765 0.22243-0.14882 0.52448 0.40007 1.5738 0.86239 2.435 0.46233 0.86123 0.83797 1.5344 0.51776 2.0403-0.32023 0.50584-1.3363 0.84428-2.3029 1.29-0.96653 0.44579-1.8833 0.99891-2.4925 1.0194-0.60918 0.0205-0.9105-0.49169-1.2717-1.2042-0.36118-0.71253-0.7822-1.6254-1.0691-2.1768-0.28688-0.55143-0.43963-0.74142-0.83414-0.39666-0.39449 0.34478-1.0309 1.2242-1.4751 2.3082s-0.69646 2.3725-0.61209 3.4732c0.0426 0.55581 0.17165 1.064 0.35002 1.5825-0.30105-0.0866-0.60308-0.17292-0.91133-0.25794-3.0963-0.854-6.5352-1.6743-11.197-1.4745-4.6615 0.19982-10.545 1.4199-14.102 2.6038-0.88911 0.29596-1.6327 0.58965-2.2672 0.88165zm39.691-4.4541a1.774 1.774 0 0 1 2.3539 0.86796 1.774 1.774 0 0 1-0.86795 2.3539 1.774 1.774 0 0 1-2.3539-0.86794 1.774 1.774 0 0 1 0.86795-2.3539zm-6.4515 2.9935a1.774 1.774 0 0 1 2.3539 0.86794 1.774 1.774 0 0 1-0.86807 2.3537 1.774 1.774 0 0 1-2.3538-0.86772 1.774 1.774 0 0 1 0.86796-2.3539z"
         fill="#fafa16"
         id="path18"
         style="opacity:0.7" />
    </g>
  </g>
</svg>
