<?xml version="1.0" encoding="UTF-8" standalone="no"?>
<!-- Created with Inkscape (http://www.inkscape.org/) -->

<svg
   width="55.201mm"
   height="64.486mm"
   viewBox="0 0 55.201001 64.486"
   version="1.1"
   id="svg1"
   inkscape:version="1.4 (e7c3feb, 2024-10-09)"
   sodipodi:docname="pumpkin-emoji2.svg"
   xmlns:inkscape="http://www.inkscape.org/namespaces/inkscape"
   xmlns:sodipodi="http://sodipodi.sourceforge.net/DTD/sodipodi-0.dtd"
   xmlns="http://www.w3.org/2000/svg"
   xmlns:svg="http://www.w3.org/2000/svg">
  <sodipodi:namedview
     id="namedview1"
     pagecolor="#ffffff"
     bordercolor="#000000"
     borderopacity="0.25"
     inkscape:showpageshadow="2"
     inkscape:pageopacity="0.0"
     inkscape:pagecheckerboard="0"
     inkscape:deskcolor="#d1d1d1"
     inkscape:document-units="mm"
     inkscape:zoom="2.0888418"
     inkscape:cx="159.17912"
     inkscape:cy="132.84874"
     inkscape:window-width="1459"
     inkscape:window-height="1009"
     inkscape:window-x="317"
     inkscape:window-y="66"
     inkscape:window-maximized="0"
     inkscape:current-layer="svg1" />
  <defs
     id="defs1">
    <inkscape:path-effect
       effect="bspline"
       id="path-effect18"
       is_visible="true"
       lpeversion="1.3"
       weight="33.333333"
       steps="2"
       helper_size="0"
       apply_no_weight="true"
       apply_with_weight="true"
       only_selected="false"
       uniform="false" />
    <inkscape:path-effect
       effect="bspline"
       id="path-effect16"
       is_visible="true"
       lpeversion="1.3"
       weight="33.333333"
       steps="2"
       helper_size="0"
       apply_no_weight="true"
       apply_with_weight="true"
       only_selected="false"
       uniform="false" />
  </defs>
  <g
     inkscape:label="Layer 1"
     inkscape:groupmode="layer"
     id="layer1"
     transform="translate(-147.61352,-31.449804)">
    <g
       transform="matrix(1.0000026,0,0,1.0000026,88.463554,35.638549)"
       stroke="#000000"
       stroke-linecap="round"
       stroke-linejoin="round"
       id="g17" />
  </g>
  <g
     id="g12"
     transform="translate(-144.19357,-28.409842)">
    <path
       style="fill:#94ff00;fill-opacity:1;fill-rule:evenodd;stroke:#e4ff00;stroke-width:0.949995;stroke-linecap:round;stroke-linejoin:round;stroke-dasharray:none;stroke-opacity:1"
       d="M 82.780589,-3.7137389 80.770841,5.3843619 89.288509,6.6918497 87.177381,-3.4513896 Z"
       id="path20"
       transform="matrix(1.0000026,0,0,1.0000026,88.463554,35.638549)" />
    <circle
       cx="83.583809"
       cy="28.862993"
       r="23.959"
       fill="#f5ff4b"
       fill-rule="evenodd"
       stroke-width="0.95012"
       id="circle1"
       style="fill:#ff9400;fill-opacity:1;stroke:#e4ff00;stroke-width:0.949998;stroke-dasharray:none;stroke-opacity:1"
       transform="matrix(1.0000026,0,0,1.0000026,88.463554,35.638549)" />
    <path
       d="m 107.39281,25.54933 c -6.5563,3.8998 -15.046004,6.2429 -23.853004,6.2613 -8.7834,-0.01845 -17.252,-2.35 -23.802,-6.231 -0.05478,0.52076 -0.09228,3.0008 -0.11244,3.524 -2.33e-4,13.146 10.706,23.802999 23.914,23.802999 13.207,-5.2e-5 23.914004,-10.656999 23.914004,-23.802999 -0.002,-0.53275 -0.0226,-3.0229 -0.0609,-3.5543 z"
       fill="#ffffff"
       fill-rule="evenodd"
       stroke-width="0.52678"
       id="path1"
       sodipodi:nodetypes="cccccccc"
       style="fill:#e4ff00;fill-opacity:1;stroke:#e4ff00;stroke-opacity:1"
       transform="matrix(1.0000026,0,0,1.0000026,88.463554,35.638549)" />
    <path
       d="m 84.181129,31.996995 0.70116,20.288011"
       stroke-width="0.52678"
       id="path2"
       style="fill:#1a1a1a;fill-rule:evenodd;stroke:#ff9400;stroke-width:0.726998;stroke-dasharray:none;stroke-opacity:1"
       sodipodi:nodetypes="cc"
       transform="matrix(1.0000026,0,0,1.0000026,88.463554,35.638549)" />
    <path
       d="m 77.640107,31.760827 0.2687,20.231084"
       stroke-width="0.526783"
       id="path3"
       style="fill:#1a1a1a;fill-rule:evenodd;stroke:#ff9400;stroke-width:0.726998;stroke-dasharray:none;stroke-opacity:1"
       transform="matrix(1.0000026,0,0,1.0000026,88.463554,35.638549)" />
    <path
       d="m 71.765771,30.797022 0.17913,18.402462"
       stroke-width="0.526789"
       id="path4"
       style="fill:#1a1a1a;fill-rule:evenodd;stroke:#ff9400;stroke-width:0.726998;stroke-dasharray:none;stroke-opacity:1"
       transform="matrix(1.0000026,0,0,1.0000026,88.463554,35.638549)" />
    <path
       d="m 66.876836,29.575977 -0.17913,14.957"
       stroke-width="0.52678"
       id="path5"
       style="fill:#1a1a1a;fill-rule:evenodd;stroke:#ff9400;stroke-width:0.726998;stroke-dasharray:none;stroke-opacity:1"
       transform="matrix(1.0000026,0,0,1.0000026,88.463554,35.638549)" />
    <path
       d="m 91.01847,31.496659 1.2539,19.339676"
       stroke-width="0.52678"
       id="path7"
       style="fill:#1a1a1a;fill-rule:evenodd;stroke:#ff9400;stroke-width:0.726998;stroke-dasharray:none;stroke-opacity:1"
       sodipodi:nodetypes="cc"
       transform="matrix(1.0000026,0,0,1.0000026,88.463554,35.638549)" />
    <path
       d="m 96.880158,30.338026 1.5226,16.943689"
       stroke-width="0.526787"
       id="path8"
       sodipodi:nodetypes="cc"
       style="fill:#1a1a1a;fill-rule:evenodd;stroke:#ff9400;stroke-width:0.726998;stroke-dasharray:none;stroke-opacity:1"
       transform="matrix(1.0000026,0,0,1.0000026,88.463554,35.638549)" />
    <path
       d="m 102.83515,28.331217 1.1644,12.87595"
       stroke-width="0.526782"
       id="path9"
       style="fill:#1a1a1a;fill-rule:evenodd;stroke:#ff9400;stroke-width:0.726998;stroke-dasharray:none;stroke-opacity:1"
       transform="matrix(1.0000026,0,0,1.0000026,88.463554,35.638549)" />
    <path
       d="m 62.559746,28.051968 -0.110225,9.761167"
       stroke-width="0.526782"
       id="path6"
       style="fill:#1a1a1a;fill-rule:evenodd;stroke:#ff9400;stroke-width:0.726998;stroke-dasharray:none;stroke-opacity:1"
       transform="matrix(1.0000026,0,0,1.0000026,88.463554,35.638549)" />
    <path
       style="fill:none;fill-opacity:1;fill-rule:evenodd;stroke:#e4ff00;stroke-width:0.949997;stroke-linecap:round;stroke-linejoin:round;stroke-opacity:1"
       d="m 77.467515,19.714044 c 0,0 -3.604309,-3.096353 -5.826581,-3.673278 -2.251019,-0.584388 -4.769881,-0.383676 -6.966561,0.379994 -0.829857,0.288497 -2.153301,1.519977 -2.153301,1.519977"
       id="path11"
       sodipodi:nodetypes="cssc"
       transform="matrix(1.0000026,0,0,1.0000026,88.463554,35.638549)" />
    <path
       style="fill:none;fill-opacity:1;fill-rule:evenodd;stroke:#e4ff00;stroke-width:0.949997;stroke-linecap:round;stroke-linejoin:round;stroke-opacity:1"
       d="m 90.387319,20.600698 c 0,0 3.604307,-3.096353 5.826579,-3.673278 2.251019,-0.584388 4.769882,-0.383676 6.966562,0.379994 0.82986,0.288497 2.1533,1.519977 2.1533,1.519977"
       id="path12"
       sodipodi:nodetypes="cssc"
       transform="matrix(1.0000026,0,0,1.0000026,88.463554,35.638549)" />
    <ellipse
       style="opacity:0.3;fill:#e4ff00;fill-opacity:1;fill-rule:evenodd;stroke:none;stroke-width:0.949999;stroke-linecap:round;stroke-linejoin:round;stroke-opacity:1"
       id="path10"
       cx="156.30472"
       cy="58.5826"
       rx="6.59308"
       ry="2.2166393" />
    <ellipse
       style="opacity:0.3;fill:#e4ff00;fill-opacity:1;fill-rule:evenodd;stroke:none;stroke-width:0.949999;stroke-linecap:round;stroke-linejoin:round;stroke-opacity:1"
       id="ellipse10"
       cx="187.84433"
       cy="59.34259"
       rx="6.59308"
       ry="2.2166393" />
  </g>
</svg>
