<?xml version="1.0" encoding="UTF-8" standalone="no"?>
<!-- Created with Inkscape (http://www.inkscape.org/) -->

<svg
   width="52.917999mm"
   height="65.721001mm"
   viewBox="0 0 52.917999 65.721001"
   version="1.1"
   id="svg1"
   inkscape:version="1.4 (e7c3feb, 2024-10-09)"
   sodipodi:docname="pumpkin-emoji4.svg"
   xmlns:inkscape="http://www.inkscape.org/namespaces/inkscape"
   xmlns:sodipodi="http://sodipodi.sourceforge.net/DTD/sodipodi-0.dtd"
   xmlns="http://www.w3.org/2000/svg"
   xmlns:svg="http://www.w3.org/2000/svg">
  <sodipodi:namedview
     id="namedview1"
     pagecolor="#ffffff"
     bordercolor="#000000"
     borderopacity="0.25"
     inkscape:showpageshadow="2"
     inkscape:pageopacity="0.0"
     inkscape:pagecheckerboard="0"
     inkscape:deskcolor="#d1d1d1"
     inkscape:document-units="mm"
     inkscape:zoom="2.0888418"
     inkscape:cx="20.58557"
     inkscape:cy="172.10494"
     inkscape:window-width="1231"
     inkscape:window-height="1009"
     inkscape:window-x="213"
     inkscape:window-y="14"
     inkscape:window-maximized="0"
     inkscape:current-layer="g3" />
  <defs
     id="defs1" />
  <g
     inkscape:label="Layer 1"
     inkscape:groupmode="layer"
     id="layer1"
     transform="translate(-139.05436,-143.74195)">
    <g
       id="g3"
       transform="translate(2.1166667,2.1166667)">
      <path
         style="fill:#95ff00;fill-opacity:1;fill-rule:evenodd;stroke:#e6ff00;stroke-width:1;stroke-linecap:round;stroke-linejoin:round;stroke-dasharray:none;stroke-opacity:1"
         d="m 159.8217,160.13836 2.46996,-15.64315 2.84997,3.60996 1.45664,10.57654 z"
         id="path5"
         sodipodi:nodetypes="ccccc" />
      <g
         transform="matrix(0.99999403,0,0,0.99999403,-80.416019,-98.191226)"
         id="g15">
        <path
           d="m 267.88969,279.19664 a 23.959,23.959 0 0 1 -23.959,23.959 23.959,23.959 0 0 1 -23.959,-23.959 23.959,23.959 0 0 1 23.959,-23.959 23.959,23.959 0 0 1 23.959,23.959 z"
           fill="#f5ff4b"
           id="path1"
           style="fill:#ff9500;fill-opacity:1;fill-rule:evenodd;stroke:#e6ff00;stroke-linecap:round;stroke-linejoin:round;stroke-opacity:1" />
        <path
           d="m 234.12923,279.93824 a 2.8164573,5.4079403 86.540427 0 1 -5.35,3.08194 2.8164573,5.4079403 86.540427 0 1 -5.45105,-2.55377 2.8164573,5.4079403 86.540427 0 1 5.34999,-3.08194 2.8164573,5.4079403 86.540427 0 1 5.45106,2.55377 z"
           fill="#e20000"
           id="path7"
           style="opacity:1;fill:#f9b24d;fill-opacity:1;fill-rule:evenodd;stroke:#f9b24d;stroke-width:0.99976;stroke-linecap:round;stroke-linejoin:round;stroke-opacity:1" />
        <g
           id="g2"
           transform="rotate(-13.455644,231.06267,71.395623)">
          <g
             fill-rule="evenodd"
             id="g10"
             transform="matrix(1.3088,-0.16396,0.16452,1.3133,-148.65,-94.595)"
             style="fill:#e6ff00;fill-opacity:1;stroke-width:0.75683;stroke-linecap:round;stroke-linejoin:round">
            <path
               d="m 223.38,303.45 a 3.3139,3.3139 0 0 1 -3.3139,3.3139 3.3139,3.3139 0 0 1 -3.3139,-3.3139 3.3139,3.3139 0 0 1 3.3139,-3.3139 3.3139,3.3139 0 0 1 3.3139,3.3139 z"
               id="path9"
               style="fill:#e6ff00;fill-opacity:1" />
            <path
               d="m 220.06,299.96 c -1.9253,0 -3.4902,1.5649 -3.4902,3.4902 0,1.9253 1.5649,3.4902 3.4902,3.4902 1.9253,0 3.4902,-1.5649 3.4902,-3.4902 0,-1.9253 -1.5649,-3.4902 -3.4902,-3.4902 z m 0,0.35157 c 1.7351,0 3.1387,1.4035 3.1387,3.1387 0,1.7352 -1.4035,3.1367 -3.1387,3.1367 -1.7352,0 -3.1367,-1.4016 -3.1367,-3.1367 0,-1.7351 1.4016,-3.1387 3.1367,-3.1387 z"
               id="path10"
               style="fill:#e6ff00;fill-opacity:1" />
          </g>
          <path
             d="m 192.22292,265.03038 c -0.0492,-0.15832 -0.0867,-0.56788 -0.38429,-0.97448 -0.51268,-0.70044 -1.77438,-1.58803 -3.44823,-1.95399 -1.08092,-0.24273 -2.13733,-0.22256 -3.07883,-0.0598 -0.93842,0.16228 -1.94513,0.49764 -2.867,1.12478 -0.92294,0.59907 -1.57623,1.3755 -1.73722,1.92239 -0.0955,0.32438 0.0115,0.61862 0.0228,0.73822 0.1025,-0.0627 0.39571,-0.1372 0.62319,-0.32896 0.36229,-0.30538 0.87645,-1.04745 1.59629,-1.62152 0.7698,-0.58315 1.64609,-0.93353 2.49228,-1.07985 0.84734,-0.14651 1.79825,-0.11137 2.73929,0.15093 1.52874,0.43633 2.42523,1.22431 3.13393,1.66514 0.38476,0.23931 0.75861,0.3345 0.90787,0.41706 z"
             stroke-width="0.765004"
             id="path11"
             style="fill:#e6ff00;fill-opacity:1;stroke:none;stroke-linecap:round;stroke-linejoin:round;stroke-opacity:1" />
        </g>
        <g
           id="g1"
           transform="matrix(-0.97951086,-0.20139135,-0.20139135,0.97951086,508.9758,52.767859)">
          <g
             fill-rule="evenodd"
             id="g13"
             transform="matrix(1.3088,-0.16396,0.16452,1.3133,-129.3,-95.58)"
             style="fill:#e6ff00;fill-opacity:1;stroke-width:0.75683;stroke-linecap:round;stroke-linejoin:round">
            <path
               d="m 223.38,303.45 a 3.3139,3.3139 0 0 1 -3.3139,3.3139 3.3139,3.3139 0 0 1 -3.3139,-3.3139 3.3139,3.3139 0 0 1 3.3139,-3.3139 3.3139,3.3139 0 0 1 3.3139,3.3139 z"
               id="path12"
               style="fill:#e6ff00;fill-opacity:1" />
            <path
               d="m 220.06,299.96 c -1.9253,0 -3.4902,1.5649 -3.4902,3.4902 0,1.9253 1.5649,3.4902 3.4902,3.4902 1.9253,0 3.4902,-1.5649 3.4902,-3.4902 0,-1.9253 -1.5649,-3.4902 -3.4902,-3.4902 z m 0,0.35157 c 1.7351,0 3.1387,1.4035 3.1387,3.1387 0,1.7352 -1.4035,3.1367 -3.1387,3.1367 -1.7352,0 -3.1367,-1.4016 -3.1367,-3.1367 0,-1.7351 1.4016,-3.1387 3.1367,-3.1387 z"
               id="path13"
               style="fill:#e6ff00;fill-opacity:1" />
          </g>
          <path
             d="m 211.57292,264.04538 c -0.0492,-0.15832 -0.0867,-0.56788 -0.38429,-0.97448 -0.51268,-0.70044 -1.77438,-1.58803 -3.44823,-1.95399 -1.08092,-0.24273 -2.13733,-0.22256 -3.07883,-0.0598 -0.93842,0.16228 -1.94513,0.49764 -2.867,1.12478 -0.92294,0.59907 -1.57623,1.3755 -1.73722,1.92239 -0.0955,0.32438 0.0115,0.61862 0.0228,0.73822 0.1025,-0.0627 0.39571,-0.1372 0.62319,-0.32896 0.36229,-0.30538 0.87645,-1.04745 1.59629,-1.62152 0.7698,-0.58315 1.64609,-0.93353 2.49228,-1.07985 0.84734,-0.14651 1.79825,-0.11137 2.73929,0.15093 1.52874,0.43633 2.42523,1.22431 3.13393,1.66514 0.38476,0.23931 0.75861,0.3345 0.90787,0.41706 z"
             stroke-width="0.765004"
             id="path14"
             style="fill:#e6ff00;fill-opacity:1;stroke:none;stroke-linecap:round;stroke-linejoin:round;stroke-opacity:1" />
        </g>
        <path
           d="m 263.97736,279.05158 a 2.8164573,5.4079403 86.540427 0 1 -5.35,3.08194 2.8164573,5.4079403 86.540427 0 1 -5.45105,-2.55377 2.8164573,5.4079403 86.540427 0 1 5.34999,-3.08194 2.8164573,5.4079403 86.540427 0 1 5.45106,2.55377 z"
           fill="#e20000"
           id="path2"
           style="opacity:1;fill:#f9b24d;fill-opacity:1;fill-rule:evenodd;stroke:#f9b24d;stroke-width:0.99976;stroke-linecap:round;stroke-linejoin:round;stroke-opacity:1" />
      </g>
      <path
         style="opacity:0.7;fill:none;fill-rule:evenodd;stroke:#e6ff00;stroke-width:1.2;stroke-linecap:square;stroke-linejoin:round;stroke-dasharray:none;stroke-opacity:1"
         d="m 166.7799,184.01673 3.32878,6.75654 -7.02811,0.90752"
         id="path3" />
    </g>
  </g>
</svg>
