<?xml version="1.0" encoding="UTF-8" standalone="no"?>
<!-- Created with Inkscape (http://www.inkscape.org/) -->

<svg
   width="57.712002mm"
   height="62.772999mm"
   viewBox="0 0 57.712002 62.772999"
   version="1.1"
   id="svg1"
   inkscape:version="1.4 (e7c3feb, 2024-10-09)"
   sodipodi:docname="pumpkin-emoji3.svg"
   xmlns:inkscape="http://www.inkscape.org/namespaces/inkscape"
   xmlns:sodipodi="http://sodipodi.sourceforge.net/DTD/sodipodi-0.dtd"
   xmlns="http://www.w3.org/2000/svg"
   xmlns:svg="http://www.w3.org/2000/svg">
  <sodipodi:namedview
     id="namedview1"
     pagecolor="#ffffff"
     bordercolor="#000000"
     borderopacity="0.25"
     inkscape:showpageshadow="2"
     inkscape:pageopacity="0.0"
     inkscape:pagecheckerboard="0"
     inkscape:deskcolor="#d1d1d1"
     inkscape:document-units="mm"
     inkscape:zoom="2.0888418"
     inkscape:cx="2.8724051"
     inkscape:cy="134.76367"
     inkscape:window-width="1920"
     inkscape:window-height="1009"
     inkscape:window-x="0"
     inkscape:window-y="0"
     inkscape:window-maximized="1"
     inkscape:current-layer="layer1" />
  <defs
     id="defs1" />
  <g
     inkscape:label="Layer 1"
     inkscape:groupmode="layer"
     id="layer1"
     transform="translate(-76.852118,-80.312326)">
    <g
       id="g5"
       transform="translate(3.0399621,2.0266413)">
      <path
         style="opacity:1;fill:#95ff00;fill-opacity:1;fill-rule:evenodd;stroke:#e6ff00;stroke-width:1;stroke-linecap:round;stroke-linejoin:round;stroke-dasharray:none;stroke-opacity:1"
         d="m 17.450056,10.189878 1.07665,-9.68988305 4.116614,0.443328 2.976622,10.19653905 z"
         id="path5"
         transform="translate(76.852118,80.312326)" />
      <g
         transform="matrix(0.99999403,0,0,0.99999403,-95.522853,-161.24079)"
         id="g15">
        <path
           d="m 220.77,274.89 a 23.959,23.959 0 0 1 -23.959,23.959 23.959,23.959 0 0 1 -23.959,-23.959 23.959,23.959 0 0 1 23.959,-23.959 23.959,23.959 0 0 1 23.959,23.959 z"
           fill="#f5ff4b"
           id="path1"
           style="fill:#ff9500;fill-opacity:1;fill-rule:evenodd;stroke-linecap:round;stroke-linejoin:round" />
        <path
           d="m 196.81,250.46 c -13.489,0 -24.434,10.945 -24.434,24.434 0,13.489 10.945,24.434 24.434,24.434 13.489,0 24.436,-10.945 24.436,-24.434 0,-13.489 -10.947,-24.434 -24.436,-24.434 z m 0,0.94922 c 12.975,0 23.484,10.509 23.484,23.484 0,12.975 -10.509,23.484 -23.484,23.484 -12.975,0 -23.482,-10.509 -23.482,-23.484 0,-12.975 10.507,-23.484 23.482,-23.484 z"
           id="path2"
           style="fill:#e6ff00;fill-opacity:1;fill-rule:evenodd;stroke-width:1.00001;stroke-linecap:round;stroke-linejoin:round;stroke-dasharray:none" />
        <path
           d="m 217.44,287.11 7.179,-11.355 -4.056,-0.48378"
           fill="#f5ff4b"
           id="path3"
           style="fill:#ff9500;fill-opacity:1;fill-rule:evenodd;stroke-linecap:round;stroke-linejoin:round" />
        <rect
           transform="matrix(-0.33378032,0.94265089,-0.93098006,-0.36507002,0,0)"
           x="176.24983"
           y="-300.68997"
           width="1.3025988"
           height="1.5048999"
           stroke-width="0.26466"
           id="rect4"
           style="fill:#ff9500;fill-opacity:1;fill-rule:evenodd" />
        <rect
           transform="matrix(0.87818013,0.47833007,-0.52341043,0.8520807,0,0)"
           x="334.82993"
           y="146.21988"
           width="0.80681986"
           height="0.93340921"
           stroke-width="0.26476"
           id="rect5"
           style="fill:#ff9500;fill-opacity:1;fill-rule:evenodd" />
        <rect
           transform="rotate(37.078)"
           x="345.22"
           y="96.793999"
           width="0.88665998"
           height="1.4883"
           stroke-width="0.26458"
           id="rect6"
           style="fill:#ff9500;fill-opacity:1;fill-rule:evenodd" />
        <rect
           transform="matrix(0.0042763,0.99999086,-0.99957596,-0.02911888,0,0)"
           x="268.18976"
           y="-219.24089"
           width="1.302599"
           height="1.5049061"
           stroke-width="0.26466"
           id="rect7"
           style="fill:#ff9500;fill-opacity:1;fill-rule:evenodd" />
        <path
           d="m 186.94823,275.42973 a 2.8164573,5.4079403 74.852883 0 1 -4.61475,4.10181 2.8164573,5.4079403 74.852883 0 1 -5.85536,-1.39658 2.8164573,5.4079403 74.852883 0 1 4.61474,-4.10181 2.8164573,5.4079403 74.852883 0 1 5.85537,1.39658 z"
           fill="#e20000"
           id="path7"
           style="opacity:1;fill:#f9b24d;fill-opacity:1;fill-rule:evenodd;stroke:#f9b24d;stroke-width:0.99976;stroke-linecap:round;stroke-linejoin:round;stroke-opacity:1" />
        <g
           fill-rule="evenodd"
           id="g10"
           transform="matrix(1.3088,-0.16396,0.16452,1.3133,-148.65,-94.595)"
           style="fill:#e6ff00;fill-opacity:1;stroke-width:0.75683;stroke-linecap:round;stroke-linejoin:round">
          <path
             d="m 223.38,303.45 a 3.3139,3.3139 0 0 1 -3.3139,3.3139 3.3139,3.3139 0 0 1 -3.3139,-3.3139 3.3139,3.3139 0 0 1 3.3139,-3.3139 3.3139,3.3139 0 0 1 3.3139,3.3139 z"
             id="path9"
             style="fill:#e6ff00;fill-opacity:1" />
          <path
             d="m 220.06,299.96 c -1.9253,0 -3.4902,1.5649 -3.4902,3.4902 0,1.9253 1.5649,3.4902 3.4902,3.4902 1.9253,0 3.4902,-1.5649 3.4902,-3.4902 0,-1.9253 -1.5649,-3.4902 -3.4902,-3.4902 z m 0,0.35157 c 1.7351,0 3.1387,1.4035 3.1387,3.1387 0,1.7352 -1.4035,3.1367 -3.1387,3.1367 -1.7352,0 -3.1367,-1.4016 -3.1367,-3.1367 0,-1.7351 1.4016,-3.1387 3.1367,-3.1387 z"
             id="path10"
             style="fill:#e6ff00;fill-opacity:1" />
        </g>
        <path
           d="m 192.22292,265.03038 c -0.0492,-0.15832 -0.0867,-0.56788 -0.38429,-0.97448 -0.51268,-0.70044 -1.77438,-1.58803 -3.44823,-1.95399 -1.08092,-0.24273 -2.13733,-0.22256 -3.07883,-0.0598 -0.93842,0.16228 -1.94513,0.49764 -2.867,1.12478 -0.92294,0.59907 -1.57623,1.3755 -1.73722,1.92239 -0.0955,0.32438 0.0115,0.61862 0.0228,0.73822 0.1025,-0.0627 0.39571,-0.1372 0.62319,-0.32896 0.36229,-0.30538 0.87645,-1.04745 1.59629,-1.62152 0.7698,-0.58315 1.64609,-0.93353 2.49228,-1.07985 0.84734,-0.14651 1.79825,-0.11137 2.73929,0.15093 1.52874,0.43633 2.42523,1.22431 3.13393,1.66514 0.38476,0.23931 0.75861,0.3345 0.90787,0.41706 z"
           stroke-width="0.765004"
           id="path11"
           style="fill:#e6ff00;fill-opacity:1;stroke:none;stroke-linecap:round;stroke-linejoin:round;stroke-opacity:1" />
        <g
           fill-rule="evenodd"
           id="g13"
           transform="matrix(1.3088,-0.16396,0.16452,1.3133,-129.3,-95.58)"
           style="fill:#e6ff00;fill-opacity:1;stroke-width:0.75683;stroke-linecap:round;stroke-linejoin:round">
          <path
             d="m 223.38,303.45 a 3.3139,3.3139 0 0 1 -3.3139,3.3139 3.3139,3.3139 0 0 1 -3.3139,-3.3139 3.3139,3.3139 0 0 1 3.3139,-3.3139 3.3139,3.3139 0 0 1 3.3139,3.3139 z"
             id="path12"
             style="fill:#e6ff00;fill-opacity:1" />
          <path
             d="m 220.06,299.96 c -1.9253,0 -3.4902,1.5649 -3.4902,3.4902 0,1.9253 1.5649,3.4902 3.4902,3.4902 1.9253,0 3.4902,-1.5649 3.4902,-3.4902 0,-1.9253 -1.5649,-3.4902 -3.4902,-3.4902 z m 0,0.35157 c 1.7351,0 3.1387,1.4035 3.1387,3.1387 0,1.7352 -1.4035,3.1367 -3.1387,3.1367 -1.7352,0 -3.1367,-1.4016 -3.1367,-3.1367 0,-1.7351 1.4016,-3.1387 3.1367,-3.1387 z"
             id="path13"
             style="fill:#e6ff00;fill-opacity:1" />
        </g>
        <path
           d="m 211.57292,264.04538 c -0.0492,-0.15832 -0.0867,-0.56788 -0.38429,-0.97448 -0.51268,-0.70044 -1.77438,-1.58803 -3.44823,-1.95399 -1.08092,-0.24273 -2.13733,-0.22256 -3.07883,-0.0598 -0.93842,0.16228 -1.94513,0.49764 -2.867,1.12478 -0.92294,0.59907 -1.57623,1.3755 -1.73722,1.92239 -0.0955,0.32438 0.0115,0.61862 0.0228,0.73822 0.1025,-0.0627 0.39571,-0.1372 0.62319,-0.32896 0.36229,-0.30538 0.87645,-1.04745 1.59629,-1.62152 0.7698,-0.58315 1.64609,-0.93353 2.49228,-1.07985 0.84734,-0.14651 1.79825,-0.11137 2.73929,0.15093 1.52874,0.43633 2.42523,1.22431 3.13393,1.66514 0.38476,0.23931 0.75861,0.3345 0.90787,0.41706 z"
           stroke-width="0.765004"
           id="path14"
           style="fill:#e6ff00;fill-opacity:1;stroke:none;stroke-linecap:round;stroke-linejoin:round;stroke-opacity:1" />
        <path
           style="opacity:1;fill:none;fill-opacity:1;fill-rule:evenodd;stroke:#e6ff00;stroke-width:1.00001;stroke-linecap:round;stroke-linejoin:round;stroke-dasharray:none;stroke-opacity:1"
           d="m 220.78186,275.48354 3.80657,0.40305 -6.94139,10.97187"
           id="path4"
           sodipodi:nodetypes="ccc" />
      </g>
    </g>
  </g>
</svg>
