<svg width="297mm" height="297mm" version="1.1" viewBox="0 0 297 297" xmlns="http://www.w3.org/2000/svg">
 <g fill="#fefffa" fill-rule="evenodd" stroke="#fff" stroke-linecap="round" stroke-linejoin="round" stroke-width="1.265">
  <path transform="rotate(-66.166 135.81 92.811)" d="m108.2 125.03c0.95536 2.5078 2.9855 6.0905 4.3589 7.7624 1.3734 1.6719 2.0899 1.4331 3.2244 0.35825 1.1345-1.0748 2.687-2.9855 5.1351-6.1502 2.4482-3.1647 5.7919-7.5832 10.211-13.256 4.4186-5.6726 9.9119-12.599 13.853-18.391 3.9409-5.792 6.3293-10.449 7.3444-13.256 1.0151-2.8064 0.65682-3.7618-0.59712-5.6128-1.2539-1.8511-3.4035-4.5977-5.1351-6.2099-1.7316-1.6122-3.0452-2.0899-4.2394-0.89562-1.1942 1.1942-2.269 4.0603-3.7618 7.225-1.4928 3.1647-3.4035 6.6278-6.1502 10.628-2.7467 4.0006-6.3293 8.5386-9.7328 12.778-3.4035 4.2395-6.6278 8.1803-9.1357 11.405s-4.2991 5.7322-5.2545 7.7026c-0.95536 1.9705-1.0748 3.4035-0.11941 5.9113z"/>
  <path transform="rotate(-1.0441 900.79 -449.29)" d="m172.32 187.37c0.47769-3.105-1.9107-5.4934-3.6423-6.9264-1.7316-1.433-2.8064-1.9107-4.2395-1.1942s-3.2244 2.6272-7.1056 6.9862c-3.8812 4.3589-9.8522 11.166-15.764 17.973-5.9114 6.8071-11.763 13.614-14.211 17.734-2.4481 4.12-1.4928 5.5531-0.11942 7.1653s3.1646 3.4035 4.956 4.4186c1.7913 1.0151 3.5826 1.2539 5.9114-1.1943s5.1948-7.5832 8.4789-12.42c3.2841-4.8366 6.9861-9.3745 10.151-12.957 3.1647-3.5826 5.7919-6.2099 8.7774-9.4343 2.9856-3.2244 6.3293-7.0458 6.807-10.151z"/>
  <path transform="translate(5.0666 14.693)" d="m89.387 156.68c-3.5229-2.0302-9.3745-4.2992-14.749-4.956-5.374-0.6568-10.27 0.29854-16.122 2.0899-5.8517 1.7913-12.659 4.4186-16.48 6.4487-3.8215 2.0302-4.6574 3.4632-5.0754 5.3142s-0.41797 4.12-0.41797 5.9113 0 3.1049 0.71654 3.1646 2.1496-1.1345 4.7769-2.5078c2.6273-1.3734 6.4487-2.9258 11.703-4.2394s11.942-2.3884 17.555-2.687 10.151 0.17913 13.733 1.1942c3.5827 1.0151 6.2099 2.5675 7.7623 1.9704 1.5525-0.59713 2.0302-3.3438 1.6719-5.6128-0.35827-2.269-1.5525-4.0603-5.0754-6.0904z"/>
  <path d="m25.676 41.499c-0.83595 4.12 0.71653 7.4638 1.9107 9.6731s2.0301 3.2841 3.6424 2.0301c1.6122-1.254 4.0006-4.8365 6.5682-8.7775 2.5676-3.9409 5.3142-8.24 8.7177-12.062 3.4035-3.8215 7.4638-7.1652 10.927-9.5537 3.4632-2.3884 6.3293-3.8215 7.6429-5.8516 1.3136-2.0302 1.0748-4.6574-0.418-6.807-1.4928-2.1496-4.2394-3.8215-6.2696-4.0603-2.0302-0.23883-3.3438 0.95536-5.374 2.6273-2.0302 1.6719-4.7768 3.8214-8.2401 7.0459-3.4632 3.2244-7.6429 7.5235-11.345 12.121-3.7021 4.5978-6.9264 9.4939-7.7623 13.614z"/>
  <path transform="rotate(79.414 93.853 259.46)" d="m108.2 125.03c0.95536 2.5078 2.9855 6.0905 4.3589 7.7624 1.3734 1.6719 2.0899 1.4331 3.2244 0.35825 1.1345-1.0748 2.687-2.9855 5.1351-6.1502 2.4482-3.1647 5.7919-7.5832 10.211-13.256 4.4186-5.6726 9.9119-12.599 13.853-18.391 3.9409-5.792 6.3293-10.449 7.3444-13.256 1.0151-2.8064 0.65682-3.7618-0.59712-5.6128-1.2539-1.8511-3.4035-4.5977-5.1351-6.2099-1.7316-1.6122-3.0452-2.0899-4.2394-0.89562-1.1942 1.1942-2.269 4.0603-3.7618 7.225-1.4928 3.1647-3.4035 6.6278-6.1502 10.628-2.7467 4.0006-6.3293 8.5386-9.7328 12.778-3.4035 4.2395-6.6278 8.1803-9.1357 11.405s-4.2991 5.7322-5.2545 7.7026c-0.95536 1.9705-1.0748 3.4035-0.11941 5.9113z"/>
  <path transform="rotate(51.478 108.34 208.22)" d="m25.676 41.499c-0.83595 4.12 0.71653 7.4638 1.9107 9.6731s2.0301 3.2841 3.6424 2.0301c1.6122-1.254 4.0006-4.8365 6.5682-8.7775 2.5676-3.9409 5.3142-8.24 8.7177-12.062 3.4035-3.8215 7.4638-7.1652 10.927-9.5537 3.4632-2.3884 6.3293-3.8215 7.6429-5.8516 1.3136-2.0302 1.0748-4.6574-0.418-6.807-1.4928-2.1496-4.2394-3.8215-6.2696-4.0603-2.0302-0.23883-3.3438 0.95536-5.374 2.6273-2.0302 1.6719-4.7768 3.8214-8.2401 7.0459-3.4632 3.2244-7.6429 7.5235-11.345 12.121-3.7021 4.5978-6.9264 9.4939-7.7623 13.614z"/>
  <path transform="rotate(45.555 203.48 383.37)" d="m89.387 156.68c-3.5229-2.0302-9.3745-4.2992-14.749-4.956-5.374-0.6568-10.27 0.29854-16.122 2.0899-5.8517 1.7913-12.659 4.4186-16.48 6.4487-3.8215 2.0302-4.6574 3.4632-5.0754 5.3142s-0.41797 4.12-0.41797 5.9113 0 3.1049 0.71654 3.1646 2.1496-1.1345 4.7769-2.5078c2.6273-1.3734 6.4487-2.9258 11.703-4.2394s11.942-2.3884 17.555-2.687 10.151 0.17913 13.733 1.1942c3.5827 1.0151 6.2099 2.5675 7.7623 1.9704 1.5525-0.59713 2.0302-3.3438 1.6719-5.6128-0.35827-2.269-1.5525-4.0603-5.0754-6.0904z"/>
  <path transform="rotate(110.63 -23.655 144.92)" d="m25.676 41.499c-0.83595 4.12 0.71653 7.4638 1.9107 9.6731s2.0301 3.2841 3.6424 2.0301c1.6122-1.254 4.0006-4.8365 6.5682-8.7775 2.5676-3.9409 5.3142-8.24 8.7177-12.062 3.4035-3.8215 7.4638-7.1652 10.927-9.5537 3.4632-2.3884 6.3293-3.8215 7.6429-5.8516 1.3136-2.0302 1.0748-4.6574-0.418-6.807-1.4928-2.1496-4.2394-3.8215-6.2696-4.0603-2.0302-0.23883-3.3438 0.95536-5.374 2.6273-2.0302 1.6719-4.7768 3.8214-8.2401 7.0459-3.4632 3.2244-7.6429 7.5235-11.345 12.121-3.7021 4.5978-6.9264 9.4939-7.7623 13.614z"/>
 </g>
</svg>
