<svg width="109.78mm" height="104.56mm" version="1.1" viewBox="0 0 109.78 104.56" xmlns="http://www.w3.org/2000/svg">
 <g transform="translate(-18.064 -20.525)">
  <path transform="matrix(1.1791 -.12221 .12221 1.1791 -26.828 1.4351)" d="m101.35 115.22c-2.7786 1.6042-23.729-17.122-26.92-17.457-3.1909-0.33538-27.577 13.626-29.961 11.479-2.3844-2.1469 8.9514-27.859 8.2843-30.997-0.66708-3.1384-21.481-22.017-20.176-24.948 1.305-2.9311 29.261-0.09549 32.04-1.6997s14.301-27.233 17.492-26.898c3.1909 0.33538 9.1331 27.8 11.517 29.947 2.3844 2.1469 30.319 5.1857 30.986 8.3241 0.66708 3.1384-23.617 17.277-24.922 20.208-1.305 2.9311 4.4373 30.438 1.6587 32.042z" fill="#672ca0" fill-rule="evenodd" stroke-linecap="round" stroke-linejoin="round" stroke-width="1.5732"/>
 </g>
</svg>
